<svg width="20" height="21" viewBox="0 0 20 21" fill="none" xmlns="http://www.w3.org/2000/svg">
<path d="M14.1791 0.0617676H5.8209C4.25373 0.0617676 3 1.27389 3 2.68803V8.44561C3 11.7789 5.61194 14.6072 8.95522 15.1123V18.0416H5.8209C5.19403 18.0416 4.77612 18.4456 4.77612 19.0517C4.77612 19.6577 5.19403 20.0618 5.8209 20.0618H14.1791C14.806 20.0618 15.2239 19.6577 15.2239 19.0517C15.2239 18.4456 14.806 18.0416 14.1791 18.0416H11.0448V15.1123C14.3881 14.6072 17 11.88 17 8.44561V2.68803C17 1.27389 15.7463 0.0617676 14.1791 0.0617676ZM14.9104 8.44561C14.9104 11.0719 12.7164 13.1931 10 13.1931C7.28358 13.1931 5.08955 11.0719 5.08955 8.44561V2.68803C5.08955 2.385 5.40299 2.08197 5.8209 2.08197H14.1791C14.4925 2.08197 14.9104 2.385 14.9104 2.68803V8.44561Z" fill="#009640"/>
<path d="M1 1.06177C0.4 1.06177 0 1.47735 0 2.10073V8.02281C0 8.64618 0.4 9.06177 1 9.06177C1.6 9.06177 2 8.64618 2 8.02281V2.10073C2 1.58125 1.6 1.06177 1 1.06177Z" fill="#009640"/>
<path d="M19 1.06177C18.4 1.06177 18 1.47735 18 2.10073V8.02281C18 8.64618 18.4 9.06177 19 9.06177C19.6 9.06177 20 8.64618 20 8.02281V2.10073C20 1.58125 19.6 1.06177 19 1.06177Z" fill="#009640"/>
</svg>
