<svg width="32" height="32" viewBox="0 0 32 32" fill="none" xmlns="http://www.w3.org/2000/svg">
<rect width="32" height="32" rx="16" fill="#E9EAEC"/>
<path d="M17.4998 6.5L17.0272 5.71236C16.5614 4.93617 15.4368 4.93543 14.97 5.71101L12.6411 9.58087C12.4735 9.85928 12.2002 10.0578 11.8837 10.1312L7.48066 11.1509C6.59948 11.355 6.25228 12.4236 6.84521 13.1066L9.80794 16.5196C10.0209 16.765 10.1253 17.0863 10.0972 17.41L9.98942 18.6525M19.1679 9.2644L19.3583 9.58087C19.5259 9.85928 19.7992 10.0578 20.1157 10.1312L24.5188 11.1509C25.3999 11.355 25.7471 12.4236 25.1542 13.1066L22.1915 16.5196C21.9785 16.765 21.8741 17.0863 21.9022 17.41L22.2929 21.9127C22.3711 22.8138 21.4622 23.4742 20.6293 23.1214L16.4678 21.3583C16.1686 21.2316 15.8308 21.2316 15.5316 21.3583L11.1505 23.2144C10.4173 23.525 9.617 22.9436 9.68585 22.1503V22.1503L9.7238 21.713" stroke="#828897" stroke-width="1.5" stroke-linecap="round"/>
</svg>
