<svg width="22" height="23" viewBox="0 0 22 23" fill="none" xmlns="http://www.w3.org/2000/svg">
<path d="M14.3304 17.4606C13.9991 17.6529 13.6577 17.8271 13.3076 17.9825C12.3296 18.3909 11.2781 18.5943 10.2183 18.5802C9.15377 18.5896 8.09936 18.373 7.12479 17.9446C6.64722 17.7482 6.19274 17.4998 5.76953 17.2039" stroke="#D6171B" stroke-width="0.29883" stroke-linecap="round" stroke-linejoin="round"/>
<path d="M17.053 6.05859C17.9031 7.38807 18.3489 8.93579 18.3362 10.5138C18.3235 12.0918 17.8528 13.6321 16.9814 14.9477" stroke="#D6171B" stroke-width="0.29883" stroke-linecap="round" stroke-linejoin="round" stroke-dasharray="1.49 1.04"/>
<path d="M3.88355 5.4187C2.83712 6.75646 2.23755 8.38925 2.16958 10.0863C2.10161 11.7834 2.56867 13.4589 3.50475 14.876" stroke="#010101" stroke-width="0.29883" stroke-linecap="round" stroke-linejoin="round"/>
<path d="M14.6547 3.63423C13.2973 2.75963 11.7092 2.31146 10.095 2.34747C8.48067 2.38348 6.91413 2.90201 5.59717 3.83626" stroke="#010101" stroke-width="0.29883" stroke-linecap="round" stroke-linejoin="round"/>
<path d="M16.6243 16.7112C16.6973 16.6079 16.7489 16.4911 16.7763 16.3676C16.8038 16.2441 16.8064 16.1164 16.7841 15.9919C16.7618 15.8674 16.7149 15.7485 16.6463 15.6423C16.5777 15.536 16.4887 15.4444 16.3844 15.3728C16.1748 15.2232 15.9171 15.1568 15.6613 15.1863C15.4055 15.2159 15.1697 15.3393 14.9997 15.5327C14.9262 15.6353 14.8737 15.7515 14.8453 15.8745C14.8169 15.9975 14.8132 16.1249 14.8343 16.2493C14.8554 16.3738 14.901 16.4928 14.9684 16.5996C15.0358 16.7063 15.1237 16.7986 15.227 16.8712C15.328 16.9553 15.445 17.0181 15.571 17.0557C15.697 17.0934 15.8293 17.1051 15.9599 17.0901C16.0905 17.0752 16.2167 17.0339 16.3309 16.9688C16.4451 16.9036 16.545 16.816 16.6243 16.7112Z" fill="#D6171B"/>
<path d="M16.6448 16.9552C16.4349 17.1466 16.1648 17.2585 15.8811 17.2715C15.5975 17.2846 15.3182 17.198 15.0917 17.0268C14.9637 16.9311 14.8564 16.8106 14.7761 16.6725C14.6958 16.5344 14.6443 16.3814 14.6245 16.2229C14.6032 16.0745 14.6123 15.9233 14.6514 15.7786C14.6905 15.6339 14.7587 15.4986 14.8518 15.3811C14.9484 15.2564 15.0688 15.1522 15.2061 15.0744C15.3434 14.9967 15.4947 14.947 15.6513 14.9282C15.8079 14.9094 15.9667 14.9219 16.1185 14.9649C16.2702 15.008 16.4119 15.0808 16.5353 15.1791C16.6636 15.2744 16.7712 15.3948 16.8515 15.533C16.9319 15.6712 16.9832 15.8243 17.0025 15.983C17.0248 16.1317 17.0157 16.2834 16.9758 16.4284C16.936 16.5733 16.8662 16.7084 16.771 16.8248C16.7458 16.8795 16.7121 16.9047 16.6448 16.9552ZM15.2811 15.5495C15.2605 15.5596 15.2425 15.5744 15.2286 15.5926C15.2147 15.6109 15.2053 15.6321 15.2011 15.6547C15.1378 15.7308 15.0937 15.821 15.0724 15.9176C15.0512 16.0143 15.0535 16.1147 15.0791 16.2103C15.1156 16.4263 15.2348 16.6195 15.4116 16.749C15.4912 16.8149 15.5831 16.8642 15.6821 16.894C15.7811 16.9239 15.885 16.9336 15.9878 16.9226C16.0905 16.9116 16.1901 16.8801 16.2805 16.8301C16.3709 16.78 16.4504 16.7124 16.5143 16.6312C16.5773 16.5557 16.6217 16.4665 16.6436 16.3706C16.6655 16.2748 16.6645 16.1751 16.6405 16.0798C16.604 15.8638 16.4848 15.6705 16.308 15.5411C16.1638 15.4201 15.9812 15.3545 15.793 15.356C15.6048 15.3576 15.4233 15.4262 15.2811 15.5495Z" fill="#D6171B"/>
<path d="M10.8704 10.7261C10.9163 10.6671 10.9492 10.5991 10.9669 10.5265C10.9846 10.4538 10.9868 10.3783 10.9733 10.3048C10.9598 10.2312 10.9309 10.1614 10.8885 10.0998C10.8461 10.0383 10.7911 9.98635 10.7273 9.94751C10.6692 9.89877 10.6015 9.86264 10.5287 9.84143C10.4559 9.82021 10.3795 9.81436 10.3043 9.82426C10.2291 9.83415 10.1568 9.85957 10.0919 9.8989C10.0271 9.93823 9.97111 9.99062 9.92759 10.0527C9.8817 10.1117 9.8488 10.1798 9.83106 10.2524C9.81333 10.325 9.81114 10.4006 9.82465 10.4741C9.83817 10.5476 9.86707 10.6175 9.90947 10.679C9.95188 10.7406 10.0068 10.7925 10.0707 10.8314C10.1927 10.9178 10.3429 10.955 10.4912 10.9355C10.6394 10.916 10.7749 10.8412 10.8704 10.7261Z" fill="#7D807E"/>
<path d="M10.875 10.8775C10.7522 10.9912 10.5924 11.0564 10.4252 11.061C10.258 11.0657 10.0947 11.0094 9.96587 10.9028C9.82081 10.7842 9.72119 10.6192 9.68388 10.4356C9.66561 10.3498 9.66593 10.2611 9.6848 10.1754C9.70368 10.0897 9.74068 10.0091 9.79331 9.93892C9.85001 9.86544 9.92086 9.80407 10.0017 9.75844C10.0825 9.7128 10.1716 9.68383 10.2639 9.67324C10.3561 9.66265 10.4495 9.67064 10.5385 9.69676C10.6276 9.72287 10.7105 9.76657 10.7824 9.82528C10.9301 9.94399 11.0314 10.1108 11.0686 10.2967C11.0874 10.382 11.0869 10.4705 11.0673 10.5557C11.0476 10.6409 11.0092 10.7206 10.955 10.7891C10.9396 10.8271 10.9113 10.8585 10.875 10.8775ZM10.0332 10.0736L9.96166 10.1199C9.92749 10.1651 9.90279 10.2167 9.88905 10.2717C9.87531 10.3266 9.87281 10.3838 9.88169 10.4398C9.9169 10.5644 9.99425 10.673 10.1006 10.747C10.2044 10.8214 10.3322 10.8544 10.459 10.8396C10.5859 10.8248 10.7027 10.7633 10.7866 10.6671C10.821 10.6227 10.8461 10.5719 10.8606 10.5177C10.875 10.4635 10.8785 10.407 10.8708 10.3514C10.849 10.2214 10.7837 10.1027 10.6856 10.0147C10.5896 9.94629 10.4722 9.91463 10.3548 9.92545C10.2374 9.93626 10.1278 9.98883 10.0458 10.0736H10.0332Z" fill="#7D807E"/>
<path d="M16.7167 5.36821C16.7897 5.26542 16.8417 5.14925 16.8698 5.02634C16.8979 4.90344 16.9015 4.7762 16.8804 4.6519C16.8593 4.52761 16.8139 4.40869 16.7468 4.30194C16.6797 4.1952 16.5922 4.10272 16.4894 4.02979C16.2798 3.8802 16.0221 3.81375 15.7663 3.84329C15.5104 3.87284 15.2747 3.99629 15.1047 4.18972C15.0311 4.29232 14.9787 4.40847 14.9503 4.53147C14.9219 4.65447 14.9181 4.78187 14.9393 4.90632C14.9604 5.03077 15.006 5.1498 15.0734 5.25653C15.1408 5.36326 15.2287 5.45558 15.332 5.52814C15.4327 5.61029 15.5488 5.67141 15.6735 5.70791C15.7982 5.7444 15.929 5.75552 16.0581 5.74061C16.1872 5.7257 16.312 5.68506 16.4251 5.6211C16.5382 5.55713 16.6374 5.47114 16.7167 5.36821Z" fill="white"/>
<path d="M16.7591 5.64614C16.5958 5.79577 16.3947 5.89779 16.1775 5.94114C15.9603 5.98448 15.7354 5.96749 15.5271 5.89201C15.3189 5.81653 15.1354 5.68545 14.9964 5.513C14.8574 5.34054 14.7684 5.13331 14.7389 4.9138C14.7184 4.76513 14.7283 4.61384 14.7681 4.46913C14.8079 4.32442 14.8767 4.18932 14.9704 4.07203C15.1179 3.88751 15.3166 3.7505 15.5414 3.67807C15.7663 3.60564 16.0076 3.601 16.2351 3.66472C16.4626 3.72844 16.6663 3.85771 16.8209 4.03642C16.9755 4.21512 17.074 4.43536 17.1043 4.66969C17.1258 4.81837 17.1163 4.9699 17.0765 5.11476C17.0366 5.25962 16.9673 5.39467 16.8728 5.51146C16.8215 5.54306 16.7817 5.59026 16.7591 5.64614ZM15.3365 4.23196C15.3163 4.24202 15.2988 4.25686 15.2856 4.27519C15.2724 4.29353 15.2639 4.31481 15.2608 4.33718C15.1946 4.41174 15.1474 4.5012 15.1232 4.59793C15.099 4.69467 15.0986 4.79581 15.1219 4.89276C15.138 4.99979 15.1758 5.1024 15.233 5.19431C15.2902 5.28622 15.3655 5.36549 15.4544 5.42728C15.534 5.49289 15.6258 5.54203 15.7245 5.57186C15.8233 5.60168 15.9269 5.6116 16.0295 5.60102C16.1321 5.59045 16.2316 5.5596 16.3222 5.51027C16.4127 5.46094 16.4926 5.3941 16.5571 5.31364C16.6207 5.24092 16.6664 5.15432 16.6905 5.06077C16.7147 4.96721 16.7165 4.86931 16.696 4.77491C16.669 4.55607 16.5571 4.35659 16.3846 4.21934C16.2405 4.08881 16.0524 4.01757 15.8581 4.01991C15.6637 4.02225 15.4774 4.098 15.3365 4.23196Z" fill="#D6171B"/>
<path d="M5.28119 16.5974C5.35442 16.4949 5.40655 16.3788 5.43457 16.256C5.46258 16.1332 5.46591 16.006 5.44438 15.8819C5.42284 15.7578 5.37686 15.6392 5.30911 15.5329C5.24136 15.4267 5.15318 15.335 5.0497 15.2632C4.84008 15.1136 4.58239 15.0471 4.32657 15.0767C4.07074 15.1062 3.83499 15.2297 3.66498 15.4231C3.59176 15.5256 3.53962 15.6417 3.51161 15.7645C3.48359 15.8873 3.48026 16.0145 3.50179 16.1386C3.52333 16.2628 3.56931 16.3814 3.63706 16.4876C3.70482 16.5938 3.79299 16.6855 3.89647 16.7573C3.99693 16.84 4.11302 16.9016 4.23782 16.9385C4.36262 16.9753 4.49356 16.9866 4.62282 16.9716C4.75208 16.9567 4.877 16.9159 4.99012 16.8516C5.10324 16.7873 5.20223 16.7008 5.28119 16.5974Z" fill="white"/>
<path d="M5.32348 16.8754C5.11473 17.0672 4.84519 17.1794 4.56204 17.1925C4.27889 17.2056 4.00015 17.1187 3.77461 16.947C3.64521 16.8514 3.53667 16.7305 3.45562 16.5915C3.37456 16.4526 3.32271 16.2986 3.30322 16.1389C3.28346 15.9902 3.29377 15.8391 3.33353 15.6945C3.3733 15.5499 3.44171 15.4148 3.53471 15.2971C3.63068 15.1716 3.75074 15.0666 3.88784 14.9881C4.02494 14.9096 4.17633 14.8593 4.33313 14.8401C4.48993 14.8209 4.64899 14.8332 4.80098 14.8762C4.95297 14.9193 5.09483 14.9923 5.21825 15.0909C5.34631 15.1868 5.45396 15.3073 5.5349 15.4453C5.61584 15.5834 5.66845 15.7362 5.68965 15.8948C5.70917 16.0434 5.69874 16.1945 5.65899 16.3391C5.61923 16.4836 5.55095 16.6188 5.45816 16.7365C5.40344 16.7702 5.33189 16.8165 5.32348 16.8754Z" fill="#D6171B"/>
<path d="M5.53832 5.63764L5.28158 7.16125L4.79335 7.20334L3.95158 4.13508C3.94084 4.09236 3.94206 4.04752 3.95512 4.00546C3.96817 3.9634 3.99256 3.92574 4.02559 3.89662C4.05863 3.86749 4.09905 3.84802 4.14241 3.84034C4.18578 3.83267 4.23042 3.83707 4.27145 3.85308L7.28079 4.8127L7.22608 5.31356L5.75718 5.43141C5.70341 5.43778 5.65311 5.46126 5.61371 5.4984C5.5743 5.53553 5.54787 5.58435 5.53832 5.63764Z" fill="#010101"/>
<path d="M14.6289 14.8888L13.8545 14.0723" stroke="#D6171B" stroke-width="0.29883" stroke-linecap="round" stroke-linejoin="round"/>
<path d="M17.7559 18.1673L16.9814 17.355" stroke="#D6171B" stroke-width="0.29883" stroke-linecap="round" stroke-linejoin="round"/>
<path d="M15.7822 14.4805L15.8075 13.3525" stroke="#D6171B" stroke-width="0.29883" stroke-linecap="round" stroke-linejoin="round"/>
<path d="M15.6724 19.0135L15.6976 17.8855" stroke="#D6171B" stroke-width="0.29883" stroke-linecap="round" stroke-linejoin="round"/>
<path d="M17.4697 16.0757L18.5935 16.1051" stroke="#D6171B" stroke-width="0.29883" stroke-linecap="round" stroke-linejoin="round"/>
<path d="M12.9365 15.9705L14.0603 15.9957" stroke="#D6171B" stroke-width="0.29883" stroke-linecap="round" stroke-linejoin="round"/>
<path d="M3.35776 3.19646C3.16592 3.39155 2.92879 3.53614 2.66751 3.61735C2.42661 3.68469 2.17186 3.68469 1.93096 3.61735C1.7041 3.53763 1.49636 3.4115 1.32099 3.24699C1.14561 3.08249 1.00646 2.88323 0.91241 2.66193C0.840797 2.48462 0.806456 2.29446 0.811525 2.1033C0.816593 1.91214 0.860963 1.72406 0.941872 1.55079C1.02965 1.36362 1.15253 1.19502 1.30383 1.05415C1.44503 0.9124 1.61036 0.796955 1.79206 0.713229C1.94302 0.634906 2.10708 0.584974 2.27608 0.565918L2.39814 1.13832C2.28043 1.13474 2.16356 1.15926 2.05722 1.20988C1.93791 1.26043 1.82935 1.33328 1.73735 1.42453C1.64154 1.5131 1.56305 1.61871 1.50586 1.73598C1.45583 1.83858 1.4272 1.95027 1.42168 2.06427C1.4219 2.17711 1.4448 2.28876 1.48903 2.39257C1.54073 2.51 1.61348 2.61698 1.70368 2.70823C1.81736 2.83593 1.96245 2.93169 2.12456 2.98602C2.2703 3.02811 2.42497 3.02811 2.5707 2.98602C2.7288 2.92967 2.87251 2.83913 2.99159 2.72086C3.08768 2.62893 3.16865 2.52239 3.2315 2.40519C3.29927 2.2826 3.34352 2.14842 3.36197 2.00956L3.91333 2.18633C3.88451 2.36316 3.82617 2.5339 3.74077 2.6914C3.64133 2.8794 3.51197 3.04999 3.35776 3.19646Z" fill="#010101"/>
<path d="M18.1346 4.40873L16.1606 2.33797L16.9309 1.60141C17.0986 1.42431 17.3182 1.30495 17.558 1.2605C17.6615 1.24459 17.7674 1.2556 17.8654 1.29245C17.9635 1.32931 18.0504 1.39078 18.1178 1.47094C18.1756 1.53358 18.2188 1.60835 18.244 1.6898C18.2709 1.77111 18.2809 1.85703 18.2735 1.94233C18.2703 2.02501 18.2518 2.10637 18.2188 2.18224C18.3609 2.1124 18.5213 2.08884 18.6775 2.1149C18.8397 2.14317 18.9877 2.22461 19.0984 2.34638C19.2076 2.45516 19.281 2.59464 19.3089 2.74623C19.3317 2.90028 19.3113 3.05763 19.25 3.20078C19.1758 3.3726 19.0652 3.52626 18.9259 3.65113L18.1346 4.40873ZM17.4191 2.7799L17.6927 2.51895C17.7533 2.46599 17.8008 2.39972 17.8316 2.32534C17.8592 2.26177 17.8666 2.19122 17.8526 2.12331C17.8367 2.05343 17.8018 1.98932 17.7516 1.93812C17.7185 1.8999 17.6769 1.87006 17.6301 1.85104C17.5832 1.83201 17.5326 1.82436 17.4822 1.82869C17.3646 1.84818 17.2566 1.90586 17.175 1.99284L16.9098 2.24537L17.4191 2.7799ZM18.2609 3.66376L18.5513 3.38597C18.6514 3.30294 18.721 3.18891 18.7491 3.06189C18.7491 2.95027 18.7048 2.84321 18.6258 2.76428C18.5469 2.68535 18.4398 2.64101 18.3282 2.64101C18.2023 2.65638 18.0859 2.71606 17.9999 2.80936L17.7011 3.09556L18.2609 3.66376Z" fill="#010101"/>
<path d="M3.45059 19.2577C3.30166 19.4056 3.13142 19.5305 2.94553 19.628C2.78131 19.7136 2.60315 19.7692 2.41942 19.7922L2.28474 19.2619C2.4216 19.2553 2.55592 19.2224 2.68037 19.1651C2.81428 19.1053 2.93677 19.0227 3.04233 18.9209C3.12102 18.8486 3.18653 18.7632 3.23594 18.6684C3.27471 18.593 3.29355 18.509 3.29066 18.4243C3.28721 18.3483 3.25572 18.2764 3.20227 18.2223C3.16749 18.1814 3.12322 18.1496 3.07332 18.1298C3.02342 18.11 2.96943 18.1027 2.91607 18.1086C2.78198 18.1418 2.66053 18.2135 2.56673 18.3149L2.14584 18.7105L1.82597 18.3696L2.20477 18.0076C2.26921 17.9553 2.32466 17.8927 2.36891 17.8224C2.4008 17.7602 2.41396 17.69 2.40679 17.6204C2.4019 17.553 2.37186 17.4899 2.32262 17.4436C2.2791 17.3969 2.22141 17.3659 2.15847 17.3552C2.08888 17.3481 2.01871 17.3612 1.95644 17.3931C1.87113 17.4371 1.79306 17.4939 1.72496 17.5615C1.63281 17.6507 1.55602 17.7545 1.49768 17.8687C1.44157 17.976 1.40724 18.0933 1.39667 18.2139L0.891602 18.0834C0.906714 17.9045 0.959804 17.7309 1.04733 17.5741C1.13971 17.3995 1.26063 17.2416 1.40508 17.1069C1.53838 16.9738 1.6954 16.8667 1.86806 16.7913C2.00058 16.7344 2.14591 16.7141 2.28895 16.7323C2.43182 16.7608 2.5617 16.8346 2.65933 16.9428C2.71931 17.0045 2.76399 17.0795 2.7898 17.1616C2.81845 17.2442 2.83268 17.331 2.83189 17.4184C2.83239 17.5047 2.81668 17.5904 2.78559 17.6709C2.92632 17.6014 3.08447 17.575 3.24015 17.5952C3.40182 17.622 3.54993 17.702 3.66104 17.8224C3.77271 17.9384 3.84742 18.0849 3.87569 18.2433C3.89897 18.4178 3.87423 18.5953 3.80414 18.7568C3.72283 18.9468 3.60236 19.1174 3.45059 19.2577Z" fill="#010101"/>
<path d="M19.4103 22.2037L17.4321 20.1287L17.853 19.7079L18.6022 20.4949L19.2335 19.893L19.6165 20.2929L18.9852 20.8948L19.827 21.7828L19.4103 22.2037ZM21.3674 20.4192C21.2197 20.5636 21.0453 20.6779 20.8539 20.7559C20.6728 20.8259 20.4799 20.8602 20.2857 20.8569C20.0926 20.8562 19.9018 20.8146 19.726 20.7348C19.5427 20.6501 19.3771 20.5315 19.2377 20.3855C19.0964 20.241 18.9861 20.0691 18.9136 19.8804C18.8419 19.7014 18.8089 19.5092 18.8168 19.3164C18.823 19.1231 18.8674 18.9328 18.9473 18.7567C19.0398 18.5619 19.17 18.3874 19.3303 18.2432C19.4779 18.0975 19.6542 17.9843 19.848 17.9107C20.0237 17.8488 20.209 17.8189 20.3952 17.8223C20.5883 17.8266 20.7787 17.8695 20.955 17.9485C21.3243 18.1123 21.6145 18.4146 21.7631 18.7903C21.832 18.9715 21.8635 19.1648 21.8556 19.3585C21.8519 19.5544 21.8089 19.7476 21.7294 19.9267C21.6408 20.1122 21.518 20.2792 21.3674 20.4192ZM20.976 19.9983C21.0646 19.9163 21.1362 19.8176 21.1864 19.7079C21.2337 19.6026 21.2581 19.4886 21.2581 19.3732C21.2581 19.2579 21.2337 19.1439 21.1864 19.0386C21.135 18.9186 21.0622 18.8088 20.9718 18.7146C20.8577 18.5892 20.7125 18.4962 20.5509 18.4452C20.4036 18.4043 20.2479 18.4043 20.1006 18.4452C19.9417 18.4822 19.796 18.5623 19.6797 18.6767C19.5923 18.7598 19.521 18.8582 19.4692 18.9671C19.422 19.0723 19.3975 19.1864 19.3975 19.3017C19.3975 19.417 19.422 19.5311 19.4692 19.6363C19.5198 19.7556 19.5926 19.8642 19.6839 19.9562C19.7986 20.0818 19.9434 20.1759 20.1048 20.2298C20.2537 20.2696 20.4104 20.2696 20.5593 20.2298C20.715 20.1922 20.8584 20.1154 20.976 20.0067V19.9983Z" fill="#010101"/>
</svg>
