<svg width="50" height="48" viewBox="0 0 50 48" fill="none" xmlns="http://www.w3.org/2000/svg">
<path d="M0.406738 0.0864258V47.9516H49.9573V0.0864258H0.406738ZM48.7775 46.7718H1.58651V1.2662H48.7213V46.7718H48.7775ZM37.7663 31.21H32.7663L36.8674 36.4347H32.7663V40.5359H33.8899V37.5583H37.8225C38.7213 37.6145 39.564 37.2774 40.182 36.6033C40.7438 35.9853 41.0247 35.1988 41.0247 34.4123C41.0247 33.5696 40.7438 32.7831 40.182 32.1651C39.5079 31.4909 38.6652 31.1538 37.7663 31.21ZM38.2157 36.4347L34.9573 32.3336H37.8225C38.3843 32.3336 38.8899 32.5583 39.2831 32.9516C39.6764 33.3449 39.8449 33.9067 39.8449 34.4684C39.9011 35.4235 39.227 36.2662 38.2157 36.4347ZM32.4854 27.1089H39.0584L39.8449 28.5696H41.1371L35.7438 18.7943L30.3506 28.5696H31.6427L32.4854 27.1089ZM35.7438 21.1538L38.4404 26.0977H33.0472L35.7438 21.1538ZM33.609 11.8842L39.9011 13.5134V16.6595H41.0247V7.33362H39.9011V12.3898L33.609 10.7606V7.33362H32.4854V16.6595H33.609V11.8842ZM9.33932 32.2774H13.5528V40.5359H14.6764V32.2774H18.8899V31.21H9.33932V32.2774ZM14.0584 19.1314C12.7663 19.1314 11.5865 19.637 10.6876 20.5359C8.8337 22.446 8.8337 25.4235 10.6876 27.3336C11.5865 28.2325 12.7663 28.7943 14.0584 28.7381C15.3506 28.7381 16.5303 28.2325 17.4292 27.3336C18.3281 26.4347 18.8337 25.255 18.8337 23.9628C18.8337 22.6707 18.3281 21.4347 17.4292 20.5359C16.5865 19.637 15.3506 19.1314 14.0584 19.1314ZM16.6989 26.5471C15.2944 27.9516 12.991 28.0078 11.5865 26.6033C11.5865 26.6033 11.5865 26.6033 11.5303 26.5471C10.0697 25.0864 10.0697 22.7269 11.5303 21.2662C12.9348 19.8617 15.2382 19.8617 16.6989 21.2662C18.1034 22.7831 18.1034 25.0864 16.6989 26.5471ZM22.036 11.8842L28.3281 13.5134V16.6595H29.4517V7.33362H28.3281V12.3898L22.036 10.7606V7.33362H20.9124V16.6595H22.036V11.8842ZM16.7551 9.13137L16.8674 16.6595H17.8225V7.33362H16.8112L10.4067 14.7493V7.33362H9.28314V16.6595H10.182L16.7551 9.13137ZM25.0697 40.7044C26.3618 40.7044 27.5416 40.1988 28.4404 39.2999C29.3393 38.401 29.8449 37.2213 29.8449 35.9291C29.8449 34.637 29.3393 33.401 28.4404 32.5022C26.5865 30.6482 23.609 30.6482 21.7551 32.446C21.7551 32.446 21.7551 32.446 21.6989 32.5022C20.8 33.401 20.2944 34.637 20.2944 35.9291C20.2944 37.2213 20.8 38.401 21.6989 39.2999C22.5977 40.1988 23.8337 40.7044 25.0697 40.7044ZM22.5416 33.2325C23.2157 32.5022 24.1708 32.1089 25.1258 32.1651C26.0809 32.1651 26.9798 32.5583 27.6539 33.2325C29.0584 34.6932 29.0584 37.0527 27.6539 38.5134C26.2494 39.9179 23.9461 39.9741 22.5416 38.5696L22.4854 38.5134C21.0809 37.0527 21.0809 34.6932 22.5416 33.2325ZM28.4404 22.446C28.609 22.1089 28.7213 21.7718 28.7213 21.4347C28.7213 20.1426 27.7663 19.2999 26.3056 19.2999H21.418V28.6257H26.3056C28.1595 28.6257 29.3955 27.5583 29.3955 25.8729C29.3955 25.255 29.227 24.5808 28.8337 24.0752C28.609 23.7381 28.2157 23.4572 27.8225 23.2887L27.991 23.1201C28.1595 22.8954 28.3281 22.6707 28.4404 22.446ZM22.4854 20.3673H26.2494C27.0921 20.3673 27.5416 20.7606 27.5416 21.4347C27.5416 21.6595 27.4854 21.828 27.373 21.9965C27.3169 22.1651 27.2045 22.2774 27.0921 22.446C26.9798 22.5583 26.8112 22.7269 26.5303 23.0078L22.4292 26.8842L22.4854 20.3673ZM28.2719 25.8729C28.2719 26.9404 27.5416 27.5583 26.3056 27.5583H23.3281L26.9236 24.1875C27.7101 24.2999 28.2719 25.0302 28.2719 25.8729Z" fill="#292929"/>
</svg>
