<svg width="20" height="21" viewBox="0 0 20 21" fill="none" xmlns="http://www.w3.org/2000/svg">
<path d="M1.8 20.0432C1.3 20.0432 0.9 19.8432 0.5 19.5432C0 19.0432 -0.1 18.3432 0.1 17.7432L1.1 14.6432C0.4 13.2432 0 11.6432 0 10.0432C0 4.54321 4.5 0.0432129 10 0.0432129C15.5 0.0432129 20 4.54321 20 10.0432C20 15.5432 15.5 20.0432 10 20.0432C8.4 20.0432 6.8 19.6432 5.4 18.9432L2.3 19.9432C2.2 20.0432 2 20.0432 1.8 20.0432ZM6 16.9432C7.2 17.6432 8.6 18.0432 10 18.0432C14.4 18.0432 18 14.4432 18 10.0432C18 5.64321 14.4 2.04321 10 2.04321C5.6 2.04321 2 5.64321 2 10.0432C2 11.4432 2.4 12.8432 3.1 14.0432C3.2 14.2432 3.3 14.5432 3.2 14.8432L2.2 17.9432L5.3 16.9432C5.3 16.9432 5.90219 16.8943 6 16.9432Z" fill="#FFED00"/>
<path d="M9.9999 11.6432C10.8836 11.6432 11.5999 10.9269 11.5999 10.0432C11.5999 9.15958 10.8836 8.44324 9.9999 8.44324C9.11625 8.44324 8.3999 9.15958 8.3999 10.0432C8.3999 10.9269 9.11625 11.6432 9.9999 11.6432Z" fill="#FFED00"/>
<path d="M5.1 11.6432C5.98366 11.6432 6.7 10.9269 6.7 10.0432C6.7 9.15958 5.98366 8.44324 5.1 8.44324C4.21634 8.44324 3.5 9.15958 3.5 10.0432C3.5 10.9269 4.21634 11.6432 5.1 11.6432Z" fill="#FFED00"/>
<path d="M14.8998 11.6432C15.7835 11.6432 16.4998 10.9269 16.4998 10.0432C16.4998 9.15958 15.7835 8.44324 14.8998 8.44324C14.0161 8.44324 13.2998 9.15958 13.2998 10.0432C13.2998 10.9269 14.0161 11.6432 14.8998 11.6432Z" fill="#FFED00"/>
</svg>
