<svg width="22" height="21" viewBox="0 0 22 21" fill="none" xmlns="http://www.w3.org/2000/svg">
<path d="M12.2798 2.58643L11.8072 1.79879C11.3415 1.0226 10.2168 1.02186 9.75004 1.79744L7.42112 5.66729C7.25357 5.94571 6.98027 6.14427 6.66371 6.21759L2.26068 7.23734C1.37951 7.44142 1.03231 8.50998 1.62524 9.19303L4.58797 12.6061C4.80098 12.8514 4.90537 13.1727 4.87727 13.4964L4.76945 14.7389M13.9479 5.35082L14.1384 5.66729C14.3059 5.94571 14.5792 6.14427 14.8958 6.21759L19.2988 7.23734C20.18 7.44142 20.5272 8.50998 19.9342 9.19303L16.9715 12.6061C16.7585 12.8514 16.6541 13.1727 16.6822 13.4964L17.073 17.9991C17.1512 18.9002 16.2422 19.5606 15.4094 19.2078L11.2478 17.4447C10.9486 17.318 10.6108 17.318 10.3116 17.4447L5.93051 19.3008C5.19728 19.6114 4.39703 19.03 4.46588 18.2367V18.2367L4.50383 17.7995" stroke="#009640" stroke-width="1.5" stroke-linecap="round"/>
</svg>
