<svg width="34" height="33" viewBox="0 0 34 33" fill="none" xmlns="http://www.w3.org/2000/svg">
<path d="M17.2509 13.7202C21.703 13.7202 25.2864 11.5485 25.2864 8.83374C25.2864 6.11903 21.703 4.05585 17.2509 4.05585C12.6902 4.05585 9.21533 6.22762 9.21533 8.94233C9.21533 11.657 12.6902 13.7202 17.2509 13.7202ZM17.2509 6.22762C20.6171 6.22762 23.1147 7.63927 23.1147 8.94233C23.1147 10.2454 20.6171 11.657 17.2509 11.657C13.8846 11.5485 11.3871 10.1368 11.3871 8.94233C11.3871 7.74786 13.8846 6.22762 17.2509 6.22762Z" fill="white"/>
<path d="M24.3093 13.5033C23.7664 13.1776 23.1148 13.3948 22.7891 13.8291C22.2461 14.915 20.0743 15.8923 17.251 15.8923C14.3192 15.8923 12.256 14.915 11.6044 13.8291C11.2787 13.3948 10.6271 13.1776 10.0842 13.5033C9.54126 13.8291 9.43267 14.4806 9.75844 15.0236C10.9529 16.8696 13.8848 18.0641 17.251 18.0641C20.6173 18.0641 23.5492 16.8696 24.7437 15.0236C24.9608 14.4806 24.8522 13.8291 24.3093 13.5033Z" fill="white"/>
<path d="M24.3095 18.3897C23.7665 18.0639 23.115 18.2811 22.7893 18.7154C22.1377 19.6927 20.0745 20.7786 17.1426 20.7786C14.3193 20.7786 12.1476 19.8013 11.496 18.7154C11.1703 18.1725 10.5187 18.0639 9.97581 18.3897C9.43286 18.7154 9.32427 19.367 9.65004 19.9099C10.8445 21.7559 13.7764 22.9504 17.1426 22.9504C20.5089 22.9504 23.4408 21.7559 24.6353 19.9099C24.961 19.367 24.8524 18.7154 24.3095 18.3897Z" fill="white"/>
<path d="M24.3093 23.3848C23.7664 23.0591 23.1148 23.2763 22.7891 23.7106C22.2461 24.7965 20.0743 25.7738 17.251 25.7738C14.4277 25.7738 12.256 24.7965 11.6044 23.7106C11.2787 23.1677 10.6271 23.0591 10.0842 23.3848C9.54126 23.7106 9.43267 24.3621 9.75844 24.9051C10.8443 26.7511 13.7762 27.9456 17.251 27.9456C20.6173 27.9456 23.5492 26.7511 24.7437 24.9051C24.9608 24.3621 24.8522 23.7106 24.3093 23.3848Z" fill="white"/>
<rect x="1.8044" y="0.915732" width="31.1349" height="31.1349" stroke="white" stroke-width="1.83146"/>
</svg>
