<svg width="24" height="25" viewBox="0 0 24 25" fill="none" xmlns="http://www.w3.org/2000/svg">
<path d="M14.6 8.38843C15.1 7.78843 15.4 7.08843 15.4 6.28843C15.4 4.38843 13.9 2.88843 12 2.88843C10.1 2.88843 8.6 4.38843 8.6 6.28843C8.6 7.08843 8.9 7.78843 9.4 8.38843C7.9 9.18843 7 10.6884 7 12.3884V14.1884C7 14.7884 7.4 15.1884 8 15.1884C8.6 15.1884 9 14.7884 9 14.1884V12.3884C9 11.2884 9.7 10.2884 10.8 9.88843C11.7 9.58843 12.7 9.58843 13.6 9.98843C14.4 10.4884 15 11.3884 15 12.3884V14.2884C15 14.8884 15.4 15.2884 16 15.2884C16.6 15.2884 17 14.8884 17 14.2884V12.3884C17 10.6884 16.1 9.18843 14.6 8.38843ZM12 4.88843C12.8 4.88843 13.4 5.48843 13.4 6.28843C13.4 7.08843 12.8 7.58843 12 7.58843C11.2 7.58843 10.6 6.98843 10.6 6.18843C10.6 5.38843 11.2 4.88843 12 4.88843Z" fill="#353535"/>
<path d="M14 14.4885C13.4 14.4885 13 14.8885 13 15.4885V18.9885C13 19.4885 12.6 19.8885 12 19.8885C11.4 19.8885 11 19.4885 11 19.0885V15.5885C11 14.9885 10.6 14.5885 10 14.5885C9.4 14.5885 9 14.9885 9 15.5885V19.0885C9 20.5885 10.3 21.8885 12 21.8885C13.7 21.8885 15 20.5885 15 19.0885V15.5885C15 14.9885 14.6 14.4885 14 14.4885Z" fill="#353535"/>
<rect x="0.5" y="0.763672" width="23" height="23" stroke="#353535"/>
</svg>
