<svg width="203" height="41" viewBox="0 0 203 41" fill="none" xmlns="http://www.w3.org/2000/svg">
<g clip-path="url(#clip0_5950_3744)">
<path d="M59.9445 11.5464L55.6016 21.5821L51.2476 11.5464H48.5474V24.7549H50.9213V16.1592L54.5891 24.7549H56.5917L60.2595 16.1592V24.7549H62.6447V11.5464H59.9445Z" fill="white"/>
<path d="M70.8012 11.2877C69.9069 11.2397 69.0132 11.3927 68.1858 11.7353C67.3583 12.078 66.6182 12.6016 66.0196 13.2678C64.8773 14.6353 64.2909 16.3822 64.3769 18.1619C64.2992 19.937 64.8848 21.6776 66.0196 23.0448C66.6257 23.7 67.3677 24.2148 68.1937 24.5529C69.0197 24.8911 69.9096 25.0445 70.8012 25.0024C71.6901 25.045 72.5776 24.8929 73.4016 24.5567C74.2256 24.2205 74.9662 23.7083 75.5715 23.056C76.729 21.6952 77.3279 19.9465 77.2479 18.1619C77.3305 16.3754 76.7359 14.6236 75.5828 13.2566C74.9787 12.5981 74.2373 12.0804 73.4111 11.7401C72.5848 11.3999 71.6938 11.2454 70.8012 11.2877ZM73.8052 21.6384C73.4294 22.057 72.9644 22.3855 72.4443 22.5998C71.9243 22.814 71.3627 22.9084 70.8012 22.876C70.2313 22.9067 69.662 22.806 69.1373 22.5816C68.6125 22.3573 68.1463 22.0153 67.7747 21.5821C67.057 20.608 66.6992 19.4152 66.7622 18.2069C66.7002 16.9987 67.0579 15.8062 67.7747 14.8316C68.1413 14.391 68.606 14.0425 69.1316 13.8139C69.6571 13.5853 70.229 13.483 70.8012 13.5153C71.3634 13.4761 71.9271 13.5675 72.4482 13.7822C72.9693 13.9968 73.4337 14.3291 73.8052 14.7529C74.5423 15.7698 74.9078 17.0091 74.8403 18.2632C74.9121 19.5074 74.5458 20.7374 73.8052 21.7397" fill="white"/>
<path d="M88.195 20.086C88.0273 20.9232 87.5836 21.6798 86.9349 22.2349C86.2976 22.6827 85.5305 22.9081 84.7522 22.8762C84.1813 22.9203 83.6081 22.8279 83.08 22.6069C82.5518 22.3858 82.0838 22.0424 81.7145 21.6048C81.0498 20.5849 80.734 19.3768 80.8144 18.1621C80.7553 16.9675 81.0785 15.7852 81.737 14.7868C82.0778 14.3328 82.5276 13.9721 83.0448 13.7381C83.562 13.5041 84.13 13.4043 84.696 13.448C85.457 13.4065 86.212 13.6031 86.8561 14.0105C87.4494 14.4379 87.8529 15.0796 87.9812 15.7994V15.9007H90.2989V15.7431C90.1449 14.4925 89.5166 13.3487 88.5437 12.5479C87.4398 11.7015 86.0747 11.2677 84.6847 11.3216C83.7723 11.2666 82.8599 11.4275 82.0213 11.791C81.1827 12.1546 80.4416 12.7108 79.858 13.4143C78.8315 14.7907 78.3146 16.4807 78.3954 18.1959C78.3064 19.8964 78.8028 21.576 79.8018 22.955C80.4003 23.6666 81.159 24.2262 82.0156 24.588C82.8722 24.9498 83.8023 25.1034 84.7297 25.0363C86.0588 25.0739 87.3582 24.6394 88.3975 23.81C89.5192 22.8998 90.2613 21.6041 90.4788 20.176V20.0297H88.1612L88.195 20.086Z" fill="white"/>
<path d="M97.7585 11.5352H92.2568V24.7549H94.642V19.782H97.7247C100.954 19.782 102.585 18.387 102.585 15.6417C102.585 12.8965 100.965 11.5352 97.7585 11.5352ZM94.642 13.6166H97.601C98.2926 13.5573 98.9845 13.7273 99.5699 14.1004C99.7885 14.2893 99.9587 14.5278 100.066 14.7959C100.174 15.0641 100.216 15.3541 100.189 15.6417C100.217 15.9352 100.177 16.2313 100.072 16.5066C99.9665 16.7819 99.7985 17.0289 99.5812 17.2281C98.9867 17.5896 98.2951 17.7585 97.601 17.7119H94.642V13.6166Z" fill="white"/>
<path d="M106.534 19.017H113.318V16.9468H106.534V13.6165H113.746V11.5464H104.149V24.7549H114.061V22.6847H106.534V19.017Z" fill="white"/>
<path d="M129.599 20.8846C129.569 21.1477 129.484 21.4014 129.348 21.6285C129.212 21.8556 129.029 22.0509 128.811 22.201C128.467 22.3883 128.078 22.4777 127.686 22.4598H127.011V24.3949L122.094 11.5352H119.54L114.489 24.7549H117.031L118.157 21.5035H123.399L124.525 24.7549H128.114C129.054 24.8096 129.978 24.4947 130.69 23.8774C131.368 23.1204 131.786 22.1662 131.883 21.1546L133.098 13.6166H136.563V24.7549H138.948V11.5352H131.073L129.599 20.8846ZM122.702 19.5008H118.922L120.823 14.2354L122.702 19.5008Z" fill="white"/>
<path d="M150.536 20.0859C150.359 20.9197 149.917 21.6737 149.276 22.2348C148.638 22.6811 147.871 22.9063 147.093 22.8761C146.522 22.9211 145.949 22.8292 145.42 22.6081C144.892 22.387 144.424 22.043 144.055 21.6048C143.391 20.5848 143.075 19.3768 143.155 18.162C143.088 16.9666 143.412 15.7818 144.078 14.7868C144.419 14.3328 144.868 13.9721 145.386 13.738C145.903 13.504 146.471 13.4042 147.037 13.4479C147.798 13.4079 148.552 13.6044 149.197 14.0104C149.783 14.4442 150.185 15.0829 150.322 15.7994V15.9006H152.64V15.7431C152.494 14.4923 151.869 13.3468 150.896 12.5478C149.792 11.7015 148.427 11.2676 147.037 11.3215C146.123 11.2674 145.209 11.4287 144.369 11.7921C143.529 12.1556 142.785 12.7112 142.199 13.4142C141.177 14.7932 140.661 16.4814 140.736 18.1958C140.647 19.8963 141.144 21.5759 142.143 22.9549C142.742 23.6658 143.5 24.225 144.357 24.5867C145.213 24.9484 146.143 25.1025 147.07 25.0363C148.403 25.0706 149.704 24.6367 150.749 23.81C151.868 22.8986 152.606 21.6027 152.82 20.1759V20.0296H150.491L150.536 20.0859Z" fill="white"/>
<path d="M153.608 13.6165H157.849V24.7549H160.235V13.6165H164.476V11.5464H153.608V13.6165Z" fill="white"/>
<path d="M171.295 11.5352H165.793V24.7549H168.167V19.782H171.25C174.479 19.782 176.121 18.387 176.121 15.6417C176.121 12.8965 174.49 11.5352 171.295 11.5352ZM168.167 13.6166H171.126C171.817 13.5573 172.509 13.7273 173.095 14.1004C173.315 14.2881 173.486 14.5265 173.594 14.7949C173.702 15.0634 173.743 15.3539 173.714 15.6417C173.741 15.9341 173.702 16.2288 173.598 16.5037C173.495 16.7785 173.331 17.0262 173.117 17.2281C172.52 17.5918 171.824 17.7609 171.126 17.7119H168.167V13.6166Z" fill="white"/>
<path d="M183.524 11.2877C182.63 11.2397 181.736 11.3927 180.909 11.7353C180.082 12.078 179.341 12.6016 178.743 13.2678C177.596 14.6325 177.009 16.3814 177.1 18.1619C177.021 19.9338 177.607 21.6714 178.743 23.0335C179.347 23.692 180.088 24.2097 180.915 24.5499C181.741 24.8901 182.632 25.0447 183.524 25.0024C184.413 25.045 185.301 24.8929 186.125 24.5567C186.949 24.2205 187.689 23.7083 188.295 23.056C189.444 21.6913 190.039 19.9444 189.96 18.1619C190.043 16.3754 189.448 14.6236 188.295 13.2566C187.692 12.5989 186.953 12.0817 186.129 11.7415C185.304 11.4013 184.415 11.2463 183.524 11.2877ZM183.524 13.4141C184.085 13.3749 184.647 13.4663 185.166 13.6811C185.685 13.8958 186.148 14.228 186.517 14.6516C187.263 15.6645 187.633 16.9058 187.563 18.1619C187.637 19.408 187.266 20.6399 186.517 21.6384C186.143 22.0561 185.68 22.3842 185.162 22.5985C184.644 22.8127 184.084 22.9075 183.524 22.876C182.954 22.9084 182.384 22.8084 181.859 22.584C181.334 22.3595 180.868 22.0166 180.498 21.5821C179.776 20.6095 179.414 19.4166 179.474 18.2069C179.415 16.9973 179.777 15.8047 180.498 14.8316C180.864 14.3903 181.328 14.0412 181.854 13.8126C182.38 13.5839 182.952 13.4821 183.524 13.5153" fill="white"/>
<path d="M194.921 10.3201C195.612 10.7555 196.423 10.9603 197.238 10.9051C198.057 10.9635 198.873 10.7586 199.567 10.3201C200.127 9.83837 200.484 9.16345 200.569 8.42992V8.27246H198.69V8.38494C198.671 8.7369 198.523 9.06951 198.274 9.31878C197.96 9.50116 197.6 9.58722 197.238 9.56627C196.88 9.59053 196.523 9.50416 196.215 9.31878C195.963 9.07002 195.811 8.73792 195.787 8.38494V8.27246H193.908V8.41873C193.939 8.78656 194.044 9.1444 194.216 9.47102C194.388 9.79764 194.624 10.0864 194.91 10.3201" fill="white"/>
<path d="M200.434 11.5464L194.088 20.8283V11.5464H191.703V24.7549H194.021L200.299 15.5967V24.7549H202.706V11.5464H200.434Z" fill="white"/>
<path d="M14.4119 32.2928H13.7256V30.4139H13.1968L13.4443 29.8401H14.4119V32.2928Z" fill="white"/>
<path d="M15.8184 31.4603C15.718 31.4784 15.6151 31.4784 15.5146 31.4603C15.4158 31.4604 15.3181 31.4406 15.2272 31.4019C15.1364 31.3632 15.0542 31.3065 14.9859 31.2352C14.8405 31.0759 14.7638 30.8657 14.7721 30.6502C14.7641 30.5209 14.7864 30.3916 14.8372 30.2724C14.888 30.1533 14.9658 30.0477 15.0646 29.9639C15.2656 29.7949 15.5223 29.7067 15.7847 29.7164C16.0474 29.7044 16.3048 29.7929 16.5047 29.9639C16.5991 30.0463 16.6743 30.1485 16.7249 30.2632C16.7754 30.3779 16.8001 30.5024 16.7972 30.6277C16.8082 30.74 16.8082 30.853 16.7972 30.9652C16.7591 31.091 16.7062 31.2119 16.6397 31.3253C16.5645 31.467 16.478 31.6025 16.381 31.7303L16.0209 32.2253H15.1771L15.5259 31.809L15.8634 31.404L15.8184 31.4603ZM15.8184 31.0215C15.8621 31.026 15.9062 31.0201 15.9472 31.0045C15.9883 30.9889 16.0251 30.9639 16.0547 30.9314C16.0861 30.8987 16.1103 30.8598 16.1258 30.8172C16.1413 30.7746 16.1477 30.7292 16.1447 30.684C16.1461 30.6406 16.139 30.5974 16.1235 30.5568C16.1081 30.5162 16.0847 30.4791 16.0547 30.4477C16.022 30.4163 15.9831 30.3921 15.9404 30.3766C15.8978 30.3611 15.8524 30.3547 15.8071 30.3577C15.7637 30.3556 15.7203 30.3625 15.6796 30.378C15.639 30.3935 15.602 30.4172 15.5709 30.4477C15.541 30.4791 15.5175 30.5162 15.502 30.5568C15.4866 30.5974 15.4794 30.6406 15.4809 30.684C15.4779 30.7292 15.4843 30.7746 15.4998 30.8172C15.5153 30.8598 15.5395 30.8987 15.5709 30.9314C15.6 30.9652 15.6363 30.9919 15.6773 31.0095C15.7182 31.027 15.7627 31.035 15.8071 31.0327L15.8184 31.0215Z" fill="white"/>
<path d="M18.0354 31.4605C17.935 31.4786 17.8321 31.4786 17.7316 31.4605C17.6346 31.4604 17.5385 31.4404 17.4495 31.4017C17.3605 31.363 17.2803 31.3064 17.2141 31.2355C17.0647 31.0779 16.9838 30.8675 16.9891 30.6504C16.9836 30.5214 17.007 30.3929 17.0577 30.2742C17.1083 30.1554 17.1848 30.0495 17.2816 29.9641C17.4885 29.7979 17.7476 29.7103 18.0129 29.7166C18.2744 29.7129 18.529 29.8004 18.733 29.9641C18.826 30.0471 18.8994 30.1497 18.9481 30.2645C18.9967 30.3793 19.0193 30.5034 19.0143 30.6279C19.0312 30.7398 19.0312 30.8536 19.0143 30.9655C18.9801 31.0909 18.931 31.2118 18.868 31.3255C18.7887 31.4648 18.7023 31.6 18.6092 31.7305L18.238 32.2255H17.3941L17.7542 31.8093L18.0804 31.4043L18.0354 31.4605ZM18.0354 31.0217C18.0807 31.0247 18.126 31.0183 18.1687 31.0028C18.2113 30.9873 18.2502 30.9631 18.2829 30.9317C18.3422 30.8629 18.3742 30.7749 18.373 30.6842C18.3752 30.6397 18.3672 30.5953 18.3497 30.5543C18.3321 30.5134 18.3054 30.477 18.2717 30.4479C18.2406 30.4174 18.2036 30.3937 18.163 30.3782C18.1223 30.3627 18.0789 30.3558 18.0354 30.3579C17.9918 30.3535 17.9476 30.3593 17.9066 30.3749C17.8656 30.3905 17.8288 30.4155 17.7992 30.4479C17.7654 30.477 17.7387 30.5134 17.7211 30.5543C17.7036 30.5953 17.6956 30.6397 17.6979 30.6842C17.6966 30.7749 17.7286 30.8629 17.7879 30.9317C17.8197 30.9651 17.8581 30.9914 17.9008 31.0089C17.9434 31.0263 17.9894 31.0345 18.0354 31.033V31.0217Z" fill="white"/>
<path d="M20.7912 30.9991C20.9183 31.05 21.0265 31.139 21.101 31.2538C21.1755 31.3686 21.2127 31.5036 21.2075 31.6404C21.2076 31.7777 21.1643 31.9116 21.0838 32.0229C20.9901 32.136 20.8704 32.2248 20.735 32.2817C20.5727 32.3407 20.4014 32.3712 20.2287 32.3717C19.9802 32.3832 19.7349 32.312 19.5312 32.1692C19.4426 32.1129 19.3701 32.0345 19.3208 31.9418C19.2715 31.8492 19.2471 31.7453 19.2499 31.6404C19.2454 31.5052 19.2816 31.3718 19.3539 31.2575C19.4261 31.1431 19.5309 31.0531 19.6549 30.9991C19.5443 30.9591 19.4491 30.8856 19.3826 30.7887C19.316 30.6919 19.2814 30.5766 19.2837 30.4591C19.2814 30.3573 19.3063 30.2568 19.3557 30.1678C19.4051 30.0789 19.4774 30.0046 19.5649 29.9528C19.7648 29.8312 19.9949 29.7689 20.2287 29.7728C20.4646 29.7653 20.6968 29.8322 20.8925 29.964C20.9763 30.0163 21.0453 30.0893 21.0926 30.1761C21.1399 30.2628 21.164 30.3603 21.1625 30.4591C21.1648 30.5766 21.1303 30.6919 21.0637 30.7887C20.9971 30.8856 20.9018 30.9591 20.7912 30.9991ZM20.2174 31.8429C20.2565 31.8447 20.2956 31.8388 20.3323 31.8252C20.369 31.8117 20.4027 31.791 20.4312 31.7642C20.46 31.7366 20.4829 31.7034 20.4984 31.6666C20.5138 31.6299 20.5216 31.5903 20.5212 31.5504C20.5216 31.5105 20.5138 31.471 20.4984 31.4342C20.4829 31.3975 20.46 31.3643 20.4312 31.3367C20.4027 31.3099 20.369 31.2891 20.3323 31.2756C20.2956 31.2621 20.2565 31.2561 20.2174 31.2579C20.1783 31.2554 20.1391 31.2611 20.1023 31.2747C20.0655 31.2882 20.0319 31.3093 20.0037 31.3367C19.9724 31.3622 19.9478 31.3951 19.9321 31.4323C19.9164 31.4696 19.9101 31.5102 19.9137 31.5504C19.9101 31.5907 19.9164 31.6312 19.9321 31.6685C19.9478 31.7057 19.9724 31.7386 20.0037 31.7642C20.0302 31.7906 20.0619 31.8113 20.0967 31.8248C20.1316 31.8384 20.1689 31.8445 20.2062 31.8429H20.2174ZM20.2174 30.7178C20.2874 30.7199 20.3556 30.6958 20.4088 30.6503C20.4335 30.6273 20.4532 30.5994 20.4667 30.5685C20.4803 30.5375 20.4874 30.5041 20.4875 30.4703C20.4865 30.4383 20.479 30.4068 20.4655 30.3778C20.4519 30.3488 20.4326 30.3229 20.4088 30.3015C20.3556 30.256 20.2874 30.232 20.2174 30.234C20.151 30.2326 20.0866 30.2567 20.0375 30.3015C20.0118 30.3213 19.9912 30.347 19.9775 30.3764C19.9638 30.4057 19.9574 30.4379 19.9587 30.4703C19.9565 30.5044 19.9625 30.5386 19.9762 30.5699C19.9899 30.6012 20.0109 30.6288 20.0375 30.6503C20.0906 30.6958 20.1588 30.7199 20.2287 30.7178H20.2174Z" fill="white"/>
<path d="M33.4713 0.925796H27.3733C25.3628 0.963325 23.386 1.44948 21.5874 2.34877C19.7888 3.24806 18.2139 4.53778 16.9776 6.12368C15.7071 4.49116 14.0785 3.17238 12.2175 2.26918C10.3565 1.36598 8.31279 0.902515 6.24421 0.914535H0V3.63729H6.25547C8.09951 3.63342 9.91416 4.09928 11.5283 4.99098C13.1424 5.88268 14.5028 7.1708 15.4812 8.73389C16.0343 9.59792 16.4588 10.5378 16.7413 11.5241L16.9776 12.3117L17.2025 11.5241C17.485 10.5378 17.9095 9.59792 18.4626 8.73389C19.441 7.1708 20.8014 5.88268 22.4155 4.99098C24.0296 4.09928 25.8443 3.63342 27.6883 3.63729H30.9736V19.0734H33.6963V0.914535L33.4713 0.925796Z" fill="#E30613"/>
<path d="M27.4517 20.851C25.7657 20.8451 24.1506 20.1719 22.9594 18.9786C21.7683 17.7853 21.0979 16.169 21.095 14.483C21.0979 12.798 21.7686 11.1829 22.9601 9.99146C24.1516 8.79998 25.7667 8.12929 27.4517 8.12632H29.2181V5.40356H27.4517C25.0446 5.40654 22.737 6.36409 21.0349 8.06616C19.3328 9.76824 18.3753 12.0759 18.3723 14.483C18.3753 16.8901 19.3328 19.1978 21.0349 20.8999C22.737 22.6019 25.0446 23.5595 27.4517 23.5625H31.0632V29.7392C31.0632 31.573 30.4894 34.6446 26.5629 34.6446H22.4451C20.4213 34.6218 18.4456 35.2619 16.8197 36.4672C15.193 35.2634 13.2178 34.6234 11.1942 34.6446H7.07639C3.1836 34.6446 2.57605 31.573 2.57605 29.7392V8.12632H6.17634C7.86133 8.12929 9.47648 8.79998 10.668 9.99146C11.8594 11.1829 12.5301 12.798 12.5331 14.483C12.5301 16.169 11.8598 17.7853 10.6686 18.9786C9.47749 20.1719 7.86236 20.8451 6.17634 20.851H4.34244V23.5625H6.17634C8.58344 23.5595 10.8911 22.6019 12.5932 20.8999C14.2953 19.1978 15.2528 16.8901 15.2558 14.483C15.2528 12.0759 14.2953 9.76824 12.5932 8.06616C10.8911 6.36409 8.58344 5.40654 6.17634 5.40356H-0.0678711V29.7392C-0.0678711 35.3083 3.61118 37.2885 7.05394 37.2885H11.1717C12.0219 37.2653 12.868 37.4127 13.6603 37.7219C14.4526 38.0311 15.1749 38.4957 15.7846 39.0886L16.7859 40.2137L17.7872 39.0886C18.3966 38.4952 19.1188 38.0302 19.9112 37.721C20.7035 37.4118 21.5498 37.2647 22.4 37.2885H26.5179C29.9606 37.2885 33.6397 35.3083 33.6397 29.7392V20.851H27.4517Z" fill="white"/>
</g>
<defs>
<clipPath id="clip0_5950_3744">
<rect width="202.707" height="39.3217" fill="white" transform="translate(0 0.925537)"/>
</clipPath>
</defs>
</svg>
