<svg width="25" height="25" viewBox="0 0 25 25" fill="none" xmlns="http://www.w3.org/2000/svg">
<path d="M8.2331 22.967C7.73345 22.967 7.2338 22.767 6.73416 22.467C5.93472 21.867 5.43508 20.867 5.63494 19.867L6.23451 15.967L3.53642 13.167C2.83692 12.467 2.53713 11.367 2.93685 10.367C3.23663 9.36704 4.03607 8.76704 5.03536 8.56704L8.83267 7.96704L10.5315 4.46704C10.9312 3.56704 11.8305 2.96704 12.8298 2.96704C13.8291 2.96704 14.7285 3.56704 15.2281 4.46704L16.827 7.96704L20.5244 8.56704C21.5237 8.66704 22.3231 9.36704 22.6229 10.367C22.9227 11.367 22.7228 12.367 22.0233 13.167L19.3252 15.967L19.9248 19.867C20.1247 20.867 19.725 21.967 18.8256 22.467C18.0262 23.067 17.0269 23.067 16.1275 22.667L12.8298 20.767L9.53218 22.567C9.13246 22.867 8.73274 22.967 8.2331 22.967ZM12.8298 4.96704C12.7299 4.96704 12.4301 4.96704 12.3302 5.36704L10.4315 9.36704C10.2317 9.66704 9.93189 9.86704 9.63211 9.86704L5.33515 10.567C5.03536 10.567 4.93543 10.867 4.8355 10.967C4.8355 11.067 4.73557 11.367 5.03536 11.667L8.13317 14.767C8.33303 14.967 8.43295 15.267 8.43295 15.667L7.73345 20.067C7.63352 20.467 7.93331 20.667 8.03324 20.767C8.13317 20.867 8.33303 20.967 8.63281 20.767L12.4301 18.667C12.7299 18.467 13.1296 18.467 13.4294 18.667L17.2267 20.767C17.5265 20.867 17.7264 20.767 17.8263 20.767C17.9262 20.667 18.1261 20.467 18.1261 20.067L17.4266 15.667C17.3267 15.367 17.4266 15.067 17.7264 14.767L20.8242 11.667C20.9241 11.467 20.8242 11.067 20.8242 10.967C20.8242 10.867 20.6243 10.567 20.3245 10.567L16.0276 9.96704C15.7278 9.96704 15.428 9.66704 15.2281 9.36704L13.3295 5.36704C13.2296 4.96704 12.9298 4.96704 12.8298 4.96704Z" fill="#FFED00"/>
</svg>
