<svg width="19" height="22" viewBox="0 0 19 22" fill="none" xmlns="http://www.w3.org/2000/svg">
<path d="M13 3.5C13 4.88071 14.1193 6 15.5 6C16.8807 6 18 4.88071 18 3.5C18 2.11929 16.8807 1 15.5 1" stroke="#828897" stroke-width="1.5" stroke-linecap="round"/>
<path d="M3.5 13C4.88071 13 6 11.8807 6 10.5C6 9.11929 4.88071 8 3.5 8C2.11929 8 1 9.11929 1 10.5" stroke="#828897" stroke-width="1.5" stroke-linecap="round"/>
<path d="M13 5L6 9" stroke="#828897" stroke-width="1.5" stroke-linecap="round" stroke-linejoin="round"/>
<path d="M5.5 12.5L13 17" stroke="#828897" stroke-width="1.5" stroke-linecap="round" stroke-linejoin="round"/>
<path d="M18 18.5C18 19.8807 16.8807 21 15.5 21C14.1193 21 13 19.8807 13 18.5C13 17.1193 14.1193 16 15.5 16" stroke="#828897" stroke-width="1.5" stroke-linecap="round"/>
</svg>
