<svg width="25" height="25" viewBox="0 0 25 25" fill="none" xmlns="http://www.w3.org/2000/svg">
<path fill-rule="evenodd" clip-rule="evenodd" d="M11.25 4.896C11.25 4.48178 11.5858 4.146 12 4.146H22C22.4142 4.146 22.75 4.48178 22.75 4.896C22.75 5.31021 22.4142 5.646 22 5.646H12C11.5858 5.646 11.25 5.31021 11.25 4.896Z" fill="#353535"/>
<path fill-rule="evenodd" clip-rule="evenodd" d="M7.53033 3.86567C7.82322 4.15856 7.82322 4.63343 7.53033 4.92633L3.53033 8.92633C3.23744 9.21922 2.76256 9.21922 2.46967 8.92633C2.17678 8.63343 2.17678 8.15856 2.46967 7.86567L6.46967 3.86567C6.76256 3.57277 7.23744 3.57277 7.53033 3.86567Z" fill="#353535"/>
<path fill-rule="evenodd" clip-rule="evenodd" d="M7 3.646C7.41421 3.646 7.75 3.98178 7.75 4.396V21.396C7.75 21.8102 7.41421 22.146 7 22.146C6.58579 22.146 6.25 21.8102 6.25 21.396V4.396C6.25 3.98178 6.58579 3.646 7 3.646Z" fill="#353535"/>
<path fill-rule="evenodd" clip-rule="evenodd" d="M11.25 9.896C11.25 9.48178 11.5858 9.146 12 9.146H20C20.4142 9.146 20.75 9.48178 20.75 9.896C20.75 10.3102 20.4142 10.646 20 10.646H12C11.5858 10.646 11.25 10.3102 11.25 9.896Z" fill="#353535"/>
<path fill-rule="evenodd" clip-rule="evenodd" d="M11.25 14.896C11.25 14.4818 11.5858 14.146 12 14.146H18C18.4142 14.146 18.75 14.4818 18.75 14.896C18.75 15.3102 18.4142 15.646 18 15.646H12C11.5858 15.646 11.25 15.3102 11.25 14.896Z" fill="#353535"/>
<path fill-rule="evenodd" clip-rule="evenodd" d="M11.25 19.896C11.25 19.4818 11.5858 19.146 12 19.146H16C16.4142 19.146 16.75 19.4818 16.75 19.896C16.75 20.3102 16.4142 20.646 16 20.646H12C11.5858 20.646 11.25 20.3102 11.25 19.896Z" fill="#353535"/>
</svg>
