<svg width="36" height="77" viewBox="0 0 36 77" fill="none" xmlns="http://www.w3.org/2000/svg">
<path d="M5.28882 73.094H3.60601L0 64.3217H4.24708L6.49082 70.2231H6.65109L8.73456 64.3217H12.9015L8.01336 76.4434H3.92654L5.28882 73.094Z" fill="#0072BC"/>
<path d="M16.1879 68.7875H19.7939C19.4734 67.9103 18.5117 66.9533 16.8289 66.9533C16.1879 66.9533 15.6269 67.1128 15.2263 67.2723C14.9859 67.3521 14.7455 67.5115 14.5852 67.5913L13.0627 65.1191C13.3832 64.8799 13.7839 64.7204 14.1845 64.4811C14.9859 64.1621 15.9475 63.8431 17.2296 63.8431C21.3966 63.8431 24.2012 66.6343 24.2012 70.223C24.2012 73.8116 21.4767 76.6028 17.2296 76.6028C15.8673 76.6028 14.8256 76.2838 14.0243 75.8851C13.6236 75.6458 13.2229 75.4863 12.8223 75.1674L14.3448 72.6952C14.5852 72.8547 14.7455 73.0142 15.066 73.0939C15.5468 73.3332 16.1077 73.4926 16.8289 73.4926C18.5919 73.4926 19.5535 72.4559 19.874 71.4989H16.1077V68.7875H16.1879Z" fill="#0072BC"/>
<path d="M31.3328 72.6952C31.3328 72.2964 30.852 71.7382 30.1308 71.7382H27.887V68.7875H29.8904C30.6116 68.7875 31.0122 68.3888 31.0122 67.9103C31.0122 67.3521 30.6116 66.9533 29.4897 66.9533C28.6884 66.9533 27.9672 67.1926 27.4864 67.4318C27.246 67.5913 26.9254 67.7508 26.685 67.9103L25.1625 65.4381C25.5632 65.1191 25.9638 64.8799 26.3645 64.6406C27.246 64.2419 28.3678 63.8431 29.8102 63.8431C33.3361 63.8431 35.0991 65.5976 35.0991 67.4318C35.0991 68.4685 34.5381 69.1065 33.8971 69.4255C33.5765 69.6647 33.1759 69.7445 32.6951 69.8242V70.223C33.1759 70.3825 33.6567 70.542 34.0573 70.7812C34.5381 71.0205 34.7785 71.2597 35.0189 71.6584C35.2593 72.0572 35.4196 72.5357 35.4196 73.0939C35.4196 75.0079 33.5765 76.8421 29.8102 76.8421C28.2076 76.8421 26.9254 76.3636 26.044 75.9648C25.483 75.7256 25.0022 75.4066 24.6016 75.0876L26.1241 72.6154C26.4446 72.8547 26.7652 73.0939 27.0857 73.2534C27.7268 73.6521 28.5281 73.8914 29.4096 73.8914C30.7718 73.7319 31.3328 73.2534 31.3328 72.6952Z" fill="#0072BC"/>
<path d="M10.6582 55.9479C10.6582 53.7149 12.4211 52.439 13.8635 51.482C17.3093 49.0895 25.8034 44.6237 25.8034 39.8388C25.8034 38.0843 23.4796 36.0906 22.3577 34.6552C21.7166 33.9374 21.2358 33.1399 21.2358 32.9007V11.4485H24.7617V33.8577C24.7617 36.2501 25.4829 37.6856 26.7651 38.8818C27.6465 39.759 29.3293 41.673 29.3293 43.3477C29.1691 50.0465 15.8669 52.3592 16.0272 57.3833C16.1073 58.6593 17.7901 59.6163 17.6298 59.6163C14.9053 59.5365 10.6582 59.696 10.6582 55.9479Z" fill="#0072BC"/>
<path d="M16.0271 32.6616H15.947C15.947 30.9071 15.947 29.1526 15.947 27.3982C17.0689 27.3982 18.1907 27.3982 19.3126 27.3982C19.3927 29.2324 19.7934 31.1464 20.5947 32.7413C21.1557 33.8578 22.8385 35.8515 22.8385 37.1275C23.2392 41.4338 9.37605 47.6542 6.65151 51.5618C5.85017 52.6783 5.52964 54.034 5.52964 55.3897C5.52964 58.4999 7.37271 58.7392 7.85351 59.2176C4.0071 58.6594 0.801758 57.2239 0.801758 52.8378C0.881891 48.6112 6.81177 44.863 9.93698 42.6301C11.7801 41.3541 20.1139 36.1705 20.1139 33.9375C20.1139 32.9806 19.3927 31.8641 19.0722 31.0666C18.6715 30.1096 18.2709 29.0729 18.1907 28.0362H17.5497C17.3894 29.7906 16.9887 31.2261 16.0271 32.6616Z" fill="#0072BC"/>
<path d="M24.6013 60.0155C22.2774 60.0155 21.7165 59.6167 21.476 58.5003C21.476 58.4205 21.476 58.4205 21.476 58.3408C21.3959 54.7521 31.7331 52.2002 31.7331 46.5381C31.7331 42.9494 27.9669 41.3544 27.1655 38.0848H29.8099V39.7595C29.8099 43.1089 34.1372 45.9798 34.618 50.6052C34.7782 54.5129 32.2941 58.5003 28.2073 59.6965C27.5662 59.856 26.6046 59.9357 24.6013 60.0155Z" fill="#0072BC"/>
<path d="M15.8662 11.4485H19.3921V15.0371H19.312H15.8662V11.4485Z" fill="#0072BC"/>
<path d="M31.5742 32.741H35.1001C35.1001 33.9372 35.1001 35.0537 35.1001 36.2499H35.02C33.8981 36.2499 32.6961 36.2499 31.5742 36.2499C31.5742 35.0537 31.5742 33.9372 31.5742 32.741Z" fill="#0072BC"/>
<path d="M31.5742 38.0842C32.7762 38.0842 33.8981 38.0842 35.1001 38.0842C35.1001 39.2804 35.1001 40.3171 35.1001 41.5931C33.8981 41.5931 32.7762 41.5931 31.5742 41.5931C31.5742 40.3969 31.5742 39.5196 31.5742 38.0842Z" fill="#0072BC"/>
<path d="M15.8662 0.842041V4.27121V4.35095H19.3921V0.842041H15.8662Z" fill="#0072BC"/>
<path d="M3.68603 38.0045H0.160156V41.5134H3.68603V38.0045Z" fill="#0072BC"/>
<path d="M29.8892 22.1346H26.3633V25.6435H29.8892V22.1346Z" fill="#0072BC"/>
<path d="M8.9751 22.1346H5.44922V25.6436H8.9751V22.1346Z" fill="#0072BC"/>
<path d="M14.1841 22.1346H10.6582V25.6435H14.1841V22.1346Z" fill="#0072BC"/>
<path d="M8.9751 32.7411H5.44922V36.25H8.9751V32.7411Z" fill="#0072BC"/>
<path d="M26.3643 32.7409H29.8901V36.2498C28.6881 36.2498 27.5663 36.2498 26.3643 36.2498V32.7409Z" fill="#0072BC"/>
<path d="M26.3643 27.3978H29.7299C29.8101 27.3978 29.8101 27.3978 29.8101 27.4776V30.9067H26.2842V27.3978H26.3643Z" fill="#0072BC"/>
<path d="M0.160156 32.7411V36.1703V36.25H0.320423H3.68603V32.7411H0.160156Z" fill="#0072BC"/>
<path d="M15.8662 22.1346H19.3921V25.5638C19.3921 25.6436 19.3921 25.6436 19.312 25.6436H15.9463V22.1346H15.8662Z" fill="#0072BC"/>
<path d="M15.8662 6.18518H19.3921V9.5346V9.69409H15.8662V6.18518Z" fill="#0072BC"/>
<path d="M5.44922 27.4778V27.3981H8.9751V30.907H5.44922V27.4778Z" fill="#0072BC"/>
<path d="M10.6583 27.4776C10.6583 27.3978 10.6583 27.3978 10.7384 27.3978H14.0239C14.104 27.3978 14.104 27.3978 14.104 27.4776V30.9067H10.5781V27.4776H10.6583Z" fill="#0072BC"/>
<path d="M19.3921 16.7916H15.8662V20.2208H19.3921V16.7916Z" fill="#0072BC"/>
<path d="M14.1841 16.7918H10.6582V20.221H14.1841V16.7918Z" fill="#0072BC"/>
<path d="M14.184 11.4485H10.7383V14.9574H14.184V11.4485Z" fill="#0072BC"/>
<path d="M10.6582 37.3665V32.7411H14.1841V34.5753C13.9437 35.1335 11.2191 37.0475 10.6582 37.3665Z" fill="#0072BC"/>
<path d="M5.44922 38.0848H8.9751V38.7228C8.9751 38.7228 5.68962 41.3545 5.44922 41.514V38.0848Z" fill="#0072BC"/>
<path d="M32.6143 43.3476H34.2971H35.0984V44.2248V47.654H35.0183C34.7779 46.5375 32.6944 43.5071 32.6143 43.3476Z" fill="#0072BC"/>
<path d="M2.72437 43.3476C2.72437 43.3476 0.640902 45.1021 0.320368 46.059H0.240234C0.240234 45.5805 0.240234 43.6666 0.240234 43.3476C0.400501 43.3476 0.640902 43.3476 2.72437 43.3476Z" fill="#0072BC"/>
</svg>
