<svg width="25" height="25" viewBox="0 0 25 25" fill="none" xmlns="http://www.w3.org/2000/svg">
<path d="M7.72846 22.467C7.22881 22.467 6.72917 22.267 6.22952 21.967C5.43008 21.367 4.93044 20.367 5.1303 19.367L5.72987 15.467L3.03178 12.667C2.33228 11.967 2.03249 10.867 2.43221 9.86704C2.732 8.86704 3.53143 8.26704 4.53072 8.06704L8.32803 7.46704L10.0268 3.96704C10.4265 3.06704 11.3259 2.46704 12.3252 2.46704C13.3245 2.46704 14.2239 3.06704 14.7235 3.96704L16.3224 7.46704L20.0198 8.06704C21.019 8.16704 21.8185 8.86704 22.1183 9.86704C22.4181 10.867 22.2182 11.867 21.5187 12.667L18.8206 15.467L19.4202 19.367C19.62 20.367 19.2203 21.467 18.321 21.967C17.5215 22.567 16.5222 22.567 15.6229 22.167L12.3252 20.267L9.02754 22.067C8.62782 22.367 8.2281 22.467 7.72846 22.467ZM12.3252 4.46704C12.2253 4.46704 11.9255 4.46704 11.8256 4.86704L9.9269 8.86704C9.72704 9.16704 9.42726 9.36704 9.12747 9.36704L4.83051 10.067C4.53072 10.067 4.43079 10.367 4.33086 10.467C4.33086 10.567 4.23093 10.867 4.53072 11.167L7.62853 14.267C7.82839 14.467 7.92832 14.767 7.92832 15.167L7.22881 19.567C7.12888 19.967 7.42867 20.167 7.5286 20.267C7.62853 20.367 7.82839 20.467 8.12817 20.267L11.9255 18.167C12.2253 17.967 12.625 17.967 12.9248 18.167L16.7221 20.267C17.0219 20.367 17.2217 20.267 17.3217 20.267C17.4216 20.167 17.6215 19.967 17.6215 19.567L16.9219 15.167C16.822 14.867 16.9219 14.567 17.2217 14.267L20.3195 11.167C20.4195 10.967 20.3195 10.567 20.3195 10.467C20.3195 10.367 20.1197 10.067 19.8199 10.067L15.5229 9.46704C15.2232 9.46704 14.9234 9.16704 14.7235 8.86704L12.8249 4.86704C12.7249 4.46704 12.4251 4.46704 12.3252 4.46704Z" fill="#FFED00"/>
</svg>
