<svg width="65" height="65" viewBox="0 0 65 65" fill="none" xmlns="http://www.w3.org/2000/svg">
<rect x="0.779785" y="0.5" width="64" height="64" fill="#009640"/>
<path d="M13.4465 38.1735C12.6414 37.8676 11.9597 37.4436 11.3908 36.9014C10.8273 36.3647 10.3925 35.7475 10.0812 35.055C9.76985 34.3627 9.61963 33.6327 9.61963 32.8598H13.264C13.264 33.4395 13.3982 33.9387 13.6773 34.3466C13.951 34.7598 14.3214 35.0712 14.783 35.2859C15.2445 35.5006 15.7491 35.6079 16.2965 35.6079C16.844 35.6079 17.3539 35.5113 17.7726 35.3127C18.1912 35.1142 18.5187 34.8296 18.7602 34.454C19.0017 34.0782 19.1198 33.6059 19.1198 33.0423C19.1198 32.6291 19.0339 32.2479 18.8621 31.8991C18.6904 31.5502 18.4381 31.255 18.1053 31.0134C17.7726 30.7719 17.3593 30.5894 16.8708 30.4606C16.3825 30.3318 15.8243 30.2674 15.1909 30.2674V28.3137C16.2859 28.3137 17.2895 28.4103 18.2074 28.5982C19.1251 28.7861 19.9249 29.092 20.6065 29.5106C21.2882 29.9293 21.8195 30.4606 22.1953 31.1047C22.5709 31.7488 22.7588 32.5217 22.7588 33.4288C22.7588 34.454 22.4905 35.361 21.9483 36.15C21.4116 36.939 20.6495 37.5509 19.6619 37.9856C18.6743 38.4204 17.5203 38.6405 16.1838 38.6405C15.1587 38.6405 14.2409 38.4848 13.4358 38.1789L13.4465 38.1735ZM15.1909 27.7502C15.7222 27.7502 16.1946 27.6804 16.6132 27.5462C17.0319 27.412 17.3861 27.2188 17.676 26.9665C17.9658 26.7142 18.1912 26.4351 18.3576 26.1185C18.5187 25.8018 18.5991 25.4744 18.5991 25.1309C18.5991 24.7015 18.5132 24.3258 18.3415 24.0038C18.1698 23.6764 17.9228 23.4294 17.5955 23.2577C17.2681 23.086 16.8494 23 16.3395 23C15.6203 23 15.0191 23.2201 14.5307 23.6549C14.0423 24.0896 13.8008 24.6424 13.8008 25.308H10.3871C10.3871 24.2829 10.6394 23.3704 11.1439 22.576C11.6484 21.7817 12.3462 21.1537 13.2371 20.6921C14.1282 20.2305 15.1641 19.9998 16.3449 19.9998C17.5955 19.9998 18.6582 20.2252 19.5384 20.6653C20.4187 21.1108 21.0896 21.7012 21.5512 22.4365C22.0128 23.1718 22.2435 23.993 22.2435 24.9001C22.2435 25.8769 21.9376 26.7089 21.3203 27.4013C20.7031 28.0936 19.8659 28.6197 18.8031 28.9792C17.7403 29.3389 16.5327 29.516 15.1855 29.516V27.7448L15.1909 27.7502Z" fill="white"/>
<path d="M35.6518 20.3593L29.9034 27.1329L29.2379 27.3637C29.6833 26.9022 30.1235 26.6015 30.5582 26.4674C30.993 26.3332 31.5297 26.2634 32.163 26.2634C32.8447 26.2634 33.521 26.403 34.1757 26.6766C34.8359 26.9504 35.421 27.3422 35.9363 27.8575C36.4516 28.3727 36.8595 28.9846 37.1708 29.7038C37.4821 30.423 37.6324 31.2174 37.6324 32.0923C37.6324 33.4986 37.321 34.6847 36.6931 35.6616C36.0704 36.6384 35.2332 37.3791 34.1919 37.8837C33.1453 38.3882 31.9859 38.6405 30.7031 38.6405C29.4204 38.6405 28.2557 38.3882 27.2143 37.8837C26.1731 37.3791 25.3358 36.6384 24.7132 35.6616C24.0906 34.6847 23.7793 33.4986 23.7793 32.0923C23.7793 31.2014 23.951 30.3748 24.2945 29.6126C24.6381 28.8504 25.0674 28.1473 25.5773 27.4926L31.0198 20.3593H35.6679H35.6518ZM27.7994 33.8742C28.0893 34.3788 28.4864 34.7706 28.9909 35.055C29.4955 35.3396 30.0644 35.4791 30.6978 35.4791C31.3311 35.4791 31.9 35.3396 32.4045 35.055C32.9091 34.7706 33.3062 34.3788 33.5961 33.8742C33.886 33.3697 34.0309 32.774 34.0309 32.0923C34.0309 31.4107 33.886 30.831 33.5961 30.3103C33.3062 29.7897 32.9091 29.3872 32.4045 29.1027C31.9 28.8236 31.3311 28.6787 30.6978 28.6787C30.0644 28.6787 29.4955 28.8182 28.9909 29.1027C28.4864 29.3872 28.0893 29.7897 27.7994 30.3103C27.5095 30.831 27.3646 31.4268 27.3646 32.0923C27.3646 32.7579 27.5095 33.3697 27.7994 33.8742Z" fill="white"/>
<path d="M39.6932 24.3634C40.2997 22.9786 41.1478 21.9051 42.232 21.143C43.3161 20.3808 44.5721 19.9998 45.9945 19.9998C47.4169 19.9998 48.7425 20.3808 49.8214 21.143C50.9002 21.9051 51.7375 22.9786 52.3386 24.3634C52.9398 25.7481 53.235 27.3905 53.235 29.2906C53.235 31.1906 52.9345 32.833 52.3386 34.2178C51.7375 35.6025 50.9002 36.676 49.8214 37.4382C48.7425 38.2003 47.4705 38.5814 45.9945 38.5814C44.5185 38.5814 43.3216 38.2003 42.232 37.4382C41.1424 36.676 40.2997 35.6025 39.6932 34.2178C39.0867 32.833 38.7808 31.1906 38.7808 29.2906C38.7808 27.3905 39.0867 25.7481 39.6932 24.3634ZM42.6077 31.7702C42.7794 32.5164 43.0264 33.155 43.3537 33.6972C43.6811 34.2339 44.0622 34.6526 44.5077 34.9423C44.9532 35.2322 45.447 35.3771 45.9945 35.3771C46.5419 35.3771 47.0625 35.2322 47.5081 34.9423C47.9536 34.6526 48.34 34.2339 48.662 33.6972C48.9895 33.1604 49.2363 32.5164 49.4081 31.7702C49.5799 31.0242 49.6657 30.203 49.6657 29.2906C49.6657 28.3782 49.5799 27.5569 49.4081 26.8109C49.2363 26.0648 48.9895 25.4261 48.662 24.884C48.3346 24.3472 47.9536 23.9286 47.5081 23.6388C47.0625 23.3489 46.558 23.204 45.9945 23.204C45.4309 23.204 44.9479 23.3489 44.5077 23.6388C44.0622 23.9286 43.6758 24.3472 43.3537 24.884C43.0264 25.4207 42.7794 26.0648 42.6077 26.8109C42.436 27.5569 42.35 28.3835 42.35 29.2906C42.35 30.1976 42.436 31.0242 42.6077 31.7702Z" fill="white"/>
<path d="M54.1848 23.4725C53.5515 22.8767 53.2349 22.136 53.2349 21.2612C53.2349 20.3862 53.5515 19.6241 54.1848 19.0229C54.8182 18.4272 55.6018 18.1266 56.5303 18.1266C57.153 18.1266 57.7219 18.2661 58.2318 18.5399C58.7417 18.8136 59.1443 19.1893 59.4395 19.6509C59.7347 20.1125 59.8796 20.6493 59.8796 21.2557C59.8796 21.8301 59.7347 22.3507 59.4395 22.823C59.1443 23.2954 58.7417 23.671 58.2318 23.9501C57.7219 24.2293 57.153 24.3635 56.5303 24.3635C55.6018 24.3635 54.8182 24.0629 54.1848 23.4671V23.4725ZM57.5072 22.238C57.7648 21.9589 57.8937 21.6368 57.8937 21.2612C57.8937 20.8533 57.7648 20.5097 57.5072 20.2413C57.2496 19.973 56.9221 19.8388 56.5303 19.8388C56.1385 19.8388 55.838 19.973 55.5804 20.2413C55.3227 20.5097 55.1939 20.8478 55.1939 21.2612C55.1939 21.6744 55.3227 21.9857 55.5804 22.2541C55.838 22.5224 56.1547 22.6566 56.5303 22.6566C56.9061 22.6566 57.2496 22.5171 57.5072 22.2434V22.238Z" fill="white"/>
<path d="M31.8135 49.7563H31.808C16.5541 49.5523 4.60107 44.5876 4.60107 38.458C4.60107 36.7083 5.54035 35.039 7.39209 33.4987C7.56384 33.3537 7.81611 33.3805 7.96102 33.5523C8.10057 33.7241 8.0791 33.9764 7.90735 34.1212C6.24884 35.5006 5.40617 36.9605 5.40617 38.458C5.40617 44.0454 17.2519 48.7525 31.8188 48.9512C32.0389 48.9512 32.2214 49.139 32.2159 49.3591C32.2159 49.5791 32.0335 49.7563 31.8135 49.7563Z" fill="white"/>
<path d="M26.3928 45.3657C26.2695 45.5482 26.3231 45.8005 26.5056 45.924L31.6314 49.3322L26.3714 52.5365C26.1835 52.6545 26.1192 52.9015 26.2372 53.0893C26.3553 53.2772 26.6022 53.3362 26.7901 53.2235L32.5868 49.6918C32.7048 49.622 32.7746 49.4932 32.78 49.3536C32.78 49.2141 32.7156 49.0853 32.6029 49.0102L26.9511 45.2477C26.8866 45.2048 26.8115 45.1833 26.7364 45.1779C26.6022 45.1779 26.4734 45.2369 26.3928 45.355V45.3657Z" fill="white"/>
<path d="M50.1799 47.357C50.0081 47.357 49.8525 47.2496 49.7935 47.0779C49.729 46.8632 49.8417 46.6378 50.0564 46.5734C51.1191 46.2406 52.1229 45.8703 53.0407 45.4784C53.2447 45.3926 53.4807 45.4892 53.5666 45.6931C53.6526 45.8971 53.5559 46.1333 53.3519 46.2192C52.4073 46.6216 51.3767 46.9974 50.2926 47.3409C50.2496 47.3516 50.212 47.357 50.1691 47.357H50.1799Z" fill="white"/>
<path d="M42.8058 49.0315C42.6126 49.0315 42.4408 48.8867 42.4087 48.6881C42.3764 48.468 42.5267 48.2641 42.7468 48.2318C44.0135 48.0386 45.2587 47.8078 46.4395 47.5448C46.6596 47.4965 46.8743 47.6307 46.9225 47.8507C46.9709 48.0708 46.8367 48.2855 46.6167 48.3339C45.4143 48.6022 44.153 48.8383 42.8703 49.0315C42.8487 49.0315 42.8273 49.0315 42.8111 49.0315H42.8058Z" fill="white"/>
<path d="M35.8283 49.6972C35.6136 49.6972 35.4364 49.5308 35.4258 49.3107C35.415 49.0906 35.5867 48.9028 35.8122 48.892C36.8857 48.8491 37.9591 48.774 39.0058 48.6827C39.2258 48.6613 39.4244 48.8277 39.4405 49.0477C39.462 49.2678 39.2956 49.4663 39.0756 49.4824C38.0128 49.5791 36.9286 49.6488 35.8444 49.6972H35.8283Z" fill="white"/>
<path d="M55.1777 45.3121C55.0327 45.3121 54.8932 45.237 54.8235 45.0974C54.7215 44.8988 54.7912 44.6573 54.9898 44.5553C58.3767 42.7519 60.1639 40.6426 60.1639 38.458C60.1639 36.4238 58.5913 34.4379 55.6178 32.7096C55.4246 32.5969 55.3602 32.35 55.4729 32.1568C55.5856 31.9635 55.8325 31.8992 56.0257 32.0119C59.2623 33.8905 60.969 36.1178 60.969 38.4527C60.969 40.9538 59.0314 43.3047 55.371 45.2584C55.3119 45.2907 55.2475 45.3067 55.1831 45.3067L55.1777 45.3121Z" fill="white"/>
</svg>
