<svg width="25" height="25" viewBox="0 0 25 25" fill="none" xmlns="http://www.w3.org/2000/svg">
<path fill-rule="evenodd" clip-rule="evenodd" d="M3.84449 2.11515C5.13356 0.830174 7.29495 1.18951 8.20755 2.70567L8.2139 2.71622L10.3176 6.31124C10.9371 7.39192 10.7808 8.7812 9.85658 9.70249L9.50766 10.0503C10.7431 11.988 12.6198 13.9051 14.5169 15.0549L14.8637 14.7476C15.7879 13.8465 17.1675 13.6984 18.2427 14.3108L18.2504 14.3152L21.8104 16.3853C22.6918 16.8072 23.1556 17.6225 23.2506 18.4364C23.3454 19.2497 23.0852 20.1323 22.4522 20.7633L21.2526 21.9591C20.0071 23.2006 17.9796 23.75 16.2494 22.9661C13.972 22.0354 10.5563 20.2792 7.44322 17.176C4.32201 14.0647 2.56265 10.5536 1.6383 8.40573C0.849737 6.68628 1.39313 4.67023 2.62992 3.42558L3.8168 2.14388C3.82583 2.13412 3.83507 2.12454 3.84449 2.11515ZM5.26909 3.51379L4.08631 4.79106C4.07727 4.80082 4.06804 4.81039 4.05862 4.81978C3.30989 5.56613 3.06078 6.72227 3.45969 7.58383C3.46353 7.59213 3.46726 7.60048 3.47087 7.60888C4.34725 9.64727 5.98597 12.905 8.85693 15.7668C11.733 18.6337 14.9045 20.2644 17.0256 21.1294C17.0392 21.1349 17.0527 21.1407 17.066 21.1469C17.9303 21.5445 19.0901 21.2962 19.8389 20.5499L21.0384 19.3541C21.2051 19.1879 21.2947 18.9246 21.2647 18.6666C21.2365 18.425 21.1167 18.2595 20.9318 18.1757C20.901 18.1618 20.8709 18.1463 20.8417 18.1293L17.2476 16.0394C16.9327 15.8618 16.5288 15.906 16.2543 16.1795C16.2405 16.1933 16.2262 16.2067 16.2116 16.2197L15.3119 17.0169C15.0021 17.2914 14.5544 17.3468 14.1866 17.1562C11.4895 15.7582 8.85775 13.0159 7.37784 10.3816C7.15915 9.99231 7.2267 9.50557 7.54318 9.19009L8.44287 8.29327C8.71731 8.01969 8.7616 7.61706 8.58346 7.30314L6.49057 3.72674C6.2057 3.2595 5.5823 3.21687 5.26909 3.51379Z" fill="#FFED00"/>
<path fill-rule="evenodd" clip-rule="evenodd" d="M16.525 8.07466C16.0236 7.57325 15.249 7.39351 14.7014 7.57606C14.1315 7.76601 13.5156 7.45804 13.3256 6.88819C13.1357 6.31834 13.4437 5.7024 14.0135 5.51245C15.4236 5.04243 17.0418 5.51527 18.0631 6.53653C19.0843 7.55779 19.5572 9.17604 19.0872 10.5861C18.8972 11.156 18.2813 11.4639 17.7114 11.274C17.1416 11.084 16.8336 10.4681 17.0235 9.89823C17.2061 9.35058 17.0264 8.57606 16.525 8.07466Z" fill="#FFED00"/>
<path fill-rule="evenodd" clip-rule="evenodd" d="M19.2189 5.38075C17.4447 3.60661 14.8658 2.98223 12.555 3.60436C12.011 3.75082 11.4513 3.42856 11.3049 2.88458C11.1584 2.3406 11.4807 1.78088 12.0246 1.63443C15.0181 0.828501 18.3554 1.63218 20.6614 3.9382C22.9674 6.24422 23.7711 9.58152 22.9652 12.575C22.8187 13.1189 22.259 13.4412 21.715 13.2948C21.171 13.1483 20.8488 12.5886 20.9952 12.0446C21.6174 9.73383 20.993 7.1549 19.2189 5.38075Z" fill="#FFED00"/>
</svg>
