<svg width="34" height="33" viewBox="0 0 34 33" fill="none" xmlns="http://www.w3.org/2000/svg">
<path fill-rule="evenodd" clip-rule="evenodd" d="M8.69043 6.30737C7.50078 6.30737 6.53638 7.27177 6.53638 8.46142C6.53638 9.65107 7.50078 10.6155 8.69043 10.6155C9.88008 10.6155 10.8445 9.65107 10.8445 8.46142C10.8445 7.27177 9.88008 6.30737 8.69043 6.30737ZM4.38232 8.46142C4.38232 6.08212 6.31113 4.15332 8.69043 4.15332C11.0697 4.15332 12.9985 6.08212 12.9985 8.46142C12.9985 10.8407 11.0697 12.7695 8.69043 12.7695C6.31113 12.7695 4.38232 10.8407 4.38232 8.46142Z" fill="white"/>
<path fill-rule="evenodd" clip-rule="evenodd" d="M23.7686 21.3857C22.5789 21.3857 21.6145 22.3501 21.6145 23.5398C21.6145 24.7294 22.5789 25.6938 23.7686 25.6938C24.9582 25.6938 25.9226 24.7294 25.9226 23.5398C25.9226 22.3501 24.9582 21.3857 23.7686 21.3857ZM19.4604 23.5398C19.4604 21.1605 21.3893 19.2317 23.7686 19.2317C26.1479 19.2317 28.0767 21.1605 28.0767 23.5398C28.0767 25.9191 26.1479 27.8479 23.7686 27.8479C21.3893 27.8479 19.4604 25.9191 19.4604 23.5398Z" fill="white"/>
<path fill-rule="evenodd" clip-rule="evenodd" d="M14.0764 8.46143C14.0764 7.8666 14.5586 7.3844 15.1535 7.3844H21.9387C25.2751 7.3844 26.478 11.7492 23.544 13.385L11.0453 20.4963C10.1086 21.0167 10.414 22.4628 11.5993 22.4628H17.3075C17.9023 22.4628 18.3846 22.945 18.3846 23.5398C18.3846 24.1346 17.9023 24.6168 17.3075 24.6168H11.5993C8.26298 24.6168 7.06008 20.2521 9.99402 18.6162L22.4927 11.5049C23.4294 10.9845 23.124 9.53845 21.9387 9.53845H15.1535C14.5586 9.53845 14.0764 9.05625 14.0764 8.46143Z" fill="white"/>
<rect x="1.07394" y="0.915732" width="31.1349" height="31.1349" stroke="white" stroke-width="1.83146"/>
</svg>
