<svg width="24" height="25" viewBox="0 0 24 25" fill="none" xmlns="http://www.w3.org/2000/svg">
<mask id="path-2-outside-1_5060_28247" maskUnits="userSpaceOnUse" x="2.10938" y="6.38867" width="13" height="13" fill="black">
<rect fill="white" x="2.10938" y="6.38867" width="13" height="13"/>
<path d="M4.30134 16.065C4.30134 17.1067 5.1458 17.9512 6.1875 17.9512C7.2292 17.9512 8.07366 17.1067 8.07366 16.065C8.07366 15.0233 7.2292 14.1789 6.1875 14.1789C5.1458 14.1789 4.30134 15.0233 4.30134 16.065Z"/>
</mask>
<path d="M6.94196 8.52037L7.49476 8.79676V8.79676L6.94196 8.52037ZM5.81027 10.7838L6.36306 11.0602C6.35599 11.0743 6.34837 11.0882 6.34023 11.1017L5.81027 10.7838ZM3.54688 16.065L3.54687 15.447H3.54688V16.065ZM3.97555 15.447C4.31688 15.447 4.59359 15.7237 4.59359 16.065C4.59359 16.4063 4.31688 16.6831 3.97555 16.6831V15.447ZM8.82813 16.6831C8.48679 16.6831 8.21009 16.4063 8.21009 16.065C8.21009 15.7237 8.48679 15.447 8.82813 15.447V16.6831ZM14.1094 15.447C14.4507 15.447 14.7274 15.7237 14.7274 16.065C14.7274 16.4063 14.4507 16.6831 14.1094 16.6831V15.447ZM8.07366 8.00671C8.03595 8.00671 7.98651 8.01053 7.88584 8.12879C7.76635 8.26916 7.65226 8.48176 7.49476 8.79676L6.38917 8.24397C6.53346 7.95541 6.71086 7.60216 6.9446 7.32757C7.19715 7.03088 7.56267 6.77063 8.07366 6.77063V8.00671ZM7.49476 8.79676L6.36306 11.0602L5.25748 10.5074L6.38917 8.24397L7.49476 8.79676ZM5.81027 10.7838C6.34023 11.1017 6.33996 11.1022 6.33968 11.1027C6.33959 11.1028 6.33931 11.1033 6.33912 11.1036C6.33875 11.1042 6.33836 11.1048 6.33798 11.1055C6.33721 11.1067 6.33641 11.108 6.3356 11.1093C6.33397 11.112 6.33225 11.1147 6.33045 11.1175C6.32685 11.1232 6.3229 11.1292 6.31858 11.1355C6.30994 11.1482 6.29984 11.1623 6.28813 11.1775C6.26469 11.2079 6.23492 11.2426 6.19778 11.2797C6.12304 11.3545 6.02066 11.4368 5.88408 11.5126C5.60833 11.6658 5.21878 11.779 4.67857 11.779V10.543C5.04372 10.543 5.22002 10.4675 5.28378 10.4321C5.31695 10.4137 5.32774 10.4017 5.32374 10.4057C5.32196 10.4075 5.31694 10.4127 5.30942 10.4225C5.30567 10.4273 5.30131 10.4333 5.29643 10.4405C5.29399 10.4441 5.29142 10.448 5.28873 10.4522C5.28738 10.4543 5.28601 10.4565 5.2846 10.4587C5.2839 10.4599 5.28319 10.461 5.28247 10.4622C5.28211 10.4628 5.28175 10.4634 5.28139 10.464C5.28121 10.4643 5.28094 10.4647 5.28085 10.4649C5.28058 10.4653 5.2803 10.4658 5.81027 10.7838ZM4.67857 11.779C4.43916 11.779 4.08214 11.8405 3.8082 11.9983C3.56499 12.1384 3.41045 12.3317 3.41045 12.6699H2.17437C2.17437 11.801 2.64855 11.2398 3.19124 10.9272C3.7032 10.6323 4.28927 10.543 4.67857 10.543V11.779ZM3.41045 12.6699V15.3105H2.17437V12.6699H3.41045ZM3.41045 15.3105C3.41045 15.289 3.40516 15.2889 3.41548 15.3101C3.42541 15.3305 3.44401 15.3582 3.47163 15.3858C3.49925 15.4134 3.52691 15.432 3.54734 15.4419C3.56855 15.4523 3.56847 15.447 3.54687 15.447L3.54688 16.6831C3.1534 16.6831 2.81663 16.4789 2.59759 16.2598C2.37855 16.0408 2.17437 15.704 2.17437 15.3105H3.41045ZM3.54688 15.447H3.97555V16.6831H3.54688V15.447ZM8.82813 15.447H14.1094V16.6831H8.82813V15.447ZM8.07366 6.77063H14.1094V8.00671H8.07366V6.77063ZM5.53742 16.065C5.53742 16.424 5.82847 16.7151 6.1875 16.7151V19.1873C4.46313 19.1873 3.06526 17.7894 3.06526 16.065H5.53742ZM6.1875 16.7151C6.54653 16.7151 6.83758 16.424 6.83758 16.065H9.30974C9.30974 17.7894 7.91187 19.1873 6.1875 19.1873V16.7151ZM6.83758 16.065C6.83758 15.706 6.54653 15.4149 6.1875 15.4149V12.9428C7.91187 12.9428 9.30974 14.3406 9.30974 16.065H6.83758ZM6.1875 15.4149C5.82847 15.4149 5.53742 15.706 5.53742 16.065H3.06526C3.06526 14.3406 4.46313 12.9428 6.1875 12.9428V15.4149Z" fill="#353535" mask="url(#path-2-outside-1_5060_28247)"/>
<mask id="path-4-outside-2_5060_28247" maskUnits="userSpaceOnUse" x="8.89111" y="6.38867" width="13" height="13" fill="black">
<rect fill="white" x="8.89111" y="6.38867" width="13" height="13"/>
<path d="M19.6991 16.065C19.6991 17.1067 18.8547 17.9512 17.813 17.9512C16.7713 17.9512 15.9268 17.1067 15.9268 16.065C15.9268 15.0233 16.7713 14.1789 17.813 14.1789C18.8547 14.1789 19.6991 15.0233 19.6991 16.065Z"/>
</mask>
<path d="M17.0585 8.52037L16.5057 8.79676V8.79676L17.0585 8.52037ZM18.1902 10.7838L17.6374 11.0602C17.6445 11.0743 17.6521 11.0882 17.6603 11.1017L18.1902 10.7838ZM20.4536 16.065L20.4536 15.447H20.4536V16.065ZM20.0249 15.447C19.6836 15.447 19.4069 15.7237 19.4069 16.065C19.4069 16.4063 19.6836 16.6831 20.0249 16.6831V15.447ZM15.1724 16.6831C15.5137 16.6831 15.7904 16.4063 15.7904 16.065C15.7904 15.7237 15.5137 15.447 15.1724 15.447V16.6831ZM9.89111 15.447C9.54978 15.447 9.27307 15.7237 9.27307 16.065C9.27307 16.4063 9.54978 16.6831 9.89111 16.6831V15.447ZM15.9268 8.00671C15.9645 8.00671 16.014 8.01053 16.1146 8.12879C16.2341 8.26916 16.3482 8.48176 16.5057 8.79676L17.6113 8.24397C17.467 7.95541 17.2896 7.60216 17.0559 7.32757C16.8033 7.03088 16.4378 6.77063 15.9268 6.77063V8.00671ZM16.5057 8.79676L17.6374 11.0602L18.743 10.5074L17.6113 8.24397L16.5057 8.79676ZM18.1902 10.7838C17.6603 11.1017 17.6605 11.1022 17.6608 11.1027C17.6609 11.1028 17.6612 11.1033 17.6614 11.1036C17.6617 11.1042 17.6621 11.1048 17.6625 11.1055C17.6633 11.1067 17.6641 11.108 17.6649 11.1093C17.6665 11.112 17.6682 11.1147 17.67 11.1175C17.6736 11.1232 17.6776 11.1292 17.6819 11.1355C17.6905 11.1482 17.7007 11.1623 17.7124 11.1775C17.7358 11.2079 17.7656 11.2426 17.8027 11.2797C17.8774 11.3545 17.9798 11.4368 18.1164 11.5126C18.3922 11.6658 18.7817 11.779 19.3219 11.779V10.543C18.9568 10.543 18.7805 10.4675 18.7167 10.4321C18.6835 10.4137 18.6727 10.4017 18.6768 10.4057C18.6785 10.4075 18.6835 10.4127 18.6911 10.4225C18.6948 10.4273 18.6992 10.4333 18.7041 10.4405C18.7065 10.4441 18.7091 10.448 18.7118 10.4522C18.7131 10.4543 18.7145 10.4565 18.7159 10.4587C18.7166 10.4599 18.7173 10.461 18.718 10.4622C18.7184 10.4628 18.7187 10.4634 18.7191 10.464C18.7193 10.4643 18.7195 10.4647 18.7196 10.4649C18.7199 10.4653 18.7202 10.4658 18.1902 10.7838ZM19.3219 11.779C19.5613 11.779 19.9183 11.8405 20.1923 11.9983C20.4355 12.1384 20.59 12.3317 20.59 12.6699H21.8261C21.8261 11.801 21.3519 11.2398 20.8092 10.9272C20.2973 10.6323 19.7112 10.543 19.3219 10.543V11.779ZM20.59 12.6699V15.3105H21.8261V12.6699H20.59ZM20.59 15.3105C20.59 15.289 20.5953 15.2889 20.585 15.3101C20.5751 15.3305 20.5565 15.3582 20.5289 15.3858C20.5012 15.4134 20.4736 15.432 20.4531 15.4419C20.4319 15.4523 20.432 15.447 20.4536 15.447L20.4536 16.6831C20.8471 16.6831 21.1839 16.4789 21.4029 16.2598C21.6219 16.0408 21.8261 15.704 21.8261 15.3105H20.59ZM20.4536 15.447H20.0249V16.6831H20.4536V15.447ZM15.1724 15.447H9.89111V16.6831H15.1724V15.447ZM15.9268 6.77063H9.89111V8.00671H15.9268V6.77063ZM18.4631 16.065C18.4631 16.424 18.172 16.7151 17.813 16.7151V19.1873C19.5374 19.1873 20.9352 17.7894 20.9352 16.065H18.4631ZM17.813 16.7151C17.454 16.7151 17.1629 16.424 17.1629 16.065H14.6907C14.6907 17.7894 16.0886 19.1873 17.813 19.1873V16.7151ZM17.1629 16.065C17.1629 15.706 17.454 15.4149 17.813 15.4149V12.9428C16.0886 12.9428 14.6907 14.3406 14.6907 16.065H17.1629ZM17.813 15.4149C18.172 15.4149 18.4631 15.706 18.4631 16.065H20.9352C20.9352 14.3406 19.5374 12.9428 17.813 12.9428V15.4149Z" fill="#353535" mask="url(#path-4-outside-2_5060_28247)"/>
<line x1="6.5625" y1="9.35742" x2="3" y2="9.35742" stroke="#353535"/>
<line x1="21" y1="9.35742" x2="17.4375" y2="9.35742" stroke="#353535"/>
<line x1="15.4414" y1="12.7637" x2="8.55859" y2="12.7637" stroke="#353535"/>
<line x1="14.2178" y1="14.1074" x2="9.78223" y2="14.1074" stroke="#353535"/>
<rect x="0.5" y="0.763672" width="23" height="23" stroke="#353535"/>
</svg>
