<svg width="140" height="81" viewBox="0 0 140 81" fill="none" xmlns="http://www.w3.org/2000/svg">
<path d="M132.766 67.0523C133.229 67.3932 133.959 67.5881 134.885 67.5881C135.81 67.5881 136.517 67.4176 137.004 67.0523C137.467 66.6869 137.759 66.1267 137.905 65.3473V65.2012H136.225V65.2986C136.151 65.6883 136.03 65.9806 135.835 66.1511C135.616 66.2972 135.323 66.3703 134.885 66.3703C134.447 66.3703 134.154 66.2972 133.959 66.1511C133.765 66.0049 133.643 65.737 133.57 65.2986V65.2012H131.865V65.3473C132.011 66.1511 132.303 66.7113 132.79 67.0766" fill="white"/>
<path d="M6.40571 77.2567L2.43563 68.1475H0V80.1308H2.16771V72.3367L5.48017 80.1308H7.28253L10.6193 72.3367V80.1308H12.7627V68.1475H10.3271L6.40571 77.2567Z" fill="white"/>
<path d="M20.1669 67.9287C18.3158 67.9287 16.8788 68.5376 15.8314 69.7311C14.8328 70.8758 14.3457 72.3128 14.3457 74.1639C14.3457 76.015 14.8328 77.452 15.8314 78.5724C16.8788 79.7659 18.3401 80.3504 20.1669 80.3504C21.9936 80.3504 23.4306 79.7659 24.5023 78.5968C25.5009 77.4764 26.0124 75.9907 26.0124 74.1639C26.0124 72.3372 25.5009 70.8271 24.5023 69.7067C23.455 68.5133 21.9936 67.9287 20.1669 67.9287ZM22.8948 77.3059C22.2615 78.0609 21.336 78.4263 20.1669 78.4263C18.9978 78.4263 18.0722 78.0366 17.439 77.2572C16.8057 76.4778 16.5134 75.4792 16.5134 74.1639C16.5134 72.8487 16.8057 71.8257 17.439 71.0463C18.0966 70.2426 18.9978 69.8529 20.1669 69.8529C21.336 69.8529 22.2615 70.2182 22.8948 70.9732C23.528 71.7527 23.8447 72.8243 23.8447 74.1639C23.8447 75.5035 23.528 76.5508 22.8948 77.3059Z" fill="white"/>
<path d="M35.9498 75.8932C35.7306 76.7457 35.3409 77.4033 34.805 77.8417C34.2936 78.2314 33.6116 78.4263 32.8322 78.4263C31.59 78.4263 30.6645 78.0366 30.0799 77.2815C29.5441 76.5752 29.2762 75.5279 29.2762 74.1639C29.2762 72.8 29.5441 71.8014 30.1043 71.0707C30.7132 70.2426 31.59 69.8529 32.7835 69.8529C33.6116 69.8529 34.2449 70.0234 34.7563 70.3643C35.2678 70.7053 35.6088 71.2412 35.8037 71.9962V72.0936H37.9227V71.9475C37.7278 70.7297 37.192 69.7554 36.3151 69.0491C35.414 68.3184 34.2448 67.9287 32.8322 67.9287C30.908 67.9287 29.4467 68.562 28.4481 69.8285C27.5712 70.9245 27.1328 72.3859 27.1328 74.1639C27.1328 75.9419 27.5712 77.4277 28.3993 78.475C29.3736 79.7172 30.8837 80.3504 32.8565 80.3504C34.1474 80.3504 35.2678 79.9851 36.1934 79.23C37.192 78.4263 37.8009 77.3546 38.0688 75.9419V75.7958H35.9985V75.8932H35.9498Z" fill="white"/>
<path d="M44.5966 68.1484H39.6035V80.1073H41.7712V75.6014H44.5722C47.495 75.6014 48.9807 74.3349 48.9807 71.8505C48.9807 69.3662 47.495 68.124 44.5966 68.124V68.1484ZM41.7712 69.9995H44.4504C45.2785 69.9995 45.8631 70.1456 46.2284 70.4379C46.5938 70.7058 46.7886 71.1929 46.7886 71.8505C46.7886 72.5082 46.5938 72.9953 46.2528 73.2876C45.8631 73.5798 45.2542 73.726 44.4504 73.726H41.7712V70.0238V69.9995Z" fill="white"/>
<path d="M52.5364 74.9185H58.6986V73.0431H52.5364V70.0229H59.0883V68.1475H50.3931V80.1308H59.3562V78.2553H52.5364V74.9185Z" fill="white"/>
<path d="M73.4582 76.6235C73.3608 77.1593 73.1172 77.5734 72.7519 77.8169C72.4596 77.9631 72.143 78.0605 71.7289 78.0605H71.12V79.8141L66.6628 68.1718H64.3246L59.7456 80.1551H62.0595L63.1311 77.208H67.8806L68.9523 80.1551H72.216C73.2146 80.1551 73.994 79.8872 74.5542 79.3514C75.0901 78.8155 75.4554 77.9874 75.6503 76.8914L76.7463 70.0473H79.8883V80.1308H82.056V68.1475H74.8952L73.5069 76.6235H73.4582ZM67.1986 75.3813H63.7644L65.4937 70.6074L67.1986 75.3813Z" fill="white"/>
<path d="M92.4326 75.8932C92.2134 76.7457 91.8237 77.4033 91.2878 77.8417C90.7764 78.2314 90.0944 78.4263 89.315 78.4263C88.0728 78.4263 87.1473 78.0366 86.5627 77.2815C86.0269 76.5752 85.759 75.5279 85.759 74.1639C85.759 72.8 86.0269 71.8014 86.5871 71.0707C87.196 70.2426 88.0728 69.8529 89.2663 69.8529C90.0944 69.8529 90.7276 70.0234 91.2148 70.3643C91.7263 70.7053 92.0672 71.2412 92.2621 71.9962V72.0936H94.3811V71.9475C94.1862 70.7297 93.6504 69.7554 92.7736 69.0491C91.8724 68.3184 90.7033 67.9287 89.2663 67.9287C87.3665 67.9287 85.8807 68.562 84.8821 69.8285C84.0053 70.9245 83.5669 72.3859 83.5669 74.1639C83.5669 75.9419 84.0053 77.4277 84.8334 78.475C85.8077 79.7172 87.3178 80.3504 89.2906 80.3504C90.5815 80.3504 91.7019 79.9851 92.6274 79.23C93.626 78.4263 94.2349 77.3546 94.5029 75.9419V75.7958H92.4326V75.8932Z" fill="white"/>
<path d="M95.209 70.0229H99.0573V80.1308H101.201V70.0229H105.049V68.1475H95.209V70.0229Z" fill="white"/>
<path d="M111.211 68.1484H106.218V80.1073H108.385V75.6014H111.186C114.109 75.6014 115.595 74.3349 115.595 71.8505C115.595 69.3662 114.109 68.124 111.211 68.124V68.1484ZM108.385 69.9995H111.065C111.893 69.9995 112.477 70.1456 112.843 70.4379C113.208 70.7058 113.403 71.1929 113.403 71.8505C113.403 72.5082 113.208 72.9953 112.867 73.2876C112.477 73.5798 111.868 73.726 111.065 73.726H108.385V70.0238V69.9995Z" fill="white"/>
<path d="M122.317 67.9287C120.466 67.9287 119.005 68.5376 117.982 69.731C116.983 70.8758 116.496 72.3128 116.496 74.1639C116.496 76.0149 117.008 77.452 117.982 78.5724C119.029 79.7658 120.491 80.3504 122.317 80.3504C124.144 80.3504 125.581 79.7658 126.653 78.5724C127.651 77.452 128.163 75.9662 128.163 74.1395C128.163 72.3128 127.651 70.8027 126.653 69.6823C125.605 68.4889 124.144 67.9043 122.317 67.9043V67.9287ZM122.317 69.8284C123.511 69.8284 124.412 70.1938 125.045 70.9488C125.678 71.7282 125.995 72.7999 125.995 74.1152C125.995 75.4304 125.678 76.5021 125.045 77.2571C124.412 78.0122 123.486 78.3775 122.317 78.3775C121.148 78.3775 120.223 77.9878 119.589 77.2084C118.956 76.429 118.664 75.4304 118.664 74.1152C118.664 72.7999 118.956 71.7769 119.589 70.9975C120.247 70.1938 121.148 69.8041 122.317 69.8041" fill="white"/>
<path d="M137.637 68.1475L131.889 76.5747V68.1475H129.722V80.1308H131.841L137.516 71.8253V80.1308H139.683V68.1475H137.637Z" fill="white"/>
<path d="M21.506 46.0335H20.483V43.2812H19.7036L20.069 42.4531H21.506V46.0335Z" fill="white"/>
<path d="M23.5515 44.8154C23.4298 44.8641 23.2836 44.8885 23.1131 44.8885C22.8208 44.8885 22.5529 44.791 22.3337 44.5475C22.1145 44.3283 22.0171 44.036 22.0171 43.695C22.0171 43.281 22.1632 42.94 22.4555 42.6964C22.7478 42.4528 23.0888 42.3311 23.5272 42.3311C23.9656 42.3311 24.3066 42.4528 24.5745 42.6964C24.8668 42.94 25.0129 43.2566 25.0129 43.6707C25.0129 43.8411 24.9886 43.9873 24.9398 44.1578C24.8911 44.3283 24.8181 44.4988 24.7206 44.6936C24.6232 44.8641 24.5014 45.059 24.3553 45.2782L23.8195 46.0089H22.5773L23.1131 45.3756C23.308 45.132 23.4785 44.9372 23.6002 44.791L23.5515 44.8154ZM23.5028 44.1821C23.649 44.1821 23.7707 44.1334 23.8438 44.036C23.9412 43.9386 23.9656 43.8168 23.9656 43.6707C23.9656 43.5245 23.9169 43.4027 23.8195 43.3053C23.722 43.2079 23.6002 43.1835 23.4541 43.1835C23.308 43.1835 23.2105 43.2322 23.1131 43.3053C23.0157 43.4027 22.967 43.5002 22.967 43.6463C22.967 43.7924 23.0157 43.9142 23.1131 44.0116C23.2105 44.1091 23.308 44.1578 23.4541 44.1578L23.5028 44.1821Z" fill="white"/>
<path d="M26.8157 44.8154C26.6939 44.8641 26.5478 44.8885 26.3773 44.8885C26.085 44.8885 25.8171 44.791 25.5979 44.5475C25.3787 44.3283 25.2812 44.036 25.2812 43.695C25.2812 43.281 25.4274 42.94 25.7197 42.6964C26.0119 42.4528 26.3529 42.3311 26.7913 42.3311C27.2298 42.3311 27.5707 42.4528 27.8387 42.6964C28.1309 42.94 28.2527 43.2566 28.2527 43.6707C28.2527 43.8411 28.2527 43.9873 28.1796 44.1578C28.1309 44.3283 28.0579 44.4988 27.9604 44.6936C27.863 44.8641 27.7412 45.059 27.5951 45.2782L27.0593 46.0089H25.8171L26.3529 45.3756C26.5478 45.132 26.7183 44.9372 26.8401 44.791L26.8157 44.8154ZM26.767 44.1821C26.9131 44.1821 27.0349 44.1334 27.108 44.036C27.2054 43.9386 27.2298 43.8168 27.2298 43.6707C27.2298 43.5245 27.181 43.4027 27.0836 43.3053C26.9862 43.2079 26.8644 43.1835 26.7426 43.1835C26.6208 43.1835 26.4991 43.2322 26.4016 43.3053C26.3042 43.4027 26.2555 43.5002 26.2555 43.6463C26.2555 43.7924 26.3042 43.9142 26.4016 44.0116C26.4991 44.1091 26.5965 44.1578 26.767 44.1578V44.1821Z" fill="white"/>
<path d="M30.8833 44.1334C31.273 44.3282 31.4922 44.6448 31.4922 45.0833C31.4922 45.3025 31.4191 45.4973 31.2974 45.6435C31.1756 45.8139 31.0051 45.9357 30.7859 46.0088C30.5667 46.0819 30.3231 46.1306 30.0552 46.1306C29.6411 46.1306 29.3001 46.0332 29.0322 45.8383C28.7643 45.6435 28.6182 45.3999 28.6182 45.0589C28.6182 44.6205 28.813 44.3282 29.2027 44.109C28.8617 43.9385 28.6669 43.6706 28.6669 43.3052C28.6669 42.9886 28.813 42.7451 29.0566 42.5746C29.3245 42.4041 29.6411 42.3066 30.0308 42.3066C30.4205 42.3066 30.7615 42.4041 31.0294 42.5746C31.273 42.7451 31.4191 42.9886 31.4191 43.3052C31.4191 43.6706 31.2486 43.9385 30.8833 44.109V44.1334ZM30.0308 45.3755C30.0308 45.3755 30.25 45.3268 30.3475 45.2538C30.4449 45.1807 30.4692 45.0589 30.4692 44.9371C30.4692 44.8153 30.4205 44.7179 30.3475 44.6205C30.25 44.5474 30.1526 44.4987 30.0308 44.4987C29.909 44.4987 29.8116 44.5474 29.7142 44.6205C29.6168 44.6936 29.5924 44.791 29.5924 44.9371C29.5924 45.0833 29.6411 45.1563 29.7142 45.2538C29.8116 45.3268 29.909 45.3755 30.0308 45.3755ZM30.0308 43.7924C30.0308 43.7924 30.2257 43.768 30.2987 43.6949C30.3718 43.6219 30.4205 43.5488 30.4205 43.4514C30.4205 43.354 30.3718 43.2565 30.2987 43.2078C30.2257 43.1348 30.1283 43.1104 30.0308 43.1104C29.9334 43.1104 29.836 43.1348 29.7629 43.2078C29.6898 43.2809 29.6411 43.354 29.6411 43.4514C29.6411 43.5488 29.6898 43.6462 29.7629 43.6949C29.836 43.7437 29.9334 43.7924 30.0308 43.7924Z" fill="white"/>
<path d="M49.467 0C49.1016 0 40.6987 0 40.5282 0C34.5122 0.146138 28.9833 2.92276 25.2568 7.64788C21.4329 2.77662 15.7092 0 9.4983 0H0.340332V3.99443H9.52266C15.0515 3.99443 20.1176 6.79541 23.0648 11.4718C23.8685 12.7383 24.5018 14.1267 24.9158 15.5637L25.2568 16.7328L25.5978 15.5637C26.0119 14.1267 26.6451 12.7383 27.4489 11.4718C30.4204 6.79541 35.4865 3.99443 40.991 3.99443H45.8135V26.6701H49.808V0H49.467Z" fill="white"/>
<path d="M40.65 29.2275C35.5108 29.2275 31.3215 25.0382 31.3215 19.8991C31.3215 14.7599 35.5108 10.5706 40.65 10.5706H43.2318V6.57617H40.65C33.2944 6.57617 27.3271 12.5678 27.3271 19.8991C27.3271 27.2303 33.3188 33.222 40.65 33.222H45.9353V42.2825C45.9353 44.9617 45.0829 49.4676 39.3591 49.4676H33.3188C29.5192 49.4676 26.7669 50.8803 25.0863 52.1468C23.4057 50.8803 20.6535 49.4676 16.8539 49.4676H10.8135C5.11417 49.4676 4.23734 44.9617 4.23734 42.2825V10.5706H9.4983C14.6375 10.5706 18.8268 14.7599 18.8268 19.8991C18.8268 25.0382 14.6375 29.2275 9.4983 29.2275H6.79475V33.222H9.4983C16.8539 33.222 22.8212 27.2547 22.8212 19.8991C22.8212 12.5435 16.8539 6.57617 9.4983 6.57617H0.340332V42.2825C0.340332 50.4419 5.72307 53.3646 10.7892 53.3646H16.8295C21.2137 53.3646 23.5032 55.8977 23.6006 55.9951L25.062 57.7L26.5234 55.9951C26.5234 55.9951 28.9103 53.3646 33.2944 53.3646H39.3348C44.3765 53.3646 49.7836 50.4419 49.7836 42.2825V29.2275H40.6257H40.65Z" fill="white"/>
</svg>
