<svg width="25" height="25" viewBox="0 0 25 25" fill="none" xmlns="http://www.w3.org/2000/svg">
<path fill-rule="evenodd" clip-rule="evenodd" d="M11.25 4.396C11.25 3.98178 11.5858 3.646 12 3.646H22C22.4142 3.646 22.75 3.98178 22.75 4.396C22.75 4.81021 22.4142 5.146 22 5.146H12C11.5858 5.146 11.25 4.81021 11.25 4.396Z" fill="#009640"/>
<path fill-rule="evenodd" clip-rule="evenodd" d="M2.96967 16.3657C3.26256 16.0728 3.73744 16.0728 4.03033 16.3657L8.03033 20.3657C8.32322 20.6586 8.32322 21.1334 8.03033 21.4263C7.73744 21.7192 7.26256 21.7192 6.96967 21.4263L2.96967 17.4263C2.67678 17.1334 2.67678 16.6586 2.96967 16.3657Z" fill="#009640"/>
<path fill-rule="evenodd" clip-rule="evenodd" d="M7.5 3.146C7.91421 3.146 8.25 3.48178 8.25 3.896V20.896C8.25 21.3102 7.91421 21.646 7.5 21.646C7.08579 21.646 6.75 21.3102 6.75 20.896V3.896C6.75 3.48178 7.08579 3.146 7.5 3.146Z" fill="#009640"/>
<path fill-rule="evenodd" clip-rule="evenodd" d="M11.25 9.396C11.25 8.98178 11.5858 8.646 12 8.646H20C20.4142 8.646 20.75 8.98178 20.75 9.396C20.75 9.81021 20.4142 10.146 20 10.146H12C11.5858 10.146 11.25 9.81021 11.25 9.396Z" fill="#009640"/>
<path fill-rule="evenodd" clip-rule="evenodd" d="M11.25 14.396C11.25 13.9818 11.5858 13.646 12 13.646H18C18.4142 13.646 18.75 13.9818 18.75 14.396C18.75 14.8102 18.4142 15.146 18 15.146H12C11.5858 15.146 11.25 14.8102 11.25 14.396Z" fill="#009640"/>
<path fill-rule="evenodd" clip-rule="evenodd" d="M11.25 19.396C11.25 18.9818 11.5858 18.646 12 18.646H16C16.4142 18.646 16.75 18.9818 16.75 19.396C16.75 19.8102 16.4142 20.146 16 20.146H12C11.5858 20.146 11.25 19.8102 11.25 19.396Z" fill="#009640"/>
</svg>
