<svg width="21" height="21" viewBox="0 0 21 21" fill="none" xmlns="http://www.w3.org/2000/svg">
<path d="M16.7818 11.5489C17.4027 9.70179 17.328 7.69155 16.5718 5.89557C15.8156 4.09959 14.4299 2.64137 12.6748 1.79465C10.9197 0.947933 8.91584 0.770944 7.03947 1.29691C5.16311 1.82287 3.54324 3.01562 2.48394 4.65125C1.42465 6.28688 0.998777 8.25291 1.28627 10.1803C1.57377 12.1076 2.55487 13.8638 4.04539 15.1191C5.53591 16.3744 7.43336 17.0424 9.38154 16.9979C11.3297 16.9534 13.1947 16.1993 14.6263 14.8772" stroke="white" stroke-width="1.5" stroke-linecap="round" stroke-linejoin="round"/>
<path d="M6.19873 9H12.1987" stroke="white" stroke-width="1.5" stroke-linecap="round" stroke-linejoin="round"/>
<path d="M9.19873 6L9.19873 12" stroke="white" stroke-width="1.5" stroke-linecap="round" stroke-linejoin="round"/>
<path d="M14.6987 14.958L19.6987 19.958" stroke="white" stroke-width="1.5" stroke-linecap="round" stroke-linejoin="round"/>
</svg>
