<svg width="29" height="29" viewBox="0 0 29 29" fill="none" xmlns="http://www.w3.org/2000/svg">
<rect x="0.762207" y="0.45401" width="28" height="28" fill="#009640"/>
<g clip-path="url(#clip0_3546_24909)">
<rect width="24" height="24" transform="translate(2.76221 2.45401)" fill="#009640"/>
<path d="M11.2622 5.48539H12.0122V4.73541L11.2622 4.73539L11.2622 5.48539ZM8.57471 5.48532L8.57473 4.73532L8.18422 4.73531L7.96028 5.05522L8.57471 5.48532ZM5.13721 10.4853L4.5166 10.0642C4.28762 10.4016 4.37023 10.8602 4.70256 11.0965L5.13721 10.4853ZM7.94971 12.4853H8.69971V12.0984L8.38435 11.8741L7.94971 12.4853ZM7.94971 23.4228H7.19971V24.1728H7.94971V23.4228ZM18.2622 5.48539L18.2622 4.73539L17.5122 4.73541V5.48539H18.2622ZM20.9497 5.48532L21.5641 5.05522L21.3402 4.73531L20.9497 4.73532L20.9497 5.48532ZM24.3872 10.4853L24.8218 11.0965C25.1542 10.8602 25.2368 10.4016 25.0078 10.0642L24.3872 10.4853ZM21.5747 12.4853L21.1401 11.8741L20.8247 12.0984V12.4853H21.5747ZM21.5747 23.4228V24.1728H22.3247V23.4228H21.5747ZM8.69971 19.8291C8.69971 19.4149 8.36392 19.0791 7.94971 19.0791C7.53549 19.0791 7.19971 19.4149 7.19971 19.8291H8.69971ZM7.19971 15.6728C7.19971 16.087 7.53549 16.4228 7.94971 16.4228C8.36392 16.4228 8.69971 16.087 8.69971 15.6728H7.19971ZM11.2622 4.73539L8.57473 4.73532L8.57469 6.23532L11.2622 6.23539L11.2622 4.73539ZM5.75781 10.9064C6.94456 9.15756 7.87971 7.78602 9.18913 5.91542L7.96028 5.05522C6.64471 6.93462 5.70486 8.31308 4.5166 10.0642L5.75781 10.9064ZM4.70256 11.0965L7.51506 13.0965L8.38435 11.8741L5.57185 9.87411L4.70256 11.0965ZM7.94971 24.1728H14.0747V22.6728H7.94971V24.1728ZM17.5122 5.48539C17.5122 6.71941 16.3632 7.86039 14.7622 7.86039V9.36039C17.0272 9.36039 19.0122 7.70316 19.0122 5.48539H17.5122ZM14.7622 7.86039C13.1612 7.86039 12.0122 6.71941 12.0122 5.48539H10.5122C10.5122 7.70316 12.4972 9.36039 14.7622 9.36039V7.86039ZM18.2622 6.23539L20.9497 6.23532L20.9497 4.73532L18.2622 4.73539L18.2622 6.23539ZM25.0078 10.0642C23.8196 8.31308 22.8797 6.93462 21.5641 5.05522L20.3353 5.91542C21.6447 7.78602 22.5799 9.15756 23.7666 10.9064L25.0078 10.0642ZM23.9526 9.87411L21.1401 11.8741L22.0093 13.0965L24.8218 11.0965L23.9526 9.87411ZM20.8247 12.4853V23.4228H22.3247V12.4853H20.8247ZM21.5747 22.6728H14.0747V24.1728H21.5747V22.6728ZM7.19971 19.8291V23.4228H8.69971V19.8291H7.19971ZM7.19971 12.4853V15.6728H8.69971V12.4853H7.19971Z" fill="#FFED00"/>
</g>
<defs>
<clipPath id="clip0_3546_24909">
<rect width="24" height="24" fill="white" transform="translate(2.76221 2.45401)"/>
</clipPath>
</defs>
</svg>
