<svg width="29" height="29" viewBox="0 0 29 29" fill="none" xmlns="http://www.w3.org/2000/svg">
<rect x="0.887207" y="0.412354" width="28" height="28" fill="#009640"/>
<g clip-path="url(#clip0_3546_24900)">
<rect width="24" height="24" transform="translate(2.88721 2.41235)" fill="#009640"/>
<path d="M7.41273 21.0571C7.58723 21.2538 7.76975 21.4438 7.95996 21.6268C9.13736 22.7594 10.6094 23.6188 12.299 24.0715C17.6337 25.5009 23.1171 22.3351 24.5465 17.0004C25.9759 11.6658 22.8101 6.1824 17.4754 4.75299C12.1408 3.32357 6.65739 6.48939 5.22797 11.8241C4.77367 13.5195 4.78354 15.23 5.17968 16.8206C5.24209 17.0712 5.31409 17.3188 5.39537 17.5629" stroke="#FFED00" stroke-width="1.5" stroke-linecap="round"/>
<path d="M20.4857 10.5364C20.6594 10.1604 20.4955 9.71476 20.1195 9.54099C19.7435 9.36722 19.2978 9.53116 19.1241 9.90717L20.4857 10.5364ZM22.4122 21.018C20.6988 19.3384 19.6372 16.9999 19.6372 14.4122H18.1372C18.1372 17.4192 19.3728 20.139 21.3622 22.0892L22.4122 21.018ZM19.1241 9.90717C18.4904 11.2783 18.1372 12.805 18.1372 14.4122H19.6372C19.6372 13.0267 19.9413 11.7144 20.4857 10.5364L19.1241 9.90717Z" fill="#FFED00"/>
<path d="M10.4366 19.2626C10.2432 19.6289 9.78945 19.769 9.42318 19.5755C9.05691 19.3821 8.91681 18.9284 9.11025 18.5621L10.4366 19.2626ZM8.40686 6.87156C10.3976 8.78442 11.6372 11.4556 11.6372 14.4124H10.1372C10.1372 11.8851 9.07958 9.59824 7.36755 7.95315L8.40686 6.87156ZM9.11025 18.5621C9.76658 17.3194 10.1372 15.9091 10.1372 14.4124H11.6372C11.6372 16.16 11.2038 17.8101 10.4366 19.2626L9.11025 18.5621Z" fill="#FFED00"/>
<path d="M14.8872 4.41235V24.4124" stroke="#FFED00" stroke-width="1.5" stroke-linecap="round"/>
<path d="M24.8872 14.4124L4.88721 14.4124" stroke="#FFED00" stroke-width="1.5" stroke-linecap="round"/>
</g>
<defs>
<clipPath id="clip0_3546_24900">
<rect width="24" height="24" fill="white" transform="translate(2.88721 2.41235)"/>
</clipPath>
</defs>
</svg>
