<svg width="161" height="137" viewBox="0 0 161 137" fill="none" xmlns="http://www.w3.org/2000/svg">
<path d="M23.4091 35.1713L32.4866 87.5176C32.6668 88.5613 33.0949 89.5465 33.7349 90.3903C34.3749 91.2342 35.2082 91.9121 36.1646 92.3671C37.121 92.8221 38.1727 93.0409 39.2312 93.005C40.2897 92.9691 41.3242 92.6797 42.2476 92.161C44.4303 90.9327 46.9791 90.5223 49.437 91.0034L61.6073 93.3742C63.3379 93.7165 65.1252 93.6417 66.8211 93.1558C68.5171 92.67 70.0729 91.7872 71.3598 90.5805L88.0496 74.8603C89.421 73.5705 91.0429 72.5765 92.8147 71.9401C94.5865 71.3037 96.4702 71.0385 98.3488 71.161L152.28 74.651C154.226 74.779 156.154 74.2019 157.709 73.0252C159.265 71.8485 160.345 70.151 160.751 68.2433L160.824 67.9059C161.247 65.9567 160.901 63.9192 159.856 62.22C158.811 60.5207 157.15 59.2916 155.219 58.7899L32.4866 26.8413C31.3006 26.5293 30.0552 26.5201 28.8647 26.8147C27.6742 27.1094 26.5768 27.6983 25.6732 28.5275C24.7696 29.3567 24.0887 30.3996 23.6931 31.5604C23.2975 32.7213 23.1999 33.9629 23.4091 35.1713Z" fill="#F1F2F3"/>
<path d="M157.078 83.643L154.515 78.2478C154.372 77.948 154.147 77.6952 153.865 77.5189C153.584 77.3426 153.258 77.2502 152.926 77.2525L92.0188 77.6797C91.691 77.6818 91.3672 77.7519 91.0679 77.8858C90.7686 78.0196 90.5004 78.2142 90.2802 78.4571L73.0266 97.4238C72.7438 97.7347 72.3997 97.9838 72.0159 98.1551C71.6321 98.3264 71.2169 98.4163 70.7967 98.4191L48.9679 98.5387C48.4813 98.539 48.0051 98.6799 47.5967 98.9445L37.2718 105.621C36.9179 105.85 36.6359 106.175 36.4583 106.557C36.2807 106.94 36.2147 107.365 36.2679 107.783L39.1599 130.62C39.2172 131.065 39.435 131.474 39.7724 131.769C40.1099 132.065 40.5438 132.228 40.9925 132.226L60.5999 132.17C61.0447 132.169 61.4831 132.065 61.8815 131.867L156.518 85.2578C156.805 85.1161 157.024 84.8672 157.129 84.5651C157.234 84.263 157.215 83.9317 157.078 83.643Z" fill="white" stroke="#353535" stroke-width="0.752952" stroke-miterlimit="10"/>
<path d="M104.524 85.1752L89.6304 92.4971C88.4808 93.0623 88.007 94.4525 88.5722 95.6021L96.2014 111.12C96.7666 112.27 98.1567 112.744 99.3064 112.179L114.2 104.857C115.349 104.291 115.823 102.901 115.258 101.752L107.629 86.2334C107.064 85.0838 105.673 84.61 104.524 85.1752Z" fill="#F1F2F3" stroke="#CFCFCE" stroke-width="0.451771" stroke-miterlimit="10"/>
<path d="M68.5238 99.651L51.928 99.6741C50.6469 99.6759 49.6098 100.716 49.6116 101.997L49.6361 119.533C49.6379 120.814 50.6779 121.851 51.9589 121.849L68.5548 121.826C69.8358 121.824 70.8729 120.784 70.8711 119.503L70.8466 101.967C70.8448 100.686 69.8049 99.6492 68.5238 99.651Z" fill="#EB2027"/>
<path d="M56.374 114.25L59.5351 106.723H60.68L63.8625 114.246H62.457L61.671 112.324H58.4715L57.6897 114.25H56.374ZM60.0777 108.415L58.9713 111.085H61.1627L60.0777 108.415Z" fill="white"/>
<path d="M101.877 103.156L98.5664 96.424L102.496 94.4889L103.043 95.5953L100.292 96.9494L101.031 98.4488C101.303 98.2603 101.589 98.0919 101.886 97.9448C102.471 97.6107 103.162 97.5144 103.816 97.6756C104.111 97.7627 104.383 97.9134 104.614 98.1171C104.844 98.3208 105.027 98.5726 105.149 98.8547C105.315 99.1499 105.412 99.4789 105.433 99.817C105.454 100.155 105.398 100.494 105.269 100.807C104.923 101.493 104.34 102.032 103.628 102.323C103.342 102.464 103.001 102.627 102.608 102.802C102.215 102.977 101.98 103.109 101.877 103.156ZM102.351 99.0982C102.083 99.2346 101.823 99.3872 101.574 99.5552L102.514 101.469L103.274 101.149C104.103 100.741 104.352 100.205 104.021 99.5381C103.961 99.3984 103.871 99.2732 103.759 99.1708C103.646 99.0685 103.513 98.9912 103.368 98.9443C103.022 98.8679 102.659 98.9227 102.351 99.0982Z" fill="#606161"/>
<path d="M7.62109 49.6312L12.32 48.8538L12.461 49.7081L9.68863 52.096L9.62882 51.7543L13.0121 53.0358L13.1488 53.8688L8.44982 54.6505L8.30884 53.7962L11.8886 53.2152L11.8544 53.3861L9.06068 52.284L8.95816 51.6688L11.2436 49.6867L11.3247 49.8234L7.75352 50.4258L7.62109 49.6312Z" fill="#818181"/>
<path d="M8.65039 55.8467L13.3707 55.0649L13.5117 55.9193L10.2053 56.4661L13.879 58.1278L14.02 58.9821L9.32105 59.7639L9.17581 58.9095L12.5121 58.3585L8.80844 56.6925L8.65039 55.8467Z" fill="#818181"/>
<path d="M9.93652 63.6124L11.8161 63.3049C11.7339 63.1251 11.6612 62.9412 11.5983 62.7538C11.5329 62.5616 11.4829 62.3645 11.4487 62.1643C11.3876 61.8444 11.3964 61.5151 11.4744 61.1989C11.5524 60.9236 11.7172 60.6809 11.9443 60.5069C12.2303 60.3042 12.5619 60.1751 12.9097 60.1309L14.1912 59.9216L14.3365 60.8016L13.1959 60.9896C13.0433 60.9978 12.894 61.0373 12.7573 61.1057C12.6207 61.174 12.4995 61.2697 12.4013 61.3868C12.2624 61.6255 12.2196 61.9081 12.2817 62.1771C12.311 62.3609 12.3538 62.5422 12.4099 62.7196C12.4583 62.8734 12.5138 63.0272 12.5765 63.181L14.6739 62.835L14.8149 63.6893L10.1159 64.4711L9.93652 63.6124Z" fill="#818181"/>
<path d="M10.2129 65.8296L10.9605 65.3683C11.0593 65.6145 11.1915 65.8459 11.3535 66.056C11.5192 66.2542 11.717 66.4232 11.9387 66.5558C12.2086 66.7059 12.4954 66.8235 12.793 66.9061L15.4672 67.6964L15.6338 68.7088L12.5965 67.7434C12.2837 67.6472 11.9782 67.5287 11.6824 67.3888C11.4419 67.2726 11.2154 67.1293 11.0074 66.9617C10.8254 66.813 10.6657 66.6389 10.5333 66.4448C10.4027 66.253 10.2952 66.0465 10.2129 65.8296ZM11.943 66.9061L14.9332 64.5566L15.1126 65.6203L12.793 67.3675L11.943 66.9061Z" fill="#818181"/>
<path d="M11.0029 70.0674L15.7232 69.2856L16.0137 71.0584C16.0702 71.3672 16.0615 71.6845 15.9881 71.9897C15.9143 72.2599 15.7664 72.5041 15.5609 72.6945C15.3474 72.8868 15.081 73.0103 14.7963 73.0491C14.5104 73.1076 14.2138 73.0824 13.9419 72.9765C13.6918 72.8696 13.4813 72.6875 13.3396 72.4553C13.1666 72.1722 13.0533 71.8568 13.0064 71.5283L12.8612 70.674L11.1183 70.9602L11.0029 70.0674ZM13.6386 70.533L13.7796 71.3874C13.8056 71.6219 13.9059 71.8419 14.0658 72.0153C14.1435 72.0864 14.2376 72.1373 14.3397 72.1634C14.4418 72.1894 14.5487 72.1899 14.651 72.1648C14.7573 72.1539 14.8595 72.118 14.9493 72.0601C15.0392 72.0022 15.114 71.9239 15.1679 71.8316C15.2713 71.621 15.2999 71.3815 15.2491 71.1524L15.1038 70.2981L13.6386 70.533Z" fill="#818181"/>
<path d="M11.7168 74.3945L16.4371 73.6128L16.5823 74.4671L13.2632 75.031L16.9369 76.6927L17.0779 77.5471L12.3789 78.3246L12.2337 77.4702L15.5699 76.9191L11.8663 75.2532L11.7168 74.3945Z" fill="#818181"/>
<path d="M12.5674 79.5206L17.2877 78.7389L17.4329 79.5932L15.5961 79.9008L15.9549 82.0367L17.7875 81.7291L17.9327 82.6091L13.2124 83.3866L13.0672 82.5109L15.1518 82.1691L14.7972 80.0333L12.7126 80.375L12.5674 79.5206Z" fill="#818181"/>
<path d="M13.6655 86.7869C13.5813 86.3408 13.6121 85.8806 13.7552 85.4498C13.892 85.0538 14.1396 84.7053 14.4686 84.4459C14.7913 84.2096 15.1595 84.0428 15.5499 83.9561C15.9404 83.8693 16.3445 83.8645 16.7369 83.9419C17.0454 84.0092 17.3364 84.1401 17.5913 84.3263C17.8502 84.5122 18.0683 84.7492 18.2321 85.0226C18.4085 85.3176 18.526 85.644 18.5781 85.9838C18.6313 86.3063 18.6313 86.6353 18.5781 86.9577C18.53 87.2273 18.4346 87.4862 18.2961 87.7224L17.5358 87.3935C17.6487 87.2264 17.7244 87.037 17.7579 86.8381C17.7941 86.6218 17.7941 86.4009 17.7579 86.1845C17.7256 85.9547 17.6503 85.7329 17.5358 85.531C17.4358 85.352 17.2974 85.1975 17.1304 85.0785C16.9634 84.9596 16.7721 84.8792 16.5703 84.8432C16.3431 84.8004 16.1098 84.8004 15.8826 84.8432C15.5799 84.8828 15.2928 85.0006 15.0496 85.185C14.8332 85.352 14.6735 85.5817 14.5925 85.8428C14.5026 86.1362 14.4865 86.4473 14.5455 86.7484C14.5803 86.9738 14.6525 87.1918 14.7591 87.3935C14.8672 87.6051 15.0118 87.796 15.1863 87.9573L14.5156 88.4828C14.2963 88.2779 14.1142 88.0365 13.9774 87.7694C13.8235 87.4599 13.7184 87.1285 13.6655 86.7869Z" fill="#818181"/>
<path d="M14.1865 89.3158L18.8855 88.5341L19.0307 89.4098L17.1981 89.7131L17.3434 90.5931L16.5403 90.7255L16.395 89.8455L14.3104 90.1915L14.1865 89.3158ZM14.6692 92.2334L16.8051 89.901L19.334 91.2466L19.5134 92.3317L16.9845 90.969L14.8486 93.3612L14.6692 92.2334Z" fill="#818181"/>
<path d="M14.9717 94.0874L19.692 93.3057L19.8372 94.16L16.5309 94.7111L20.2046 96.3728L20.3456 97.2271L15.6466 98.0089L15.5014 97.1545L18.8376 96.6035L15.134 94.9375L14.9717 94.0874Z" fill="#818181"/>
<path d="M15.8271 99.2136L20.5475 98.4319L20.6927 99.2862L17.3821 99.833L21.0558 101.499L21.1968 102.353L16.4765 103.135L16.3355 102.281L19.6675 101.73L15.9681 100.064L15.8271 99.2136ZM21.4104 100.311C21.3667 100.075 21.3828 99.8311 21.4573 99.6023C21.5213 99.3962 21.6446 99.2134 21.8119 99.0769C21.989 98.9357 22.2021 98.8469 22.427 98.8206L22.5424 99.534C22.3767 99.5501 22.2236 99.6297 22.1152 99.7561C22.0224 99.8887 21.9853 100.052 22.0116 100.212C22.0379 100.372 22.1257 100.515 22.2562 100.61C22.4057 100.694 22.5822 100.716 22.7474 100.67L22.867 101.388C22.6472 101.432 22.4195 101.414 22.2092 101.337C22.005 101.26 21.827 101.127 21.6966 100.952C21.5482 100.766 21.4497 100.546 21.4104 100.311Z" fill="#818181"/>
<path d="M16.9414 105.959L21.6617 105.181L22.3068 109.077L17.5864 109.859L17.4412 108.983L21.3798 108.325L21.0252 106.189L17.108 106.839L16.9414 105.959Z" fill="#818181"/>
<path d="M17.7822 111.046L22.5025 110.269L22.7973 112.037C22.8546 112.346 22.8444 112.664 22.7674 112.969C22.7018 113.237 22.561 113.482 22.3616 113.674C22.1481 113.866 21.8816 113.989 21.5969 114.028C21.3112 114.089 21.0139 114.064 20.7426 113.955C20.4935 113.849 20.2832 113.669 20.1403 113.439C19.9655 113.155 19.852 112.838 19.8071 112.507L19.6618 111.653L17.9147 111.943L17.7822 111.046ZM20.4222 111.512L20.5632 112.366C20.5883 112.601 20.6887 112.821 20.8494 112.994C20.9281 113.064 21.0224 113.113 21.1242 113.138C21.2261 113.164 21.3326 113.164 21.4346 113.14C21.5409 113.129 21.6431 113.093 21.7329 113.035C21.8227 112.977 21.8976 112.899 21.9515 112.806C22.0529 112.595 22.0814 112.356 22.0326 112.127L21.8874 111.251L20.4222 111.512Z" fill="#818181"/>
<path d="M19.9873 114.904L20.7391 114.78L21.051 116.655L20.2991 116.779L19.9873 114.904Z" fill="#818181"/>
<path d="M19.0049 118.411L22.9221 117.762L22.7042 116.442L23.5073 116.309L24.084 119.799L23.2809 119.932L23.0673 118.624L19.1501 119.274L19.0049 118.411Z" fill="#818181"/>
<path d="M71.4758 64.9752C71.4699 65.4322 71.5997 65.8807 71.8487 66.264C72.0977 66.6472 72.4548 66.9481 72.8747 67.1284C73.2947 67.3087 73.7588 67.3605 74.2082 67.2771C74.6576 67.1938 75.0721 66.979 75.3995 66.66C75.7268 66.3411 75.9522 65.9321 76.0472 65.4851C76.1422 65.038 76.1024 64.5728 75.933 64.1483C75.7636 63.7238 75.4721 63.359 75.0954 63.1002C74.7187 62.8413 74.2737 62.7 73.8167 62.694C73.5132 62.6901 73.2119 62.746 72.93 62.8585C72.6481 62.971 72.3911 63.1379 72.1737 63.3497C71.9564 63.5616 71.7828 63.8141 71.6631 64.093C71.5433 64.3719 71.4797 64.6717 71.4758 64.9752Z" fill="#FBED21"/>
<path d="M76.593 65.1161C76.5871 65.5733 76.7169 66.022 76.9661 66.4054C77.2153 66.7887 77.5727 67.0896 77.9929 67.2698C78.4131 67.45 78.8774 67.5015 79.3269 67.4178C79.7764 67.3341 80.191 67.1189 80.5182 66.7995C80.8454 66.4801 81.0704 66.0708 81.1649 65.6235C81.2594 65.1761 81.2191 64.7107 81.049 64.2863C80.879 63.8618 80.5868 63.4974 80.2095 63.239C79.8323 62.9807 79.3868 62.8401 78.9296 62.835C78.6262 62.8305 78.3248 62.886 78.0429 62.9983C77.761 63.1107 77.5041 63.2776 77.2869 63.4896C77.0698 63.7016 76.8967 63.9545 76.7776 64.2336C76.6585 64.5127 76.5957 64.8126 76.593 65.1161Z" fill="#5DC8DD"/>
<path d="M152.805 65.1505C152.806 65.6076 152.942 66.0542 153.197 66.4337C153.451 66.8133 153.813 67.1088 154.235 67.283C154.658 67.4571 155.123 67.502 155.571 67.412C156.019 67.322 156.43 67.1011 156.753 66.7773C157.076 66.4535 157.295 66.0414 157.383 65.5929C157.472 65.1444 157.425 64.6799 157.249 64.2579C157.073 63.8359 156.777 63.4755 156.396 63.2223C156.016 62.9691 155.569 62.8344 155.111 62.8352C154.499 62.8375 153.912 63.0824 153.48 63.5164C153.047 63.9503 152.805 64.5379 152.805 65.1505Z" fill="#5DC8DD"/>
<path d="M113.364 66.7737V63.1854H114.005L115.436 65.5264H115.175L116.547 63.1812H117.183V66.7694H116.534V64.0526L116.658 64.0953L115.509 66.0347H115.039L113.851 64.0996L113.962 64.0569V66.7737H113.364Z" fill="#818181"/>
<path d="M118.013 66.7738V64.2107H118.645V65.8297L119.926 64.2107H120.503V66.7738H119.888V65.1334L118.585 66.7738H118.013Z" fill="#818181"/>
<path d="M122.758 66.7736V65.8082C122.643 65.8381 122.532 65.8595 122.425 65.8766C122.318 65.8832 122.211 65.8832 122.104 65.8766C121.907 65.8819 121.711 65.847 121.528 65.774C121.374 65.7064 121.247 65.591 121.165 65.4451C121.076 65.2737 121.034 65.0825 121.041 64.8898V64.1892H121.699V64.8001C121.688 64.9414 121.731 65.0816 121.818 65.1931C121.875 65.245 121.943 65.2837 122.017 65.3066C122.091 65.3295 122.169 65.3359 122.245 65.3255C122.344 65.3308 122.442 65.3308 122.54 65.3255L122.779 65.2871V64.2063H123.437V66.7693L122.758 66.7736Z" fill="#818181"/>
<path d="M124.446 67.9229C124.345 67.9223 124.245 67.9108 124.147 67.8887C124.049 67.8643 123.954 67.8285 123.865 67.7819L124.014 67.2266C124.069 67.2584 124.128 67.2828 124.19 67.2992C124.247 67.3152 124.306 67.3238 124.365 67.3248C124.462 67.3332 124.559 67.3058 124.638 67.2476C124.717 67.1893 124.772 67.1044 124.792 67.0087L124.865 66.8037L123.856 64.2107H124.574L125.236 66.1202L125.877 64.2107H126.573L125.48 67.1027C125.415 67.2807 125.321 67.4467 125.202 67.594C125.109 67.7047 124.99 67.7911 124.856 67.846C124.726 67.8986 124.586 67.9248 124.446 67.9229Z" fill="#818181"/>
<path d="M126.983 67.8501V64.2105H127.564V64.548C127.666 64.4203 127.796 64.318 127.945 64.249C128.121 64.1672 128.314 64.1278 128.508 64.1336C128.741 64.1309 128.97 64.1914 129.171 64.3088C129.361 64.425 129.518 64.5902 129.623 64.7872C129.737 65.0044 129.795 65.2468 129.79 65.492C129.792 65.673 129.76 65.8527 129.696 66.0217C129.635 66.1802 129.543 66.3252 129.427 66.4489C129.314 66.5741 129.176 66.6733 129.021 66.7394C128.697 66.8731 128.333 66.8731 128.009 66.7394C127.869 66.6763 127.742 66.5863 127.637 66.4746V67.833L126.983 67.8501ZM128.389 66.2781C128.523 66.2801 128.656 66.2462 128.773 66.1798C128.888 66.1172 128.982 66.0221 129.042 65.9064C129.112 65.775 129.146 65.6278 129.141 65.4792C129.146 65.3307 129.112 65.1835 129.042 65.0521C128.981 64.9377 128.888 64.844 128.773 64.7829C128.655 64.7186 128.522 64.685 128.387 64.685C128.252 64.685 128.119 64.7186 128 64.7829C127.888 64.8454 127.796 64.9388 127.735 65.0521C127.666 65.1835 127.632 65.3307 127.637 65.4792C127.631 65.6274 127.663 65.7746 127.731 65.9064C127.792 66.0221 127.885 66.1172 128 66.1798C128.119 66.2462 128.253 66.2801 128.389 66.2781Z" fill="#818181"/>
<path d="M130.332 66.7738V64.2107H130.96V65.8297L132.242 64.2107H132.822V66.7738H132.19V65.1334L130.909 66.7738H130.332Z" fill="#818181"/>
<path d="M133.592 66.7738V64.2107H134.245V65.1804H135.437V64.215H136.095V66.778H135.437V65.7144H134.254V66.778L133.592 66.7738Z" fill="#818181"/>
<path d="M138.03 66.8506C137.776 66.8552 137.526 66.7933 137.303 66.6712C137.094 66.5548 136.92 66.3837 136.8 66.1759C136.681 65.9682 136.62 65.7318 136.624 65.4922C136.624 65.306 136.66 65.1217 136.731 64.9497C136.803 64.7887 136.906 64.6435 137.034 64.5225C137.167 64.3997 137.322 64.304 137.491 64.2405C137.674 64.171 137.868 64.1362 138.064 64.138C138.233 64.1373 138.402 64.1618 138.564 64.2106C138.718 64.2567 138.863 64.3306 138.991 64.4285L138.688 64.924C138.613 64.8498 138.525 64.7916 138.427 64.7531C138.324 64.7174 138.216 64.6987 138.107 64.6976C137.959 64.6957 137.813 64.7279 137.679 64.7916C137.562 64.8494 137.465 64.9419 137.402 65.0564C137.334 65.1883 137.3 65.3352 137.303 65.4836C137.297 65.5903 137.314 65.697 137.351 65.797C137.389 65.8971 137.447 65.9882 137.521 66.0646C137.683 66.2087 137.895 66.2838 138.111 66.2739C138.233 66.2741 138.353 66.2494 138.465 66.2013C138.574 66.1591 138.673 66.0951 138.756 66.0133L139.046 66.5088C138.905 66.6154 138.748 66.6991 138.581 66.7566C138.404 66.8196 138.217 66.8513 138.03 66.8506Z" fill="#818181"/>
<path d="M139.521 66.7738V64.2107H140.174V65.1804H140.947V65.7144H140.174V66.778L139.521 66.7738ZM141.204 66.7738L140.375 65.4196L141.174 64.2107H141.87L141.08 65.3854L141.985 66.7738H141.204Z" fill="#818181"/>
<path d="M142.455 66.7738V64.2107H143.087V65.8297L144.369 64.2107H144.946V66.7738H144.318V65.1334L143.015 66.7738H142.455Z" fill="#818181"/>
<path d="M145.715 66.7738V64.2107H146.347V65.8297L147.629 64.2107H148.21V66.7738H147.577V65.1334L146.274 66.7738H145.715ZM146.966 63.7835C146.785 63.7879 146.606 63.7468 146.445 63.6639C146.303 63.5888 146.184 63.4747 146.104 63.335C146.021 63.1879 145.981 63.0208 145.988 62.8523H146.544C146.537 62.9158 146.543 62.98 146.563 63.041C146.582 63.102 146.613 63.1584 146.655 63.2069C146.696 63.2506 146.747 63.2851 146.803 63.3079C146.859 63.3307 146.919 63.3414 146.979 63.3393C147.04 63.342 147.101 63.3317 147.158 63.3088C147.215 63.286 147.266 63.2512 147.308 63.2069C147.348 63.1577 147.379 63.1011 147.397 63.0402C147.415 62.9794 147.421 62.9155 147.415 62.8523H147.958C147.964 63.0177 147.924 63.1816 147.842 63.3251C147.759 63.4687 147.638 63.5861 147.492 63.6639C147.333 63.7538 147.153 63.8009 146.971 63.8006L146.966 63.7835Z" fill="#818181"/>
<path d="M124.852 71.2161V68.6531H127.346V71.2161H126.688V69.187H125.509V71.2161H124.852Z" fill="#818181"/>
<path d="M128.102 72.2928V68.6532H128.678V68.9907C128.782 68.8632 128.914 68.7609 129.063 68.6917C129.257 68.6064 129.469 68.5674 129.681 68.5778C129.893 68.5882 130.099 68.6476 130.284 68.7515C130.478 68.8652 130.637 69.0309 130.742 69.2299C130.856 69.4471 130.913 69.6895 130.908 69.9348C130.909 70.1159 130.876 70.2957 130.81 70.4645C130.752 70.6235 130.662 70.7688 130.545 70.8916C130.426 71.0189 130.282 71.1199 130.121 71.1883C129.961 71.2567 129.788 71.2909 129.614 71.2889C129.445 71.2931 129.277 71.2596 129.122 71.1907C128.983 71.1309 128.858 71.0421 128.755 70.9301V72.2885L128.102 72.2928ZM129.503 70.7208C129.639 70.7228 129.773 70.6889 129.891 70.6225C130.003 70.5589 130.094 70.4658 130.156 70.3534C130.224 70.2211 130.259 70.0747 130.259 69.9262C130.259 69.7777 130.224 69.6313 130.156 69.499C130.096 69.3858 130.004 69.2924 129.891 69.2299C129.773 69.1641 129.639 69.1303 129.503 69.1317C129.368 69.1296 129.235 69.1635 129.118 69.2299C129.005 69.2921 128.911 69.3855 128.849 69.499C128.784 69.6322 128.751 69.7782 128.751 69.9262C128.751 70.0742 128.784 70.2203 128.849 70.3534C128.911 70.4658 129.003 70.5589 129.114 70.6225C129.232 70.6928 129.366 70.7311 129.503 70.7336V70.7208Z" fill="#818181"/>
<path d="M132.66 71.2933C132.405 71.2976 132.154 71.2326 131.934 71.1053C131.645 70.9403 131.428 70.6751 131.322 70.36C131.217 70.0449 131.231 69.702 131.361 69.3966C131.428 69.236 131.527 69.0906 131.652 68.9694C131.774 68.8439 131.919 68.7425 132.079 68.6704C132.258 68.597 132.45 68.5606 132.643 68.5636C132.896 68.5577 133.146 68.6212 133.365 68.7473C133.572 68.8657 133.744 69.0366 133.865 69.2428C133.967 69.4233 134.028 69.6247 134.041 69.832C134.054 70.0393 134.02 70.2468 133.942 70.4389C133.872 70.5979 133.773 70.7428 133.651 70.8661C133.528 70.9903 133.383 71.0902 133.224 71.1609C133.047 71.2431 132.855 71.2882 132.66 71.2933ZM132.66 70.7208C132.795 70.7229 132.927 70.689 133.044 70.6226C133.158 70.5604 133.251 70.467 133.314 70.3535C133.381 70.2212 133.416 70.0748 133.416 69.9263C133.416 69.7778 133.381 69.6314 133.314 69.4991C133.253 69.3859 133.161 69.2925 133.049 69.23C132.929 69.1657 132.796 69.132 132.66 69.132C132.524 69.132 132.391 69.1657 132.271 69.23C132.158 69.2913 132.066 69.385 132.006 69.4991C131.939 69.6314 131.904 69.7778 131.904 69.9263C131.904 70.0748 131.939 70.2212 132.006 70.3535C132.068 70.4659 132.16 70.559 132.271 70.6226C132.389 70.6929 132.523 70.7312 132.66 70.7337V70.7208Z" fill="#818181"/>
<path d="M135.818 71.2932C135.565 71.2979 135.316 71.236 135.096 71.1138C134.888 71.002 134.715 70.835 134.596 70.6311C134.473 70.4198 134.409 70.1792 134.412 69.9348C134.411 69.7482 134.449 69.5634 134.523 69.3923C134.593 69.2312 134.695 69.086 134.822 68.9651C134.955 68.8424 135.11 68.7466 135.279 68.6832C135.467 68.6179 135.666 68.5889 135.865 68.5977C136.034 68.597 136.202 68.6215 136.364 68.6703C136.519 68.7165 136.664 68.7903 136.792 68.8882L136.484 69.3837C136.405 69.3126 136.312 69.2588 136.211 69.2257C136.11 69.1879 136.002 69.1691 135.895 69.1702C135.747 69.1688 135.601 69.201 135.467 69.2641C135.351 69.3231 135.254 69.4152 135.19 69.529C135.123 69.6613 135.091 69.8081 135.096 69.9562C135.089 70.0625 135.105 70.1691 135.141 70.2691C135.178 70.3691 135.235 70.4604 135.309 70.5371C135.465 70.6664 135.662 70.736 135.865 70.7336C135.985 70.7334 136.104 70.7087 136.215 70.661C136.324 70.6188 136.422 70.5549 136.505 70.473L136.8 70.9686C136.657 71.0751 136.499 71.1587 136.33 71.2163C136.165 71.2693 135.992 71.2952 135.818 71.2932Z" fill="#818181"/>
<path d="M137.308 71.2161V68.6531H139.798V71.2161H139.14V69.187H137.961V71.2161H137.308Z" fill="#818181"/>
<path d="M141.737 71.2933C141.482 71.2992 141.229 71.2404 141.003 71.1225C140.798 71.0142 140.629 70.8497 140.516 70.6483C140.393 70.4324 140.331 70.1874 140.336 69.9392C140.334 69.752 140.369 69.5661 140.439 69.3924C140.504 69.2317 140.601 69.0863 140.725 68.9652C140.847 68.8426 140.992 68.7453 141.152 68.679C141.328 68.6126 141.515 68.5793 141.703 68.5808C141.9 68.5773 142.095 68.6166 142.276 68.6961C142.441 68.7674 142.588 68.8773 142.703 69.0165C142.817 69.1558 142.897 69.3195 142.938 69.4949C142.979 69.6936 142.979 69.8986 142.938 70.0973H140.934C140.93 70.2226 140.964 70.3461 141.032 70.4515C141.1 70.5569 141.199 70.639 141.314 70.6868C141.448 70.749 141.594 70.7797 141.742 70.7765C141.886 70.7772 142.031 70.7556 142.169 70.7124C142.304 70.6691 142.431 70.6042 142.545 70.5202L142.775 70.9815C142.685 71.0515 142.584 71.1076 142.476 71.1481C142.353 71.1966 142.226 71.2338 142.096 71.2592C141.978 71.2813 141.858 71.2927 141.737 71.2933ZM140.994 69.6273H142.327C142.327 69.5513 142.312 69.476 142.282 69.4061C142.252 69.3363 142.207 69.2734 142.152 69.2215C142.024 69.1154 141.86 69.062 141.695 69.072C141.521 69.0657 141.351 69.1184 141.212 69.2215C141.148 69.2694 141.095 69.3304 141.057 69.4004C141.019 69.4704 140.996 69.5478 140.99 69.6273H140.994Z" fill="#818181"/>
<path d="M143.522 71.2161V68.6531H144.18V69.6185H144.954V70.1525H144.18V71.2161H143.522ZM145.231 71.2161L144.381 69.8791L145.18 68.6702H145.876L145.086 69.8449L145.992 71.2332L145.231 71.2161Z" fill="#818181"/>
<path d="M147.013 71.2161V69.187H146.206V68.6531H148.479V69.187H147.671V71.2161H147.013Z" fill="#818181"/>
<path d="M33.8877 66.7737V63.1854H34.5327L35.9638 65.5264H35.6989L37.0702 63.1812H37.7067V66.7694H37.0574V64.0526L37.1812 64.0953L36.0321 66.0347H35.5665L34.3789 64.0996L34.49 64.0569V66.7737H33.8877Z" fill="#818181"/>
<path d="M38.5391 66.7738V64.2107H39.167V65.8297L40.4485 64.2107H41.0295V66.7738H40.3973V65.1334L39.0944 66.7738H38.5391Z" fill="#818181"/>
<path d="M43.2858 66.7736V65.8082C43.1662 65.8381 43.0551 65.8595 42.9526 65.8766C42.8445 65.8831 42.7361 65.8831 42.628 65.8766C42.4308 65.8819 42.2346 65.847 42.0513 65.774C41.8983 65.7075 41.772 65.5917 41.6924 65.4451C41.6023 65.2744 41.5595 65.0826 41.5686 64.8898V64.1892H42.2222V64.8001C42.2136 64.9412 42.2561 65.0807 42.3418 65.1931C42.3996 65.244 42.4676 65.2821 42.5412 65.305C42.6148 65.3278 42.6924 65.3348 42.7689 65.3255C42.8671 65.3305 42.9655 65.3305 43.0637 65.3255L43.3029 65.2871V64.2063H43.9565V66.7693L43.2858 66.7736Z" fill="#818181"/>
<path d="M44.9727 67.9229C44.872 67.9223 44.7718 67.9108 44.6737 67.8887C44.5753 67.8659 44.4805 67.83 44.3917 67.7819L44.537 67.2266C44.5934 67.2584 44.6537 67.2828 44.7164 67.2992C44.7734 67.3152 44.8323 67.3238 44.8915 67.3248C44.9859 67.3292 45.079 67.3022 45.1563 67.2479C45.235 67.1888 45.2909 67.1043 45.3144 67.0087L45.3828 66.8037L44.3789 64.2107H45.0923L45.7544 66.1202L46.3994 64.2107H47.0915L46.0022 67.1027C45.9382 67.2819 45.8427 67.4483 45.7202 67.594C45.6293 67.7054 45.5118 67.7921 45.3785 67.846C45.2495 67.8977 45.1116 67.9238 44.9727 67.9229Z" fill="#818181"/>
<path d="M47.5107 67.8502V64.2106H48.0874V64.5481C48.1901 64.4193 48.3218 64.3168 48.4719 64.2491C48.6663 64.1638 48.8778 64.1248 49.0898 64.1352C49.3018 64.1456 49.5085 64.205 49.6936 64.3089C49.8868 64.4236 50.0449 64.5891 50.1507 64.7873C50.2647 65.0045 50.322 65.2469 50.3173 65.4921C50.3182 65.6733 50.2849 65.853 50.2191 66.0218C50.1609 66.1808 50.0708 66.3262 49.9542 66.449C49.8351 66.5762 49.6907 66.6773 49.5304 66.7457C49.3701 66.8141 49.1973 66.8483 49.023 66.8463C48.8546 66.8476 48.6877 66.8156 48.5317 66.7523C48.3937 66.688 48.269 66.5981 48.1643 66.4875V67.8459L47.5107 67.8502ZM48.9119 66.2782C49.0479 66.2802 49.1819 66.2463 49.3006 66.1799C49.4132 66.1159 49.505 66.021 49.5655 65.9065C49.6376 65.7762 49.6717 65.6281 49.6637 65.4793C49.6703 65.3307 49.6364 65.183 49.5655 65.0522C49.5048 64.9389 49.4129 64.8455 49.3006 64.783C49.1817 64.7172 49.0478 64.6834 48.9119 64.6848C48.7773 64.6827 48.6445 64.7166 48.5274 64.783C48.4139 64.8453 48.3205 64.9386 48.2583 65.0522C48.1904 65.184 48.1581 65.3312 48.1643 65.4793C48.1581 65.6275 48.1904 65.7747 48.2583 65.9065C48.3187 66.021 48.4106 66.1159 48.5232 66.1799C48.6421 66.2457 48.776 66.2796 48.9119 66.2782Z" fill="#818181"/>
<path d="M50.8545 66.7738V64.2107H51.4867V65.8297L52.7682 64.2107H53.3449V66.7738H52.717V65.1334L51.4354 66.7738H50.8545Z" fill="#818181"/>
<path d="M54.1143 66.7738V64.2107H54.7721V65.1804H55.9554V64.215H56.609V66.778H55.9554V65.7144H54.7721V66.778L54.1143 66.7738Z" fill="#818181"/>
<path d="M58.545 66.8506C58.2913 66.8558 58.0408 66.7939 57.8187 66.6712C57.6063 66.5582 57.4299 66.3878 57.3098 66.1792C57.1896 65.9707 57.1307 65.7326 57.1395 65.4922C57.137 65.3058 57.1733 65.1211 57.2463 64.9497C57.3169 64.7879 57.4202 64.6425 57.5496 64.5225C57.6816 64.3988 57.837 64.3029 58.0067 64.2405C58.1894 64.171 58.3836 64.1362 58.5791 64.138C58.7484 64.1373 58.9168 64.1618 59.0789 64.2106C59.2334 64.2567 59.3781 64.3306 59.5061 64.4285L59.2028 64.924C59.123 64.8538 59.0301 64.8 58.9294 64.766C58.8263 64.7302 58.7181 64.7115 58.609 64.7104C58.4613 64.7085 58.3151 64.7407 58.1819 64.8044C58.0644 64.8622 57.9675 64.9547 57.9042 65.0693C57.8361 65.2011 57.8023 65.348 57.8059 65.4964C57.7999 65.6031 57.8161 65.7098 57.8537 65.8099C57.8912 65.9099 57.9491 66.001 58.0238 66.0774C58.1849 66.2223 58.3969 66.2976 58.6133 66.2867C58.7352 66.2866 58.8558 66.2619 58.9679 66.2141C59.0765 66.1719 59.1753 66.1079 59.2583 66.0261L59.5488 66.5217C59.4066 66.6292 59.2479 66.7128 59.0789 66.7694C58.9069 66.8269 58.7263 66.8544 58.545 66.8506Z" fill="#818181"/>
<path d="M60.0439 66.7738V64.2107H60.7018V65.1804H61.475V65.7144H60.7018V66.778L60.0439 66.7738ZM61.7527 66.7738L60.9239 65.4196L61.7227 64.2107H62.3891L61.5989 65.3854L62.5045 66.7738H61.7527Z" fill="#818181"/>
<path d="M62.9824 66.7738V64.2107H63.6104V65.8297L64.8919 64.2107H65.4728V66.7738H64.8406V65.1334L63.5591 66.7738H62.9824Z" fill="#818181"/>
<path d="M66.2334 66.7738V64.2107H66.8613V65.8297L68.1429 64.2107H68.7196V66.7738H68.0916V65.1334L66.8101 66.7738H66.2334ZM67.485 63.7835C67.304 63.7885 67.1246 63.7474 66.9639 63.6639C66.8188 63.5906 66.6984 63.4762 66.6179 63.335C66.534 63.1886 66.4953 63.0206 66.5068 62.8523H67.045C67.0356 62.9803 67.0753 63.1071 67.1561 63.2069C67.1982 63.2512 67.2494 63.286 67.3062 63.3088C67.3629 63.3317 67.4239 63.342 67.485 63.3393C67.5454 63.3414 67.6056 63.3307 67.6616 63.3079C67.7175 63.2851 67.768 63.2506 67.8097 63.2069C67.8508 63.1582 67.8815 63.1016 67.8998 63.0406C67.9182 62.9797 67.9239 62.9156 67.9165 62.8523H68.459C68.4691 63.0178 68.4309 63.1826 68.349 63.3267C68.2671 63.4708 68.145 63.588 67.9976 63.6639C67.8501 63.7477 67.6845 63.7945 67.5149 63.8006L67.485 63.7835Z" fill="#818181"/>
<path d="M45.3789 71.2161V68.6531H47.8651V71.2161H47.2115V69.187H46.0325V71.2161H45.3789Z" fill="#818181"/>
<path d="M48.625 72.2929V68.6533H49.206V68.9908C49.3091 68.8643 49.4389 68.7621 49.5861 68.6917C49.7813 68.6064 49.9935 68.5674 50.2062 68.5778C50.4189 68.5882 50.6263 68.6476 50.8121 68.7515C51.005 68.8653 51.162 69.0311 51.265 69.23C51.3789 69.4471 51.4362 69.6896 51.4315 69.9348C51.4338 70.1157 51.4019 70.2954 51.3376 70.4645C51.2762 70.6219 51.1864 70.7667 51.0727 70.8917C50.9527 71.018 50.8071 71.117 50.6455 71.1822C50.4816 71.2551 50.3038 71.2915 50.1244 71.289C49.9553 71.2936 49.7874 71.26 49.6331 71.1907C49.4923 71.131 49.3656 71.0422 49.2615 70.9302V72.2886L48.625 72.2929ZM50.0304 70.7208C50.1663 70.7222 50.3002 70.6884 50.4191 70.6226C50.5305 70.559 50.6222 70.4658 50.684 70.3534C50.7515 70.2212 50.7867 70.0748 50.7867 69.9263C50.7867 69.7778 50.7515 69.6314 50.684 69.4991C50.6229 69.3847 50.5293 69.291 50.4148 69.23C50.2977 69.1636 50.165 69.1297 50.0304 69.1317C49.8945 69.1303 49.7606 69.1642 49.6417 69.23C49.5294 69.2925 49.4375 69.3859 49.3768 69.4991C49.3093 69.6314 49.2741 69.7778 49.2741 69.9263C49.2741 70.0748 49.3093 70.2212 49.3768 70.3534C49.4375 70.4667 49.5294 70.5601 49.6417 70.6226C49.7593 70.6929 49.8934 70.7311 50.0304 70.7336V70.7208Z" fill="#818181"/>
<path d="M53.1883 71.2933C52.9323 71.2971 52.6801 71.2322 52.4578 71.1054C52.2529 70.9872 52.0822 70.818 51.9623 70.6141C51.8137 70.3564 51.7541 70.057 51.7927 69.762C51.8313 69.4671 51.966 69.1931 52.1758 68.9823C52.2993 68.858 52.444 68.7568 52.603 68.6833C52.7818 68.6098 52.9736 68.5735 53.1669 68.5765C53.4197 68.5712 53.6692 68.6347 53.8888 68.7602C54.094 68.8798 54.2647 69.0505 54.3843 69.2557C54.5077 69.4605 54.5714 69.6958 54.568 69.9349C54.5687 70.1127 54.5323 70.2888 54.4612 70.4518C54.393 70.6117 54.2943 70.7567 54.1708 70.879C54.0484 71.0035 53.9034 71.1036 53.7436 71.1737C53.5684 71.2504 53.3795 71.2911 53.1883 71.2933ZM53.1883 70.7209C53.3227 70.7217 53.4551 70.6879 53.5727 70.6226C53.6844 70.558 53.7771 70.4652 53.8418 70.3535C53.9064 70.2204 53.94 70.0743 53.94 69.9263C53.94 69.7784 53.9064 69.6323 53.8418 69.4992C53.7796 69.3856 53.6862 69.2923 53.5727 69.23C53.4556 69.1636 53.3229 69.1297 53.1883 69.1318C53.0523 69.1298 52.9182 69.1637 52.7995 69.23C52.6851 69.2911 52.5914 69.3847 52.5304 69.4992C52.4625 69.631 52.4301 69.7782 52.4364 69.9263C52.4298 70.075 52.4638 70.2227 52.5347 70.3535C52.5965 70.4659 52.6881 70.559 52.7995 70.6226C52.9169 70.6935 53.0511 70.7318 53.1883 70.7337V70.7209Z" fill="#818181"/>
<path d="M56.3451 71.2932C56.0915 71.2978 55.8412 71.236 55.6189 71.1138C55.4093 70.9975 55.2353 70.8263 55.1157 70.6185C54.996 70.4108 54.9352 70.1745 54.9397 69.9348C54.9371 69.7485 54.9735 69.5637 55.0465 69.3923C55.1195 69.2319 55.2224 69.0869 55.3498 68.9651C55.4817 68.8414 55.6372 68.7456 55.8069 68.6832C55.9896 68.6136 56.1837 68.5788 56.3793 68.5806C56.5486 68.58 56.717 68.6044 56.8791 68.6532C57.0335 68.6994 57.1782 68.7732 57.3062 68.8711L57.003 69.3666C56.9238 69.2955 56.8307 69.2417 56.7296 69.2086C56.627 69.1708 56.5185 69.152 56.4092 69.153C56.2615 69.1511 56.1153 69.1833 55.982 69.247C55.8646 69.3049 55.7677 69.3973 55.7043 69.5119C55.6362 69.6438 55.6025 69.7907 55.6061 69.9391C55.6 70.0457 55.6163 70.1524 55.6538 70.2525C55.6913 70.3525 55.7493 70.4436 55.8239 70.52C55.9838 70.6646 56.1937 70.7412 56.4092 70.7336C56.531 70.7335 56.6516 70.7088 56.7637 70.661C56.8724 70.6188 56.9712 70.5548 57.0542 70.473L57.3447 70.9685C57.2025 71.076 57.0438 71.1597 56.8748 71.2163C56.7039 71.2719 56.5247 71.2979 56.3451 71.2932Z" fill="#818181"/>
<path d="M57.8311 71.2161V68.6531H60.3258V71.2161H59.6679V69.187H58.4889V71.2161H57.8311Z" fill="#818181"/>
<path d="M62.2655 71.2934C62.01 71.3001 61.757 71.2413 61.5307 71.1225C61.326 71.0132 61.1559 70.849 61.0395 70.6483C60.9382 70.4564 60.8793 70.2449 60.8668 70.0282C60.8543 69.8116 60.8884 69.5948 60.9668 69.3924C61.0316 69.2317 61.1291 69.0863 61.2531 68.9652C61.3752 68.8426 61.5204 68.7453 61.6802 68.679C61.8549 68.6129 62.0403 68.5796 62.227 68.5808C62.4253 68.5772 62.622 68.6165 62.8037 68.6961C62.9695 68.7675 63.1159 68.8773 63.2309 69.0165C63.3433 69.1568 63.4236 69.3201 63.4658 69.4949C63.5068 69.6936 63.5068 69.8986 63.4658 70.0973H61.4624C61.4566 70.2223 61.4894 70.3461 61.5563 70.4518C61.6263 70.5551 61.724 70.6366 61.8383 70.6868C61.9722 70.7482 62.1182 70.7788 62.2655 70.7765C62.4103 70.7778 62.5545 70.7562 62.6926 70.7124C62.8289 70.6692 62.9572 70.6043 63.0728 70.5202L63.3035 70.9815C63.211 71.0515 63.1088 71.1076 63.0002 71.1481C62.8786 71.1966 62.7527 71.2338 62.6243 71.2592C62.5059 71.2813 62.3859 71.2927 62.2655 71.2934ZM61.5222 69.6274H62.8507C62.8519 69.5516 62.8373 69.4764 62.8079 69.4065C62.7785 69.3366 62.7349 69.2737 62.6798 69.2216C62.5516 69.1162 62.3884 69.0628 62.2227 69.072C62.0494 69.065 61.879 69.1178 61.74 69.2216C61.6793 69.2711 61.6297 69.3328 61.5944 69.4027C61.5591 69.4726 61.5389 69.5491 61.535 69.6274H61.5222Z" fill="#818181"/>
<path d="M64.0508 71.2161V68.6531H64.7086V69.6185H65.4818V70.1525H64.7086V71.2161H64.0508ZM65.7595 71.2161L64.9051 69.862L65.7082 68.6531H66.4045L65.61 69.8278L66.5199 71.2161H65.7595Z" fill="#818181"/>
<path d="M67.5408 71.2161V69.187H66.7334V68.6531H69.0017V69.187H68.1944V71.2161H67.5408Z" fill="#818181"/>
<path d="M88.8743 136.233L86.6572 131.995L90.1601 130.162L92.3771 134.4L91.5868 134.827L89.7457 131.307L87.8234 132.315L89.6645 135.835L88.8743 136.233Z" fill="#818181"/>
<path d="M93.4485 133.841L91.2314 129.603L92.8205 128.77C93.096 128.62 93.4004 128.529 93.7133 128.505C93.9905 128.484 94.268 128.543 94.5122 128.676C94.7633 128.817 94.9648 129.032 95.0888 129.291C95.2309 129.54 95.2977 129.825 95.2811 130.111C95.2579 130.382 95.152 130.638 94.9778 130.846C94.762 131.098 94.4976 131.305 94.2003 131.453L93.4143 131.88L94.2345 133.448L93.4485 133.841ZM93.064 131.192L93.8458 130.765C94.0619 130.67 94.2405 130.506 94.3541 130.299C94.3963 130.203 94.4145 130.098 94.407 129.993C94.3996 129.888 94.3668 129.787 94.3114 129.697C94.267 129.599 94.2001 129.514 94.1162 129.447C94.0323 129.38 93.9338 129.334 93.8287 129.313C93.598 129.281 93.3634 129.328 93.1623 129.445L92.3763 129.872L93.064 131.192Z" fill="#818181"/>
<path d="M99.3569 130.867C99.0528 131.028 98.7208 131.13 98.3786 131.166C98.0563 131.197 97.7312 131.163 97.4218 131.068C97.1091 130.977 96.8183 130.823 96.5674 130.615C96.3098 130.397 96.0978 130.13 95.9437 129.829C95.7853 129.529 95.6866 129.201 95.6532 128.864C95.6228 128.544 95.6577 128.221 95.7558 127.916C95.8533 127.602 96.0131 127.311 96.2257 127.061C96.4496 126.8 96.7224 126.585 97.0288 126.429C97.3322 126.267 97.6647 126.167 98.007 126.134C98.3293 126.104 98.6544 126.138 98.9639 126.232C99.2751 126.329 99.5651 126.484 99.8182 126.69C100.075 126.904 100.286 127.169 100.438 127.467C100.599 127.764 100.697 128.091 100.724 128.428C100.755 128.748 100.72 129.071 100.621 129.376C100.524 129.689 100.366 129.98 100.156 130.231C99.9334 130.493 99.662 130.709 99.3569 130.867ZM98.9724 130.124C99.1648 130.026 99.3361 129.891 99.4765 129.727C99.6087 129.571 99.7089 129.391 99.7712 129.197C99.8329 128.995 99.8518 128.783 99.8268 128.573C99.8014 128.343 99.7317 128.12 99.6217 127.916C99.4863 127.641 99.2817 127.407 99.028 127.236C98.7959 127.086 98.527 127.002 98.2505 126.993C97.9665 126.986 97.6854 127.052 97.4346 127.185C97.242 127.285 97.0696 127.42 96.9262 127.582C96.7946 127.74 96.6945 127.921 96.6315 128.116C96.5719 128.317 96.553 128.528 96.576 128.736C96.6036 128.968 96.6746 129.192 96.7853 129.398C96.9205 129.672 97.1252 129.906 97.379 130.077C97.6092 130.228 97.8769 130.313 98.1522 130.321C98.4392 130.324 98.7221 130.252 98.9724 130.111V130.124Z" fill="#818181"/>
<path d="M102.356 129.184L100.139 124.942L102.958 123.469L103.321 124.161L101.288 125.22L101.826 126.249L103.565 125.34L103.902 125.985L102.163 126.894L102.779 128.073L104.833 127.001L105.196 127.698L102.356 129.184Z" fill="#818181"/>
<path d="M107.376 126.694C107.074 126.855 106.75 126.972 106.414 127.04C106.118 127.091 105.814 127.091 105.517 127.04L105.551 126.228C105.776 126.28 106.008 126.289 106.235 126.254C106.48 126.221 106.717 126.144 106.936 126.027C107.111 125.944 107.267 125.826 107.397 125.681C107.501 125.57 107.573 125.433 107.606 125.284C107.631 125.147 107.61 125.006 107.546 124.883C107.505 124.793 107.443 124.714 107.365 124.653C107.287 124.592 107.195 124.551 107.098 124.532C106.846 124.516 106.595 124.579 106.38 124.712L105.526 125.139L105.201 124.515L105.979 124.109C106.123 124.039 106.252 123.942 106.359 123.823C106.446 123.729 106.504 123.612 106.525 123.486C106.542 123.361 106.518 123.233 106.457 123.123C106.403 123.014 106.314 122.927 106.205 122.875C106.09 122.823 105.962 122.808 105.838 122.832C105.669 122.865 105.506 122.924 105.355 123.007C105.161 123.107 104.986 123.24 104.838 123.4C104.696 123.547 104.586 123.722 104.513 123.913L103.843 123.528C103.948 123.257 104.108 123.01 104.313 122.802C104.535 122.57 104.795 122.378 105.082 122.234C105.345 122.085 105.635 121.988 105.936 121.948C106.181 121.918 106.43 121.958 106.654 122.063C106.869 122.176 107.042 122.354 107.149 122.572C107.217 122.704 107.255 122.85 107.26 122.999C107.262 123.144 107.241 123.288 107.196 123.426C107.155 123.565 107.088 123.696 107 123.81C107.26 123.76 107.53 123.79 107.773 123.896C108.025 124.008 108.229 124.209 108.345 124.46C108.471 124.698 108.519 124.97 108.482 125.237C108.44 125.522 108.322 125.791 108.14 126.015C107.938 126.294 107.677 126.526 107.376 126.694Z" fill="#818181"/>
<path d="M112.561 123.844L110.72 120.329L109.182 121.132L109.46 121.666C109.688 122.093 109.887 122.533 110.058 122.986C110.178 123.304 110.251 123.638 110.276 123.977C110.293 124.237 110.245 124.497 110.135 124.733C110.015 124.968 109.849 125.177 109.648 125.348L109.033 124.844C109.177 124.728 109.295 124.582 109.379 124.417C109.451 124.255 109.476 124.076 109.452 123.9C109.411 123.643 109.338 123.391 109.234 123.152C109.11 122.858 108.935 122.49 108.708 122.055L108.055 120.799L111.13 119.188L113.347 123.43L112.561 123.844ZM109.943 126.583L109.033 124.844L109.546 124.609L109.776 124.383L113.646 122.358L114.586 124.152L113.843 124.545L113.279 123.469L110.126 125.117L110.686 126.194L109.943 126.583Z" fill="#818181"/>
<path d="M116.145 121.969L116.034 117.526L114.077 118.577L113.71 117.872L116.546 116.386L116.85 116.958L116.991 121.555L116.145 121.969Z" fill="#818181"/>
<path d="M120.431 119.859C120.175 119.997 119.9 120.094 119.615 120.145C119.362 120.194 119.102 120.194 118.85 120.145L118.765 119.389C118.974 119.445 119.192 119.454 119.405 119.415C119.625 119.377 119.838 119.306 120.038 119.205C120.201 119.121 120.347 119.005 120.465 118.864C120.567 118.743 120.629 118.594 120.644 118.436C120.653 118.273 120.616 118.11 120.537 117.967C120.468 117.831 120.36 117.719 120.225 117.646C120.092 117.584 119.945 117.558 119.798 117.569C119.618 117.589 119.444 117.644 119.286 117.732C119.169 117.794 119.058 117.869 118.957 117.954C118.841 118.049 118.737 118.156 118.645 118.274L118.137 118.095L117.316 115.959L119.683 114.72L120.042 115.403L118.222 116.356L118.619 117.398C118.697 117.321 118.78 117.25 118.867 117.185C118.95 117.118 119.041 117.061 119.136 117.014C119.399 116.87 119.691 116.788 119.991 116.775C120.258 116.764 120.523 116.829 120.755 116.963C121.001 117.114 121.198 117.331 121.323 117.591C121.47 117.85 121.536 118.148 121.511 118.445C121.484 118.731 121.378 119.003 121.204 119.231C120.998 119.497 120.733 119.712 120.431 119.859Z" fill="#818181"/>
<path d="M122.673 118.577L122.391 118.035L122.87 116.728C123.019 116.301 123.13 115.972 123.207 115.703C123.275 115.479 123.312 115.248 123.318 115.015C123.318 114.841 123.277 114.67 123.199 114.515C123.154 114.417 123.087 114.33 123.004 114.262C122.92 114.193 122.821 114.146 122.716 114.122C122.468 114.085 122.216 114.137 122.003 114.267C121.818 114.359 121.654 114.487 121.52 114.643C121.384 114.798 121.284 114.98 121.225 115.177L120.648 114.75C120.748 114.495 120.892 114.261 121.076 114.058C121.264 113.853 121.486 113.682 121.733 113.554C121.996 113.407 122.288 113.32 122.588 113.302C122.851 113.283 123.114 113.344 123.343 113.477C123.571 113.609 123.755 113.807 123.869 114.045C123.963 114.223 124.021 114.417 124.04 114.618C124.054 114.877 124.031 115.137 123.972 115.391C123.881 115.786 123.766 116.175 123.63 116.557L123.335 117.386L125.236 116.39L125.578 117.048L122.673 118.577Z" fill="#818181"/>
<path d="M127.97 115.903C127.674 116.064 127.341 116.147 127.004 116.142C126.682 116.136 126.368 116.035 126.103 115.852C125.803 115.643 125.562 115.361 125.402 115.032C125.219 114.693 125.111 114.318 125.086 113.934C125.064 113.562 125.113 113.189 125.231 112.836C125.356 112.467 125.542 112.122 125.783 111.815C126.036 111.488 126.337 111.2 126.675 110.961L127.252 111.414C127.001 111.579 126.771 111.776 126.568 111.999C126.397 112.187 126.253 112.398 126.141 112.627C126.044 112.827 125.979 113.042 125.949 113.263C125.917 113.468 125.917 113.677 125.949 113.883C125.99 113.7 126.072 113.529 126.188 113.383C126.311 113.225 126.467 113.097 126.645 113.007C126.9 112.868 127.184 112.795 127.474 112.793C127.744 112.795 128.009 112.867 128.243 113.003C128.482 113.148 128.675 113.358 128.798 113.609C128.904 113.806 128.967 114.023 128.982 114.246C128.997 114.463 128.968 114.681 128.897 114.886C128.821 115.1 128.704 115.296 128.551 115.463C128.385 115.644 128.188 115.793 127.97 115.903ZM127.628 115.25C127.782 115.173 127.916 115.06 128.017 114.921C128.106 114.794 128.16 114.647 128.175 114.493C128.185 114.335 128.151 114.177 128.076 114.036C128.005 113.893 127.892 113.774 127.752 113.695C127.621 113.621 127.474 113.582 127.325 113.579C127.155 113.582 126.988 113.624 126.838 113.703C126.684 113.781 126.552 113.895 126.453 114.036C126.363 114.162 126.308 114.309 126.295 114.464C126.28 114.622 126.313 114.781 126.389 114.921C126.462 115.061 126.571 115.178 126.706 115.259C126.841 115.341 126.996 115.383 127.154 115.382C127.32 115.375 127.482 115.33 127.628 115.25Z" fill="#818181"/>
<path d="M72.1508 26.9051L72.0654 26.0508C72.3299 26.0733 72.5963 26.056 72.8557 25.9995C73.1073 25.9405 73.3461 25.8362 73.5606 25.6919C73.8135 25.5199 74.0445 25.3177 74.2483 25.0896L76.1321 23.0349L77.1146 23.3296L74.9318 25.6321C74.7093 25.8716 74.4694 26.0943 74.2141 26.2985C74.0049 26.4666 73.777 26.6099 73.5349 26.7257C73.3221 26.8242 73.0962 26.8918 72.8642 26.9265C72.6264 26.9472 72.387 26.9401 72.1508 26.9051ZM73.8596 25.8243L73.0693 22.0994L74.103 22.4069L74.6584 25.2562L73.8596 25.8243Z" fill="#818181"/>
<path d="M75.8886 28.016L75.8203 27.1617C75.9641 27.163 76.1075 27.1472 76.2475 27.1147C76.371 27.0806 76.486 27.0209 76.585 26.9395C76.7003 26.8296 76.7982 26.7029 76.8754 26.5636C76.9882 26.3582 77.084 26.1439 77.1617 25.9228C77.2556 25.6537 77.3624 25.3291 77.482 24.9403L77.9092 23.552L81.1942 24.5345L79.823 29.1224L78.9686 28.8661L80.1049 25.06L78.4816 24.5772L78.3108 25.1496C78.1698 25.6238 78.0331 26.004 77.8836 26.3628C77.7741 26.6523 77.6382 26.9312 77.4778 27.1958C77.3654 27.3909 77.2209 27.5656 77.0506 27.7127C76.8972 27.8353 76.7196 27.9242 76.5294 27.9733C76.3186 28.0158 76.1032 28.0301 75.8886 28.016Z" fill="#818181"/>
<path d="M81.2564 29.6476C81.1097 29.606 80.9834 29.5117 80.9019 29.3827C80.8628 29.3195 80.8383 29.2483 80.8301 29.1744C80.822 29.1005 80.8305 29.0258 80.8549 28.9555C80.8788 28.8553 80.9323 28.7646 81.0085 28.6953C81.0847 28.6259 81.18 28.5812 81.2821 28.5668C81.3818 28.5435 81.4856 28.5435 81.5854 28.5668C81.732 28.6088 81.8581 28.703 81.9399 28.8316C81.9785 28.8951 82.0027 28.9662 82.0108 29.04C82.0189 29.1138 82.0108 29.1885 81.9869 29.2588C81.9618 29.3607 81.9049 29.4519 81.8246 29.5194C81.7509 29.584 81.6607 29.6269 81.564 29.6433C81.4636 29.6715 81.3576 29.673 81.2564 29.6476Z" fill="#818181"/>
<path d="M84.4438 30.5789L84.3584 29.7246C84.6229 29.7471 84.8893 29.7299 85.1487 29.6733C85.4003 29.6143 85.6391 29.5101 85.8535 29.3657C86.1075 29.195 86.3386 28.9926 86.5413 28.7634L88.4465 26.6916L89.429 26.9864L87.2248 29.2974C87.0013 29.5359 86.7615 29.7585 86.5071 29.9638C86.299 30.1334 86.0709 30.2768 85.8279 30.391C85.6145 30.492 85.3869 30.5598 85.1529 30.5918C84.917 30.6175 84.6787 30.6132 84.4438 30.5789ZM86.1525 29.4982L85.358 25.7732L86.3918 26.085L86.9471 28.93L86.1525 29.4982Z" fill="#818181"/>
<path d="M87.5293 32.6849L88.0932 30.8053L88.6229 30.9933H88.9475L93.1339 32.2449L92.5529 34.1886L91.7455 33.9451L92.0958 32.7831L88.6784 31.7622L88.3324 32.9241L87.5293 32.6849ZM91.3141 32.5525L92.4547 28.7463L90.7929 28.2465L90.6178 28.8232C90.4845 29.2884 90.3189 29.7437 90.1223 30.1859C89.9865 30.495 89.8067 30.7828 89.5883 31.0403C89.4169 31.2317 89.2014 31.3784 88.9604 31.4674C88.7088 31.5514 88.4434 31.5863 88.1786 31.57L88.0932 30.7797C88.2765 30.7956 88.4611 30.7738 88.6357 30.7156C88.8055 30.6513 88.9536 30.5402 89.0629 30.3952C89.2137 30.183 89.3357 29.9517 89.426 29.7075C89.5768 29.3301 89.708 28.9451 89.819 28.5541L90.2462 27.2L93.5739 28.1953L92.2026 32.7789L91.3141 32.5525Z" fill="#818181"/>
<path d="M93.1465 33.1036L96.2734 29.0454L97.226 29.3316L97.6532 34.4578L96.6963 34.1715L96.6152 33.0182L94.774 32.4671L94.0863 33.3898L93.1465 33.1036ZM95.1927 31.7964L96.6109 32.2236L96.4443 30.1518L95.1927 31.7964Z" fill="#818181"/>
<path d="M98.1738 34.6928L98.1055 33.8384C98.2493 33.8363 98.3924 33.8191 98.5326 33.7872C98.6559 33.7557 98.7701 33.6957 98.8659 33.612C98.9859 33.5054 99.0857 33.3781 99.1606 33.2361C99.2734 33.0307 99.3691 32.8164 99.4468 32.5953C99.5408 32.3305 99.6476 32.0058 99.7672 31.6171L100.194 30.2288L103.479 31.2113L102.117 35.7778L101.262 35.5215L102.399 31.7196L100.775 31.2326L100.604 31.8093C100.464 32.2792 100.327 32.6637 100.177 33.0182C100.061 33.3153 99.9179 33.6012 99.7501 33.8726C99.6377 34.0676 99.4933 34.2423 99.3229 34.3895C99.1714 34.5115 98.9949 34.599 98.806 34.6458C98.5988 34.6928 98.3857 34.7086 98.1738 34.6928Z" fill="#818181"/>
<path d="M103.253 36.1322L104.624 31.5486L105.479 31.8049L104.97 33.5136L105.825 33.7699C106.127 33.8501 106.409 33.9959 106.649 34.1971C106.861 34.3742 107.018 34.6084 107.102 34.872C107.189 35.1502 107.189 35.4482 107.102 35.7264C107.042 35.9379 106.94 36.1354 106.803 36.3073C106.677 36.4604 106.516 36.5806 106.333 36.6576C106.137 36.7406 105.926 36.7813 105.713 36.7772C105.455 36.7727 105.199 36.731 104.953 36.6533L103.253 36.1322ZM104.321 35.6623L105.175 35.9143C105.4 35.9883 105.643 35.9883 105.867 35.9143C105.964 35.8743 106.05 35.8115 106.118 35.7312C106.186 35.6509 106.233 35.5554 106.256 35.453C106.293 35.3526 106.305 35.245 106.293 35.1388C106.28 35.0327 106.243 34.931 106.183 34.8421C106.04 34.6575 105.838 34.5266 105.611 34.4705L104.757 34.2184L104.321 35.6623Z" fill="#818181"/>
<path d="M107.452 37.3797L108.823 32.7961L109.678 33.0524L108.541 36.8543L110.558 37.4609L111.698 33.6548L112.553 33.9111L111.181 38.4947L107.452 37.3797ZM110.75 39.6353L111.1 38.4733L110.673 38.3452L110.908 37.5677L112.138 37.9351L111.557 39.8745L110.75 39.6353Z" fill="#818181"/>
<path d="M114.68 39.652C114.35 39.5547 114.041 39.3953 113.77 39.1821C113.517 38.9795 113.306 38.7282 113.151 38.4431C112.997 38.1621 112.902 37.8524 112.873 37.5332C112.814 36.8551 113.016 36.1799 113.437 35.6451C113.639 35.3943 113.889 35.1865 114.172 35.0342C114.459 34.884 114.772 34.7911 115.095 34.7608C115.785 34.7079 116.471 34.9151 117.017 35.3418C117.268 35.5457 117.477 35.7967 117.632 36.0808C117.787 36.3703 117.884 36.6877 117.916 37.0147C117.948 37.3416 117.916 37.6717 117.82 37.986C117.725 38.31 117.567 38.6119 117.354 38.8745C117.15 39.1232 116.899 39.3293 116.615 39.4811C116.329 39.6333 116.015 39.7262 115.693 39.7545C115.352 39.7875 115.008 39.7527 114.68 39.652ZM114.919 38.8489C115.127 38.9112 115.344 38.9344 115.56 38.9173C115.764 38.8989 115.961 38.8392 116.141 38.7421C116.329 38.6372 116.491 38.4912 116.615 38.3149C116.777 38.1009 116.893 37.8557 116.956 37.5947C117.018 37.3337 117.026 37.0626 116.978 36.7985C116.919 36.5285 116.786 36.2802 116.594 36.0808C116.395 35.8776 116.146 35.7303 115.872 35.6536C115.665 35.5879 115.448 35.5633 115.231 35.581C115.028 35.598 114.83 35.6576 114.65 35.7561C114.465 35.8648 114.304 36.0102 114.176 36.1833C114.015 36.3978 113.9 36.6431 113.837 36.9039C113.775 37.1648 113.767 37.4356 113.813 37.6998C113.873 37.9697 114.006 38.218 114.198 38.4174C114.4 38.624 114.653 38.7729 114.932 38.8489H114.919Z" fill="#818181"/>
<path d="M118.003 40.5405L119.374 35.9526L121.015 36.4439C121.403 36.5411 121.751 36.7578 122.01 37.0633C122.115 37.2021 122.185 37.365 122.211 37.5372C122.238 37.7095 122.222 37.8857 122.164 38.0501C122.122 38.1919 122.046 38.3211 121.941 38.426C121.84 38.5318 121.719 38.6186 121.587 38.6823C121.525 38.6654 121.459 38.6641 121.396 38.6785C121.334 38.6929 121.275 38.7226 121.226 38.7648C121.178 38.8071 121.14 38.8607 121.117 38.9209C121.094 38.9811 121.086 39.0461 121.094 39.1101C121.102 39.174 121.126 39.2351 121.163 39.2878C121.2 39.3406 121.249 39.3834 121.307 39.4124C121.365 39.4415 121.428 39.4559 121.493 39.4545C121.557 39.4531 121.62 39.4358 121.677 39.4042C121.778 39.6655 121.786 39.9539 121.698 40.2201C121.63 40.4625 121.492 40.6795 121.301 40.8438C121.101 41.0062 120.86 41.1084 120.604 41.1385C120.302 41.1742 119.996 41.1436 119.707 41.0489L118.003 40.5405ZM119.05 40.1432L119.767 40.3568C119.989 40.44 120.232 40.4475 120.459 40.3782C120.551 40.3358 120.632 40.2729 120.695 40.1944C120.759 40.1159 120.804 40.0239 120.827 39.9254C120.861 39.8306 120.874 39.7291 120.865 39.6286C120.855 39.528 120.823 39.4309 120.771 39.3444C120.626 39.1555 120.419 39.0239 120.186 38.9728L119.464 38.7549L119.05 40.1432ZM119.648 38.1398L120.314 38.3405C120.452 38.3849 120.597 38.4009 120.741 38.3876C120.866 38.3723 120.985 38.3219 121.083 38.2423C121.182 38.1549 121.253 38.0406 121.288 37.9134C121.319 37.8271 121.328 37.7346 121.316 37.6439C121.303 37.5531 121.269 37.4668 121.215 37.3922C121.075 37.2229 120.883 37.1043 120.669 37.0547L120.019 36.8625L119.648 38.1398Z" fill="#818181"/>
<path d="M121.686 41.6386L124.812 37.5847L125.765 37.8666L126.192 42.9928L125.235 42.7023L125.154 41.5489L123.313 40.9979L122.621 41.9205L121.686 41.6386ZM123.732 40.3315L125.146 40.7586L124.983 38.6825L123.732 40.3315Z" fill="#818181"/>
<path d="M15.25 18.0671C14.8976 18.2725 14.5339 18.4579 14.1607 18.6224C13.1164 19.0629 11.9919 19.2811 10.8586 19.2632C9.72223 19.2732 8.5967 19.0417 7.55654 18.584C7.0476 18.3717 6.56225 18.1069 6.1084 17.7937" stroke="#D51317" stroke-width="0.31373" stroke-linecap="round" stroke-linejoin="round"/>
<path d="M18.1638 5.87964C19.0651 7.28066 19.5414 8.91271 19.535 10.5786C19.5425 12.2838 19.0381 13.952 18.0869 15.3673" stroke="#D51317" stroke-width="0.31373" stroke-linecap="round" stroke-linejoin="round" stroke-dasharray="1.56 1.09"/>
<path d="M4.08709 5.20044C2.96544 6.63201 2.32302 8.3804 2.25095 10.1976C2.17887 12.0148 2.68079 13.8086 3.68554 15.3245" stroke="black" stroke-width="0.31373" stroke-linecap="round" stroke-linejoin="round"/>
<path d="M15.5965 3.29076C14.1461 2.3574 12.4496 1.87938 10.7253 1.91821C9.00103 1.95703 7.32778 2.51093 5.9209 3.50862" stroke="black" stroke-width="0.31373" stroke-linecap="round" stroke-linejoin="round"/>
<path d="M17.7026 17.2639C17.7812 17.1545 17.8373 17.0306 17.8676 16.8994C17.8979 16.7682 17.9018 16.6323 17.8791 16.4996C17.8565 16.3668 17.8077 16.2399 17.7356 16.1262C17.6635 16.0124 17.5695 15.9142 17.4591 15.8371C17.2353 15.6777 16.9603 15.6069 16.6873 15.6385C16.4143 15.67 16.1626 15.8017 15.9811 16.008C15.9025 16.1173 15.8464 16.2412 15.8161 16.3724C15.7858 16.5036 15.7819 16.6395 15.8045 16.7723C15.8272 16.905 15.876 17.0319 15.9481 17.1456C16.0202 17.2593 16.1142 17.3576 16.2246 17.4347C16.3316 17.5235 16.4555 17.5897 16.5888 17.6292C16.722 17.6688 16.862 17.681 17.0001 17.665C17.1382 17.6491 17.2717 17.6053 17.3924 17.5363C17.5131 17.4674 17.6187 17.3747 17.7026 17.2639Z" fill="#D51317"/>
<path d="M17.7236 17.5245C17.5013 17.7318 17.2126 17.8533 16.909 17.8674C16.6054 17.8815 16.3067 17.7872 16.0662 17.6014C15.9292 17.5005 15.8142 17.3726 15.7282 17.2257C15.6423 17.0788 15.5872 16.916 15.5664 16.7471C15.5449 16.5886 15.5558 16.4273 15.5984 16.2731C15.6409 16.119 15.7144 15.975 15.8141 15.85C15.9711 15.6518 16.1832 15.5044 16.4238 15.4264C16.6644 15.3485 16.9226 15.3434 17.166 15.4119C17.4094 15.4804 17.6271 15.6194 17.7917 15.8114C17.9563 16.0034 18.0604 16.2398 18.091 16.4908C18.1126 16.6486 18.1018 16.8092 18.0592 16.9627C18.0166 17.1162 17.9431 17.2594 17.8432 17.3836C17.8347 17.4476 17.7962 17.4733 17.7236 17.5245ZM16.2541 16.0251C16.2327 16.0374 16.2141 16.054 16.1994 16.0739C16.1847 16.0937 16.1742 16.1164 16.1687 16.1405C16.1015 16.2212 16.0548 16.317 16.0325 16.4196C16.0102 16.5222 16.013 16.6287 16.0405 16.73C16.0584 16.8448 16.099 16.955 16.1598 17.054C16.2207 17.153 16.3007 17.2389 16.3951 17.3067C16.5697 17.4439 16.791 17.5077 17.0118 17.4845C17.2327 17.4614 17.4359 17.3532 17.5784 17.1828C17.6456 17.1012 17.6923 17.0048 17.7146 16.9015C17.7369 16.7982 17.7341 16.691 17.7065 16.589C17.6893 16.4746 17.649 16.3648 17.588 16.2664C17.5271 16.168 17.4468 16.083 17.352 16.0166C17.1971 15.8888 17.0023 15.8196 16.8015 15.8212C16.6008 15.8228 16.407 15.895 16.2541 16.0251Z" fill="#D51317"/>
<path d="M11.5552 10.8691C11.6081 10.8057 11.6465 10.7316 11.6678 10.6518C11.6891 10.5721 11.6928 10.4886 11.6786 10.4073C11.6643 10.326 11.6325 10.2487 11.5854 10.181C11.5383 10.1132 11.477 10.0565 11.4057 10.0148C11.3426 9.96476 11.2701 9.92798 11.1925 9.90664C11.1149 9.8853 11.0338 9.87986 10.954 9.89063C10.8742 9.9014 10.7974 9.92816 10.7282 9.96932C10.6591 10.0105 10.5989 10.0652 10.5513 10.1301C10.4986 10.1938 10.4605 10.2682 10.4395 10.3482C10.4185 10.4281 10.4152 10.5117 10.4299 10.593C10.4445 10.6744 10.4767 10.7515 10.5243 10.8191C10.5718 10.8868 10.6335 10.9432 10.7051 10.9845C10.8343 11.0787 10.9949 11.1193 11.1534 11.0978C11.3118 11.0763 11.4558 10.9944 11.5552 10.8691Z" fill="#7D807D"/>
<path d="M11.5547 11.0314C11.4239 11.1525 11.2537 11.2223 11.0755 11.2278C10.8973 11.2332 10.7231 11.1741 10.5851 11.0613C10.4283 10.9356 10.3209 10.7586 10.2818 10.5615C10.2623 10.4698 10.2629 10.375 10.2835 10.2836C10.3042 10.1921 10.3444 10.1062 10.4014 10.0318C10.4599 9.95142 10.5341 9.88365 10.6194 9.8326C10.7047 9.78154 10.7995 9.74825 10.898 9.73469C10.9965 9.72113 11.0968 9.72757 11.1928 9.75367C11.2887 9.77977 11.3784 9.82498 11.4565 9.88657C11.6132 10.0123 11.7206 10.1893 11.7598 10.3864C11.7805 10.478 11.7804 10.5731 11.7598 10.6647C11.7391 10.7563 11.6982 10.8422 11.6402 10.9161C11.6364 10.9408 11.6266 10.9642 11.6117 10.9843C11.5969 11.0044 11.5773 11.0206 11.5547 11.0314ZM10.6705 10.177L10.5936 10.2283C10.5215 10.3266 10.4908 10.4493 10.5082 10.57C10.5466 10.7033 10.6295 10.8194 10.7431 10.899C10.8512 10.976 10.9836 11.0112 11.1156 10.9978C11.2477 10.9844 11.3703 10.9235 11.4608 10.8264C11.4981 10.7784 11.5253 10.7234 11.5407 10.6647C11.5561 10.6059 11.5594 10.5447 11.5505 10.4846C11.5263 10.3479 11.4571 10.2231 11.354 10.1301C11.2541 10.0554 11.1309 10.0188 11.0065 10.0266C10.8821 10.0344 10.7645 10.0862 10.6748 10.1728L10.6705 10.177Z" fill="#7D807D"/>
<path d="M17.8041 5.14496C17.8819 5.03514 17.9372 4.91103 17.9669 4.77975C17.9965 4.64848 17.9999 4.51264 17.9769 4.38005C17.9539 4.24745 17.9049 4.12071 17.8327 4.00713C17.7605 3.89354 17.6666 3.79534 17.5563 3.71819C17.3328 3.55782 17.0575 3.48647 16.7843 3.51806C16.511 3.54966 16.2593 3.68192 16.0783 3.88906C15.9218 4.1107 15.8596 4.38532 15.9052 4.65275C15.9509 4.92019 16.1007 5.15862 16.3218 5.31583C16.4296 5.40357 16.5539 5.46887 16.6874 5.50784C16.8209 5.54681 16.9608 5.55869 17.0989 5.54276C17.237 5.52684 17.3706 5.48344 17.4917 5.41512C17.6128 5.34681 17.719 5.25494 17.8041 5.14496Z" fill="white"/>
<path d="M17.8511 5.44381C17.6786 5.60951 17.4633 5.72365 17.2293 5.77332C16.9954 5.82299 16.7522 5.8062 16.5273 5.72487C16.3024 5.64353 16.1048 5.50089 15.9567 5.31307C15.8087 5.12525 15.7161 4.89975 15.6896 4.66207C15.6679 4.50423 15.6787 4.34363 15.7213 4.19011C15.7639 4.0366 15.8374 3.89339 15.9373 3.76927C16.094 3.57113 16.3058 3.42373 16.546 3.34558C16.7862 3.26743 17.0442 3.26203 17.2875 3.33004C17.5308 3.39805 17.7486 3.53645 17.9134 3.72784C18.0783 3.91924 18.1829 4.1551 18.2142 4.40578C18.2355 4.56399 18.225 4.72487 18.1831 4.87893C18.1413 5.033 18.0691 5.17713 17.9707 5.30284C17.9322 5.32847 17.8596 5.37547 17.8511 5.44381ZM16.3303 3.9316C16.3089 3.9428 16.2901 3.95853 16.2754 3.97771C16.2606 3.99689 16.2502 4.01907 16.2449 4.04267C16.1782 4.12454 16.1315 4.22083 16.1085 4.32391C16.0855 4.42698 16.0869 4.53399 16.1125 4.63644C16.1514 4.86621 16.2787 5.07164 16.467 5.20886C16.6417 5.34606 16.8629 5.40987 17.0838 5.38674C17.3047 5.36361 17.5079 5.25539 17.6503 5.08499C17.717 5.00394 17.7637 4.90838 17.7867 4.80599C17.8097 4.70361 17.8083 4.59725 17.7827 4.49548C17.7431 4.2648 17.6161 4.05826 17.4282 3.91879C17.276 3.78485 17.0795 3.71204 16.8768 3.7144C16.674 3.71677 16.4794 3.79415 16.3303 3.9316Z" fill="#D51317"/>
<path d="M5.57529 17.1442C5.65309 17.0344 5.70842 16.9103 5.73809 16.779C5.76775 16.6478 5.77116 16.5119 5.74814 16.3793C5.72511 16.2467 5.6761 16.12 5.60392 16.0064C5.53173 15.8928 5.4378 15.7946 5.32753 15.7175C5.10368 15.558 4.82867 15.4873 4.55567 15.5188C4.28267 15.5504 4.03106 15.682 3.84949 15.8883C3.77147 15.9979 3.71586 16.1218 3.68587 16.2529C3.65587 16.384 3.65208 16.5197 3.67471 16.6523C3.69733 16.7849 3.74594 16.9117 3.81772 17.0254C3.8895 17.1392 3.98304 17.2376 4.09298 17.3151C4.2006 17.4034 4.32487 17.4692 4.45842 17.5085C4.59197 17.5478 4.73206 17.5598 4.87036 17.5439C5.00865 17.5279 5.14233 17.4843 5.26343 17.4157C5.38453 17.347 5.49059 17.2547 5.57529 17.1442Z" fill="white"/>
<path d="M5.63037 17.4434C5.40809 17.6507 5.11937 17.7722 4.81577 17.7863C4.51216 17.8004 4.21344 17.7061 3.97292 17.5203C3.83634 17.4186 3.72142 17.2906 3.63487 17.1439C3.54833 16.9972 3.49189 16.8347 3.46886 16.666C3.44722 16.5081 3.45802 16.3475 3.50063 16.194C3.54323 16.0405 3.61673 15.8973 3.71661 15.7732C3.87323 15.5735 4.08561 15.4248 4.32684 15.3459C4.56806 15.267 4.82726 15.2616 5.07159 15.3302C5.31592 15.3989 5.53438 15.5385 5.69926 15.7314C5.86414 15.9243 5.96802 16.1619 5.99774 16.4139C6.01887 16.5718 6.00782 16.7322 5.96524 16.8857C5.92266 17.0391 5.84943 17.1824 5.74998 17.3067C5.71154 17.3366 5.63892 17.3794 5.63037 17.4434Z" fill="#D51317"/>
<path d="M5.85534 5.43097L5.5734 7.08415L5.05225 7.12685L4.15091 3.84615C4.13981 3.80122 4.14129 3.75409 4.15521 3.70995C4.16913 3.6658 4.19493 3.62635 4.22979 3.5959C4.26465 3.56546 4.30722 3.54519 4.35283 3.53734C4.39844 3.52949 4.44534 3.53436 4.48837 3.5514L7.70501 4.57234L7.64522 5.11059L6.07747 5.23448C6.02584 5.24336 5.97771 5.26645 5.93848 5.30116C5.89924 5.33587 5.87046 5.38082 5.85534 5.43097Z" fill="black"/>
<path d="M15.5699 15.3204L14.7412 14.449" stroke="#D51317" stroke-width="0.31373" stroke-linecap="round" stroke-linejoin="round"/>
<path d="M18.9156 18.8229L18.0869 17.9514" stroke="#D51317" stroke-width="0.31373" stroke-linecap="round" stroke-linejoin="round"/>
<path d="M16.8057 14.8803L16.8313 13.6799" stroke="#D51317" stroke-width="0.31373" stroke-linecap="round" stroke-linejoin="round"/>
<path d="M16.6904 19.7244L16.7161 18.5198" stroke="#D51317" stroke-width="0.31373" stroke-linecap="round" stroke-linejoin="round"/>
<path d="M18.6035 16.5889L19.8082 16.6188" stroke="#D51317" stroke-width="0.31373" stroke-linecap="round" stroke-linejoin="round"/>
<path d="M13.7637 16.4734L14.9683 16.5033" stroke="#D51317" stroke-width="0.31373" stroke-linecap="round" stroke-linejoin="round"/>
<path d="M3.52835 2.81242C3.32212 3.01504 3.06786 3.16202 2.78934 3.23959C2.53238 3.31228 2.2603 3.31228 2.00334 3.23959C1.76095 3.15512 1.53905 3.02056 1.3521 2.84466C1.16516 2.66875 1.01736 2.45544 0.918304 2.21863C0.839838 2.02963 0.801952 1.82626 0.807104 1.62168C0.812255 1.41711 0.860331 1.21589 0.94821 1.03108C1.04194 0.831926 1.17237 0.652226 1.33267 0.501387C1.48398 0.349882 1.66028 0.22561 1.85382 0.13402C2.01766 0.0624539 2.19242 0.0191168 2.37071 0.00585938L2.49885 0.61672C2.37365 0.615433 2.2497 0.641693 2.13576 0.693621C2.01021 0.749398 1.89585 0.827554 1.79829 0.924288C1.69657 1.01812 1.61263 1.12956 1.55052 1.25322C1.49635 1.36391 1.46581 1.48465 1.46082 1.60777C1.45808 1.72854 1.48292 1.84834 1.53344 1.95806C1.58707 2.08376 1.66388 2.19824 1.75984 2.29554C1.8829 2.42911 2.03694 2.53034 2.20838 2.59029C2.36295 2.63723 2.52798 2.63723 2.68255 2.59029C2.85678 2.5348 3.01504 2.43808 3.1439 2.30835C3.35974 2.10806 3.50003 1.83955 3.54117 1.54798L4.13067 1.7402C4.1005 1.92875 4.03839 2.11078 3.94699 2.27845C3.83729 2.47793 3.6959 2.65827 3.52835 2.81242Z" fill="black"/>
<path d="M19.3206 4.11969L17.2061 1.90691L18.0305 1.12091C18.2099 0.931026 18.4446 0.802477 18.7012 0.753531C18.8122 0.738204 18.9254 0.751329 19.03 0.791676C19.1346 0.832022 19.2272 0.898273 19.2992 0.984211C19.3622 1.04939 19.409 1.12839 19.4359 1.21489C19.4616 1.3022 19.4731 1.39306 19.4701 1.48401C19.4635 1.57203 19.4433 1.65848 19.4103 1.74031C19.5632 1.668 19.7342 1.64273 19.9015 1.6677C20.0667 1.70253 20.2165 1.78936 20.3287 1.91545C20.4454 2.03186 20.5243 2.18072 20.5551 2.34263C20.5858 2.49923 20.5755 2.66108 20.5252 2.81253C20.4443 2.99549 20.3265 3.15981 20.1792 3.29524L19.3206 4.11969ZM18.5559 2.38535L18.8464 2.10769C18.9095 2.04843 18.9604 1.97729 18.9959 1.89836C19.0279 1.8268 19.0365 1.74695 19.0204 1.67023C19.0043 1.5935 18.9643 1.52383 18.9062 1.47119C18.8713 1.43147 18.8277 1.40039 18.7788 1.38037C18.7299 1.36036 18.677 1.35196 18.6243 1.35585C18.4977 1.37461 18.3815 1.43647 18.2954 1.531L18.0091 1.8044L18.5559 2.38535ZM19.453 3.32941L19.7648 3.03039C19.8732 2.94334 19.9474 2.82079 19.9742 2.68438C19.9808 2.62558 19.973 2.56604 19.9514 2.51094C19.9299 2.45585 19.8951 2.40687 19.8503 2.36826C19.8132 2.32176 19.7655 2.28475 19.7113 2.26024C19.6571 2.23573 19.5979 2.22444 19.5384 2.2273C19.4039 2.24309 19.2796 2.30677 19.1882 2.4067L18.8678 2.71427L19.453 3.32941Z" fill="black"/>
<path d="M3.63104 19.989C3.46906 20.1443 3.28651 20.2765 3.08851 20.382C2.9128 20.4743 2.7217 20.5337 2.52463 20.5572L2.38367 19.9933C2.5318 19.9868 2.67709 19.9505 2.81085 19.8865C2.95472 19.825 3.08639 19.7382 3.19958 19.6302C3.28279 19.5502 3.35336 19.458 3.4089 19.3568C3.45044 19.2765 3.46962 19.1865 3.46443 19.0962C3.46066 19.0479 3.44737 19.0009 3.42533 18.9577C3.40329 18.9146 3.37293 18.8762 3.33601 18.8448C3.29908 18.8135 3.25632 18.7897 3.21018 18.7749C3.16404 18.7602 3.11543 18.7547 3.06716 18.7588C2.92234 18.7933 2.79131 18.8707 2.69124 18.9809L2.26406 19.4081L1.91805 19.045L2.34523 18.6563C2.41402 18.5921 2.47175 18.5171 2.5161 18.4341C2.54906 18.3665 2.56238 18.291 2.55454 18.2162C2.54813 18.1449 2.5163 18.0782 2.46484 18.0283C2.41847 17.9784 2.35687 17.9454 2.28969 17.9343C2.21443 17.9263 2.13849 17.9412 2.07183 17.977C1.98234 18.0246 1.90032 18.0851 1.82835 18.1564C1.72697 18.2506 1.64308 18.3619 1.58058 18.4854C1.52224 18.6 1.48601 18.7247 1.47378 18.8527L0.935547 18.716C0.95068 18.5252 1.00755 18.34 1.10214 18.1735C1.20042 17.9858 1.32886 17.8155 1.48233 17.6695C1.62586 17.5281 1.79372 17.4138 1.97785 17.332C2.12601 17.2693 2.28859 17.2486 2.44775 17.2722C2.59912 17.3023 2.73687 17.3802 2.84075 17.4943C2.90447 17.5613 2.9526 17.6415 2.98172 17.7293C3.01263 17.8186 3.02852 17.9124 3.02871 18.0069C3.02527 18.0973 3.00799 18.1866 2.97745 18.2718C3.12067 18.2023 3.28046 18.1742 3.4388 18.1906C3.60505 18.22 3.756 18.306 3.86598 18.4341C3.9913 18.5602 4.07226 18.7236 4.09666 18.8997C4.12086 19.0856 4.09428 19.2745 4.01976 19.4465C3.93109 19.6534 3.79846 19.8386 3.63104 19.989Z" fill="black"/>
<path d="M20.6796 23.1334L18.5693 20.9206L19.035 20.4934L19.8381 21.3478L20.5258 20.6685L20.9316 21.0957L20.2567 21.7365L21.158 22.6848L20.6796 23.1334ZM22.7728 21.2281C22.619 21.3878 22.4364 21.5168 22.2345 21.6083C22.0416 21.685 21.8355 21.7228 21.6279 21.7194C21.423 21.7162 21.221 21.6711 21.0341 21.587C20.837 21.4975 20.6587 21.3714 20.5087 21.2153C20.3601 21.058 20.2426 20.8739 20.1627 20.6728C20.0867 20.4813 20.0503 20.2764 20.0559 20.0705C20.0646 19.8636 20.1139 19.6603 20.2011 19.4724C20.2917 19.2702 20.4225 19.0885 20.5856 18.9385C20.7438 18.7837 20.9311 18.6618 21.1367 18.5796C21.3313 18.5043 21.5389 18.468 21.7475 18.4728C22.0655 18.4855 22.3729 18.5904 22.6323 18.7747C22.8917 18.959 23.0919 19.2148 23.2085 19.5109C23.2845 19.7023 23.3194 19.9075 23.311 20.1132C23.306 20.3216 23.258 20.5266 23.17 20.7155C23.0722 20.9106 22.9372 21.0847 22.7728 21.2281ZM22.3456 20.801C22.4408 20.7129 22.5177 20.6069 22.572 20.4891C22.6221 20.3791 22.6483 20.2597 22.6489 20.1388C22.6515 20.0144 22.6283 19.8907 22.5805 19.7758C22.5266 19.6467 22.4482 19.5292 22.3498 19.4297C22.2281 19.2956 22.0735 19.1954 21.9013 19.1392C21.7435 19.0945 21.5764 19.0945 21.4186 19.1392C21.2581 19.1856 21.1114 19.2707 20.9914 19.387C20.8975 19.4752 20.822 19.5812 20.7693 19.6989C20.7177 19.8085 20.69 19.9279 20.6881 20.0491C20.686 20.1736 20.7092 20.2971 20.7565 20.4122C20.8121 20.5391 20.8903 20.6549 20.9871 20.754C21.1102 20.8876 21.2643 20.9888 21.4357 21.0487C21.5935 21.0935 21.7606 21.0935 21.9184 21.0487C22.0851 21.0041 22.236 20.9139 22.3541 20.7882L22.3456 20.801Z" fill="black"/>
</svg>
