<svg width="29" height="29" viewBox="0 0 29 29" fill="none" xmlns="http://www.w3.org/2000/svg">
<rect x="0.780273" y="0.412415" width="28" height="28" fill="#009640"/>
<g clip-path="url(#clip0_3546_24897)">
<rect width="24" height="24" transform="translate(2.78027 2.41241)" fill="#009640"/>
<path d="M5.93701 18.1526V13.5136C5.93701 11.7641 5.93701 11.1146 6.4805 10.5712C7.02399 10.0277 9.79629 9.8024 11.5458 9.8024H18.1316C19.8811 9.8024 22.5362 10.0277 23.0797 10.5712C23.6232 11.1146 23.6232 11.7641 23.6232 13.5136V15.0213C23.6232 18.5202 23.6232 20.2697 22.5362 21.3567C21.4492 22.4436 19.6997 22.4436 16.2008 22.4436H13.3594C9.86045 22.4436 8.11098 22.4436 7.02399 21.3567" stroke="#FFED00" stroke-width="1.5" stroke-linecap="round"/>
<path d="M17.9991 10.2085V10.2085C18.328 8.85182 18.4924 8.17346 18.3061 7.64444C18.1675 7.25093 17.9027 6.91428 17.553 6.68688C17.0827 6.38116 16.3847 6.38116 14.9887 6.38116H14.5725C13.1765 6.38116 12.4785 6.38116 12.0083 6.68688C11.6585 6.91428 11.3937 7.25093 11.2551 7.64444C11.0688 8.17346 11.2332 8.85182 11.5621 10.2085V10.2085" stroke="#FFED00" stroke-width="1.5"/>
<path d="M14.78 15.4854L14.78 20.0667" stroke="#FFED00" stroke-width="1.5" stroke-linecap="round"/>
<path d="M17.0706 17.7758L12.4893 17.7758" stroke="#FFED00" stroke-width="1.5" stroke-linecap="round"/>
<path d="M19.9124 13.1949L6.28456 13.1949" stroke="#FFED00" stroke-width="1.5" stroke-linecap="round"/>
</g>
<defs>
<clipPath id="clip0_3546_24897">
<rect width="24" height="24" fill="white" transform="translate(2.78027 2.41241)"/>
</clipPath>
</defs>
</svg>
