<svg width="29" height="29" viewBox="0 0 29 29" fill="none" xmlns="http://www.w3.org/2000/svg">
<rect x="0.155273" y="0.912354" width="28" height="28" fill="#009640"/>
<g clip-path="url(#clip0_3546_24936)">
<rect width="24" height="24" transform="translate(2.15527 2.91235)" fill="#009640"/>
<rect x="11.3269" y="9.22583" width="6.01758" height="12.9976" rx="3.00879" stroke="#FFED00" stroke-width="1.5"/>
<path d="M23.9036 14.9124C23.9036 20.2796 19.5225 24.6306 14.1553 24.6306C8.78803 24.6306 4.40698 20.2796 4.40698 14.9124C4.40698 9.54511 8.78803 5.19409 14.1553 5.19409C15.5261 5.19409 16.8326 5.47793 18.0182 5.99003" stroke="#FFED00" stroke-width="1.5" stroke-linecap="round"/>
<path d="M8.85962 23.3067V18.8219C8.85962 17.1472 9.88876 15.7129 11.3491 15.1169M19.8118 22.7651V18.8219C19.8118 17.1472 18.7826 15.7129 17.3223 15.1169" stroke="#FFED00" stroke-width="1.5"/>
<path d="M21.181 6.67324C21.3306 6.21259 21.9823 6.21259 22.132 6.67324L22.561 7.99339C22.6279 8.1994 22.8199 8.33888 23.0365 8.33888L24.4246 8.33888C24.9089 8.33888 25.1103 8.95869 24.7185 9.24339L23.5955 10.0593C23.4202 10.1866 23.3469 10.4123 23.4138 10.6183L23.8428 11.9384C23.9925 12.3991 23.4652 12.7822 23.0734 12.4975L21.9504 11.6816C21.7751 11.5542 21.5378 11.5542 21.3626 11.6816L20.2396 12.4975C19.8478 12.7822 19.3205 12.3991 19.4702 11.9384L19.8991 10.6183C19.9661 10.4123 19.8927 10.1866 19.7175 10.0593L18.5945 9.24339C18.2027 8.95869 18.4041 8.33888 18.8884 8.33888L20.2765 8.33888C20.4931 8.33888 20.6851 8.1994 20.752 7.99339L21.181 6.67324Z" fill="#FFED00"/>
</g>
<defs>
<clipPath id="clip0_3546_24936">
<rect width="24" height="24" fill="white" transform="translate(2.15527 2.91235)"/>
</clipPath>
</defs>
</svg>
