<svg width="29" height="29" viewBox="0 0 29 29" fill="none" xmlns="http://www.w3.org/2000/svg">
<rect x="0.780273" y="0.796387" width="28" height="28" fill="#009640"/>
<g clip-path="url(#clip0_3546_24927)">
<rect width="24" height="24" transform="translate(2.78027 2.79639)" fill="#009640"/>
<path d="M4.78027 5.79639L5.82963 6.00626C6.69163 6.17866 7.34001 6.89371 7.42748 7.76841L7.58027 9.29639L8.56887 17.5347C8.68949 18.5399 9.54222 19.2964 10.5546 19.2964H19.5476C21.1536 19.2964 22.5535 18.2033 22.9431 16.6453L24.0658 12.1542C24.4287 10.7026 23.3308 9.29639 21.8345 9.29639H16.1803H11.2803" stroke="#FFED00" stroke-width="1.5" stroke-linecap="round"/>
<path d="M22.7803 15.6089H18.7803" stroke="#FFED00" stroke-width="1.5" stroke-linecap="round" stroke-linejoin="round"/>
<path d="M23.6553 13.0464L13.9678 13.0464" stroke="#FFED00" stroke-width="1.5" stroke-linecap="round" stroke-linejoin="round"/>
<circle cx="11.2803" cy="22.7964" r="1.5" fill="#FFED00"/>
<circle cx="20.2803" cy="22.7964" r="1.5" fill="#FFED00"/>
</g>
<defs>
<clipPath id="clip0_3546_24927">
<rect width="24" height="24" fill="white" transform="translate(2.78027 2.79639)"/>
</clipPath>
</defs>
</svg>
